<svg width="91" height="30" viewBox="0 0 91 30" fill="none" xmlns="http://www.w3.org/2000/svg">
<g clip-path="url(#clip0_407_760)">
<mask id="mask0_407_760" style="mask-type:luminance" maskUnits="userSpaceOnUse" x="0" y="0" width="91" height="30">
<path d="M90.4156 0.124023H0.256042V30.0002H90.4156V0.124023Z" fill="white"/>
</mask>
<g mask="url(#mask0_407_760)">
<path d="M17.0968 15.6846C18.6995 17.2096 19.714 19.0634 20.1228 21.2491C20.2027 21.6775 20.2535 22.1142 20.2732 22.5489C20.3095 23.3176 20.1684 24.0666 19.9371 24.7959C19.1165 27.3935 16.9328 29.353 14.2865 29.8697C13.8425 29.9558 13.3944 30.0003 12.9421 29.9993C11.162 29.9972 9.38185 30.0003 7.60279 29.9993C4.15974 29.9952 1.17626 27.5106 0.437656 24.1652C0.319396 23.633 0.257153 23.0956 0.257153 22.55C0.257153 17.5592 0.253004 12.5694 0.259228 7.57864C0.263378 4.08789 2.68045 1.06396 6.05917 0.302534C6.57889 0.185311 7.10587 0.125144 7.63909 0.125144C9.39433 0.125144 11.1495 0.122032 12.9047 0.126181C16.4131 0.13448 19.4464 2.65321 20.1415 6.12946C20.2919 6.88258 20.3074 7.64086 20.2618 8.40334C20.212 9.22912 20.0854 10.0403 19.8593 10.835C19.3562 12.6016 18.4194 14.0954 17.0854 15.3402C17.0314 15.3911 16.9764 15.4409 16.9069 15.5062C16.9806 15.5747 17.0397 15.6286 17.0989 15.6846" fill="white"/>
<path d="M10.1588 6.78516C7.21263 6.78516 4.82458 8.84538 4.82458 11.3869C4.82458 13.9285 7.21263 15.9887 10.1588 15.9887C13.1049 15.9887 15.4929 13.9285 15.4929 11.3869C15.4929 8.84538 13.1049 6.78516 10.1588 6.78516ZM8.57361 13.8445C8.25411 13.8445 7.99581 13.5197 7.99581 13.1183C7.99581 12.7168 8.25411 12.3922 8.57361 12.3922C8.89317 12.3922 9.15147 12.7168 9.15147 13.1183C9.15147 13.5197 8.89317 13.8445 8.57361 13.8445ZM11.7438 13.8445C11.4243 13.8445 11.166 13.5197 11.166 13.1183C11.166 12.7168 11.4243 12.3922 11.7438 12.3922C12.0633 12.3922 12.3216 12.7168 12.3216 13.1183C12.3216 13.5197 12.0623 13.8445 11.7438 13.8445Z" fill="black"/>
<path d="M13.498 7.94342C13.498 7.94342 13.4472 7.1675 13.6578 6.91952C13.663 6.91952 13.6671 6.9206 13.6723 6.9206C13.9358 6.9206 14.1423 6.6737 14.0717 6.39878C14.0364 6.25976 13.9223 6.14672 13.7844 6.11042C13.5084 6.03776 13.2605 6.24422 13.2605 6.50768C13.2605 6.64778 13.331 6.77222 13.4389 6.8459C13.3995 7.14572 13.2698 7.42682 13.0623 7.64882C13.0623 7.64882 13.3912 7.85942 13.498 7.9424V7.94342Z" fill="black"/>
<path d="M6.81951 7.94342C6.81951 7.94342 6.87033 7.1675 6.65973 6.91952C6.65457 6.91952 6.65037 6.9206 6.64521 6.9206C6.38169 6.9206 6.17529 6.6737 6.24585 6.39878C6.28107 6.25976 6.39519 6.14672 6.53319 6.11042C6.80913 6.03776 7.05705 6.24422 7.05705 6.50768C7.05705 6.64778 6.98649 6.77222 6.87861 6.8459C6.91803 7.14572 7.04769 7.42682 7.25517 7.64882C7.25517 7.64882 6.92631 7.85942 6.81951 7.9424V7.94342Z" fill="black"/>
<path d="M15.1309 18.0674C15.1278 19.0653 14.913 20.0498 14.5022 20.9533C14.8777 21.9731 15.3082 21.4762 15.3082 21.4762C15.886 20.4409 15.1309 18.0674 15.1309 18.0674Z" fill="black"/>
<path d="M14.3642 16.4399C14.2107 16.1152 13.913 15.8828 13.5613 15.8123C13.2708 15.7542 12.9731 15.8392 12.7211 15.9959C11.6318 16.6743 8.87133 16.7439 7.53315 15.9534C7.29249 15.8112 7.00407 15.7563 6.73335 15.8237C6.40551 15.9067 6.13065 16.1318 5.98539 16.4389C5.23227 17.6494 5.65344 21.2388 8.09541 23.5863C8.62653 24.1621 9.36411 24.5002 10.1453 24.5283V24.5304C10.1453 24.5304 10.1546 24.5304 10.1598 24.5293C10.1649 24.5293 10.1691 24.5293 10.1743 24.5304V24.5283C10.9565 24.5002 11.6961 24.1621 12.2293 23.5863C14.6982 21.2388 15.1205 17.6484 14.3653 16.4389L14.3642 16.4399Z" fill="black"/>
<path d="M5.04869 21.4658C5.04869 21.4658 5.48024 21.9876 5.85473 20.944C5.44393 20.0435 5.2292 19.0622 5.22609 18.0674C5.22609 18.0674 4.47088 20.4326 5.04869 21.4668V21.4658Z" fill="black"/>
<path d="M27.4776 13.9234H29.3511C29.9217 13.9234 30.6053 13.5323 30.6053 12.6526C30.6053 12.0333 30.3117 11.4793 29.4652 11.4793H27.4776V13.9234ZM29.4009 15.5043H27.4786V18.3384H29.3034C30.3792 18.3384 30.9165 17.8011 30.9165 16.9536C30.9165 16.0251 30.265 15.5033 29.4019 15.5033M29.1561 20.9122H26.4682C25.7514 20.9122 25.1974 20.3748 25.1974 19.7389V10.5997C25.1974 9.93157 25.7836 9.42637 26.4682 9.42637H29.2214C31.6654 9.42637 32.8875 10.9908 32.8875 12.6194C32.8875 13.7595 32.1541 14.4607 31.1769 14.9328C32.1873 15.3405 33.1966 16.0728 33.1966 17.4909C33.1966 19.3976 31.6654 20.9122 29.1561 20.9122ZM37.9374 21.0262C35.6241 21.0262 34.402 19.7067 34.402 17.9961V15.5686C34.402 13.858 35.6241 12.5385 37.9374 12.5385C40.2507 12.5385 41.4727 13.858 41.4727 15.5686V17.9961C41.4727 19.7067 40.2507 21.0262 37.9374 21.0262ZM37.9374 19.104C38.7849 19.104 39.2248 18.6808 39.2248 17.9961V15.5521C39.2248 14.884 38.7849 14.4607 37.9374 14.4607C37.0899 14.4607 36.65 14.884 36.65 15.5521V17.9961C36.65 18.6798 37.0899 19.104 37.9374 19.104ZM45.5143 14.7045V18.2886C45.5143 18.8914 45.9864 19.2658 46.752 19.2658C47.5663 19.2658 47.9574 18.8426 47.9574 18.1579V15.1765C47.9574 14.5904 47.6316 14.2481 46.8328 14.2481C46.3121 14.2481 45.8556 14.3944 45.5133 14.7045M43.2654 18.2886V10.1432C43.2654 9.62143 43.672 9.14941 44.3898 9.14941C45.1077 9.14941 45.5143 9.62143 45.5143 10.1432V13.0105C46.0351 12.717 46.5247 12.5541 47.2903 12.5541C49.3588 12.5541 50.2064 13.7274 50.2064 15.2585V17.9961C50.2064 19.7067 49.0497 21.0262 46.7364 21.0262C44.4231 21.0262 43.2664 19.8208 43.2664 18.2897M54.2469 14.7045V18.2886C54.2469 18.8914 54.72 19.2658 55.4856 19.2658C56.2999 19.2658 56.691 18.8426 56.691 18.1579V15.1765C56.691 14.5904 56.3652 14.2481 55.5664 14.2481C55.0457 14.2481 54.5893 14.3944 54.2469 14.7045ZM51.999 18.2886V10.1432C51.999 9.62143 52.4067 9.14941 53.1235 9.14941C53.8403 9.14941 54.2479 9.62143 54.2479 10.1432V13.0105C54.7698 12.717 55.2583 12.5541 56.0239 12.5541C58.0935 12.5541 58.94 13.7274 58.94 15.2585V17.9961C58.94 19.7067 57.7833 21.0262 55.47 21.0262C53.1567 21.0262 52 19.8208 52 18.2897M62.2962 21.0262C61.6446 21.0262 60.7314 20.8146 60.7314 19.104V10.1598C60.7314 9.62245 61.2204 9.14941 61.8558 9.14941C62.4918 9.14941 62.9808 9.58927 62.9808 10.1598V18.909C62.9808 19.2513 62.997 19.3323 63.2256 19.5771C63.3882 19.7565 63.519 19.8375 63.519 20.1476C63.519 20.7337 63.0624 21.0273 62.2968 21.0273M68.3076 17.8C67.884 17.8 67.5252 17.7669 67.053 17.7025V18.2399C67.053 18.7938 67.4766 19.1528 68.3562 19.1528C68.877 19.1528 69.3012 19.0221 69.822 18.7938C69.8874 18.7617 70.0338 18.6963 70.3104 18.6963C71.0928 18.6963 71.3208 19.2181 71.3208 19.5926C71.3208 20.7327 69.2358 21.0262 68.1936 21.0262C66.0432 21.0262 64.8042 19.7877 64.8042 18.1756V15.4546C64.8042 13.8093 66.0096 12.5551 68.274 12.5551C70.4082 12.5551 71.4672 13.6796 71.4672 15.3249C71.4672 16.9701 70.5054 17.8011 68.3064 17.8011M69.2358 15.2097C69.2358 14.5582 68.8938 14.2979 68.259 14.2979C67.4766 14.2979 67.053 14.7056 67.053 15.357V16.0573C67.575 16.106 68.0634 16.1226 68.2266 16.1226C68.8458 16.1226 69.237 15.911 69.237 15.2107M79.9248 18.6476L79.3878 20.2929C79.2246 20.7648 78.7032 21.0584 78.312 21.0584C77.676 21.0584 77.1384 20.6352 77.1384 20.0158C77.1384 19.9339 77.1552 19.7389 77.1876 19.658L80.364 10.3881C80.5752 9.75313 80.901 9.28009 81.6834 9.28009C82.4652 9.28009 82.791 9.73657 83.0196 10.3881L86.196 19.658C86.2278 19.7389 86.2446 19.935 86.2446 20.0158C86.2446 20.6352 85.7394 21.0584 85.0716 21.0584C84.648 21.0584 84.1266 20.7493 83.9634 20.2929L83.3928 18.6476H79.923H79.9248ZM82.8078 16.7907L81.9768 14.0043C81.8304 13.5323 81.7488 12.913 81.6834 12.4078C81.618 12.913 81.537 13.5323 81.39 14.0043L80.5266 16.7907H82.8078ZM87.5328 20.0158V10.3227C87.5328 9.76873 88.038 9.28009 88.6734 9.28009C89.3082 9.28009 89.8134 9.76873 89.8134 10.3227V20.0158C89.8134 20.5698 89.2926 21.0584 88.6734 21.0584C88.0536 21.0584 87.5328 20.5698 87.5328 20.0158Z" fill="white"/>
</g>
</g>
<defs>
<clipPath id="clip0_407_760">
<rect width="90.6" height="30" fill="white"/>
</clipPath>
</defs>
</svg>
