<svg width="49" height="38" viewBox="0 0 49 38" fill="none" xmlns="http://www.w3.org/2000/svg">
<path d="M31.6805 0C32.5483 0.10473 32.5483 0.10473 33.0299 0.616339C33.5208 1.32324 33.9292 2.03319 34.3278 2.79591C34.4029 2.9386 34.4781 3.0813 34.5556 3.22832C34.7165 3.53391 34.8769 3.83979 35.0368 4.14591C35.4626 4.96049 35.8928 5.77275 36.3232 6.58488C36.4096 6.74783 36.4959 6.91077 36.5848 7.07866C37.3393 8.4985 38.1237 9.90009 38.9218 11.2958C40.0386 13.2505 41.1205 15.2212 42.1834 17.2056C43.5847 19.8213 45.0086 22.4209 46.5016 24.9855C46.5906 25.1389 46.6795 25.2924 46.7711 25.4505C47.0136 25.8684 47.2579 26.2854 47.5022 26.7023C48.1624 27.9487 48.2387 29.1131 48.1081 30.5063C47.8102 31.3999 47.5485 31.8132 46.8214 32.4063C44.5809 33.0631 41.8143 32.3071 39.5343 31.9874C39.2328 31.9458 38.9313 31.9042 38.6207 31.8614C37.9896 31.7741 37.3586 31.6865 36.7276 31.5982C35.9205 31.4853 35.1132 31.3737 34.3058 31.2626C33.53 31.1557 32.7544 31.0479 31.9788 30.9401C31.5453 30.8803 31.5453 30.8803 31.1031 30.8192C30.7013 30.7629 30.7013 30.7629 30.2914 30.7054C30.0563 30.6727 29.8211 30.6399 29.5789 30.6061C29.0412 30.5197 28.5252 30.4093 28 30.2669C28.3934 29.1225 29.0242 28.1643 29.6757 27.1549C32.4278 27.324 35.1545 27.6668 37.8895 28.0077C38.3482 28.0643 38.8068 28.1209 39.2655 28.1774C40.3779 28.3146 41.4901 28.4527 42.6023 28.5912C41.893 26.7529 41.0977 24.9622 40.2684 23.1752C40.0762 22.7601 40.0762 22.7601 39.8802 22.3367C39.1525 20.7717 38.4109 19.2165 37.6284 17.6783C36.6369 15.7239 35.6958 13.7447 34.7473 11.7692C33.7936 9.78631 32.8195 7.81515 31.8301 5.8499C31.5932 5.8499 31.3562 5.8499 31.112 5.8499C31.0483 6.0196 30.9846 6.1893 30.919 6.36414C30.6212 7.07562 30.2734 7.72412 29.8917 8.39427C29.7414 8.65839 29.591 8.92252 29.4361 9.19464C29.2717 9.48116 29.1072 9.76762 28.9426 10.054C28.8587 10.2006 28.7748 10.3472 28.6884 10.4982C27.3146 12.8973 25.8955 15.2666 24.4521 17.6244C22.8679 20.2127 21.3452 22.8324 19.861 25.4792C22.3341 26.2611 22.3341 26.2611 24.8881 26.1974C25.9618 25.4577 26.7036 24.3554 27.442 23.2993C27.7378 22.8785 28.046 22.4735 28.3647 22.0699C29.4093 20.8096 29.4093 20.8096 29.6757 19.2553C28.1559 19.3818 28.1559 19.3818 26.6535 19.6293C25.8211 19.7827 25.0157 19.7484 24.1699 19.7341C24.4638 18.7619 24.7329 17.9005 25.3668 17.1009C26.0106 16.8917 26.5497 16.7655 27.2108 16.6698C27.3918 16.6396 27.5728 16.6094 27.7592 16.5783C28.142 16.5154 28.5251 16.455 28.9086 16.3969C29.4916 16.3086 30.0731 16.2134 30.6547 16.1167C31.0278 16.0563 31.4009 15.9963 31.774 15.9367C31.9464 15.909 32.1188 15.8813 32.2964 15.8528C34.9871 15.4477 34.9871 15.4477 35.8996 15.9039C36.2956 16.6958 36.123 17.4735 35.8996 18.2978C35.536 18.9705 35.0796 19.5459 34.598 20.138C34.4682 20.304 34.3385 20.47 34.2048 20.6411C33.9401 20.9794 33.6738 21.3165 33.4059 21.6523C32.8718 22.3228 32.3514 23.0033 31.8301 23.6839C31.6379 23.9329 31.4457 24.1819 31.2476 24.4385C29.8906 26.2027 28.5658 27.9917 27.2342 29.775C26.693 30.4986 26.1502 31.221 25.6062 31.9425C25.4577 32.1396 25.3093 32.3367 25.1563 32.5397C24.6439 33.219 24.1302 33.8975 23.6163 34.5757C23.4501 34.7963 23.2839 35.0168 23.1126 35.244C22.9539 35.453 22.7952 35.6621 22.6317 35.8774C22.49 36.0647 22.3482 36.252 22.2022 36.445C21.7653 36.9829 21.3425 37.4726 20.8186 37.9271C19.408 38.0508 18.7418 37.6331 17.6617 36.7451C17.3225 36.4479 16.9834 36.1506 16.6453 35.8521C15.8407 35.1679 14.9815 34.5494 14.1311 33.9236C13.7984 33.6731 13.4771 33.4075 13.1583 33.1395C13.1583 32.9815 13.1583 32.8235 13.1583 32.6607C13.0266 32.603 12.8948 32.5453 12.7591 32.4858C12.0741 32.1129 11.5257 31.6517 10.9291 31.1496C10.1592 30.5077 9.39352 29.8889 8.5652 29.3243C8.34302 29.1614 8.12085 28.9984 7.89194 28.8306C7.89194 28.6726 7.89194 28.5146 7.89194 28.3518C7.69059 28.262 7.69059 28.262 7.48518 28.1704C6.59322 27.6888 5.86665 27.0161 5.09229 26.3666C4.51786 25.8886 3.92938 25.4354 3.33059 24.9883C3.08472 24.8015 3.08472 24.8015 2.83388 24.6109C2.50984 24.3652 2.18318 24.123 1.85379 23.8846C1.42782 23.5577 1.05428 23.2587 0.710477 22.846C0.608552 22.0409 0.608552 22.0409 0.710477 21.4097C1.67366 20.9788 2.59252 20.7833 3.63221 20.6129C3.80129 20.5848 3.97037 20.5567 4.14457 20.5278C4.70058 20.4358 5.25689 20.3458 5.81324 20.2558C6.20104 20.1922 6.58883 20.1285 6.9766 20.0647C7.78799 19.9314 8.59951 19.7991 9.41116 19.6676C10.4511 19.4989 11.4908 19.3284 12.5303 19.1572C13.3305 19.0256 14.1308 18.8947 14.9312 18.7642C15.3146 18.7015 15.698 18.6387 16.0813 18.5757C16.6169 18.4879 17.1526 18.401 17.6884 18.3145C17.9931 18.2649 18.2978 18.2153 18.6118 18.1642C19.3823 18.0584 19.3823 18.0584 20.3398 18.0584C20.4039 17.8876 20.468 17.7168 20.534 17.5408C20.8249 16.8464 21.1639 16.2193 21.5414 15.5683C21.6859 15.3183 21.8303 15.0684 21.9792 14.8109C22.1343 14.5446 22.2895 14.2783 22.4494 14.0039C22.6116 13.7242 22.7738 13.4446 22.9359 13.165C24.3242 10.7732 25.7256 8.38901 27.1398 6.01237C27.4025 5.57073 27.6649 5.12889 27.9271 4.68689C28.3246 4.01681 28.7232 3.34735 29.1221 2.67809C29.2432 2.474 29.3642 2.26991 29.4889 2.05964C29.6008 1.87245 29.7128 1.68526 29.8281 1.4924C29.9752 1.24557 29.9752 1.24557 30.1252 0.993763C30.6073 0.257521 30.7808 0.116627 31.6805 0ZM14.8761 21.2723C14.6505 21.3078 14.4248 21.3433 14.1923 21.3798C13.7168 21.4552 13.2414 21.531 12.766 21.6074C12.0368 21.7238 11.307 21.8359 10.577 21.9479C10.1149 22.0216 9.65282 22.0957 9.19077 22.17C8.97184 22.2029 8.75291 22.2359 8.52735 22.2698C8.32517 22.3033 8.12298 22.3368 7.91467 22.3713C7.73648 22.3995 7.5583 22.4276 7.37471 22.4567C6.84124 22.5885 6.84124 22.5885 6.45565 23.3248C8.2237 24.7205 10.021 26.0502 11.8856 27.3142C13.3547 28.313 14.792 29.3529 16.2219 30.407C17.7379 31.5203 17.7379 31.5203 19.3823 32.4213C20.2208 32.2295 20.6836 31.6355 21.2375 31C21.3844 30.8349 21.5313 30.6698 21.6826 30.4997C22.0844 30.026 22.0844 30.026 22.0155 29.3093C21.8622 29.2901 21.7089 29.2708 21.551 29.251C20.8528 29.1624 20.155 29.0713 19.4571 28.9802C19.0954 28.9348 19.0954 28.9348 18.7263 28.8886C18.4926 28.8577 18.2588 28.8268 18.018 28.795C17.8036 28.7675 17.5893 28.7399 17.3684 28.7115C16.7184 28.5852 16.1578 28.3768 15.5522 28.1124C15.3412 26.2463 16.0263 25.1426 16.9885 23.5791C17.2581 23.1283 17.5274 22.6773 17.7964 22.2261C17.9167 22.0289 18.0371 21.8317 18.1611 21.6286C18.4446 21.2239 18.4446 21.2239 18.4247 20.931C17.2204 20.8741 16.0612 21.0848 14.8761 21.2723Z" fill="white"/>
<path d="M35.7803 15.9563C36.1762 16.7481 36.0037 17.5258 35.7803 18.3501C35.4166 19.0228 34.9603 19.5983 34.4787 20.1904C34.3489 20.3564 34.2191 20.5224 34.0855 20.6935C33.8207 21.0318 33.5544 21.3688 33.2865 21.7046C32.7524 22.3752 32.2321 23.0556 31.7108 23.7362C31.5186 23.9853 31.3263 24.2343 31.1283 24.4908C29.7713 26.255 28.4465 28.044 27.1149 29.8274C26.5737 30.551 26.0308 31.2734 25.4869 31.9949C25.3384 32.192 25.1899 32.389 25.037 32.5921C24.5245 33.2714 24.0109 33.9498 23.497 34.6281C23.3308 34.8487 23.1645 35.0692 22.9932 35.2964C22.8345 35.5054 22.6759 35.7144 22.5124 35.9298C22.3706 36.1171 22.2289 36.3044 22.0829 36.4974C21.6459 37.0353 21.2232 37.5249 20.6992 37.9795C19.2887 38.1032 18.6224 37.6855 17.5424 36.7975C17.2032 36.5003 16.8641 36.203 16.5259 35.9045C15.7213 35.2203 14.8622 34.6017 14.0118 33.976C13.679 33.7255 13.3577 33.4599 13.039 33.1918C13.039 33.0338 13.039 32.8758 13.039 32.7131C12.9072 32.6554 12.7755 32.5977 12.6397 32.5382C11.9547 32.1653 11.4064 31.7041 10.8098 31.202C10.0398 30.56 9.27418 29.9413 8.44586 29.3767C8.22368 29.2137 7.7726 28.8318 7.7726 28.8318L7.53322 28.5238C7.53322 28.5238 7.38835 28.3768 7.29383 28.2844C6.46255 27.4713 5.74731 27.0685 4.97295 26.419C4.39852 25.941 3.81004 25.4877 3.21125 25.0407C3.04733 24.9161 2.88342 24.7916 2.71454 24.6633C2.3905 24.4176 2.06384 24.1754 1.73445 23.9369C1.30848 23.61 0.934938 23.311 0.591136 22.8984C-0.00730277 22.2486 -0.366399 22.0093 0.591136 21.4621C1.55398 21.0318 2.47409 20.8342 3.51287 20.6615C3.68195 20.633 3.85103 20.6045 4.02523 20.5752C4.58123 20.482 5.13754 20.3908 5.6939 20.2998C6.0817 20.2356 6.46949 20.1713 6.85726 20.1069C7.66863 19.9726 8.48016 19.8393 9.29182 19.7068C10.3319 19.5368 11.3715 19.3637 12.411 19.1899C13.211 19.0565 14.0114 18.9249 14.8118 18.7938C15.1953 18.7308 15.5787 18.6671 15.962 18.6028C16.4974 18.5132 17.0332 18.4261 17.5691 18.3397C17.8738 18.2896 18.1785 18.2394 18.4924 18.1878C19.1712 18.1199 19.39 17.9547 20.3475 18.0744C20.1498 18.4669 19.8166 19.1308 19.607 19.5171C19.4363 19.8421 19.4363 19.8421 19.262 20.1736C19.0309 21.1864 16.1819 21.401 14.6932 21.636C14.354 21.6908 14.354 21.6908 14.008 21.7467C13.2912 21.8622 12.5741 21.9764 11.8571 22.0905C11.3688 22.1689 10.8805 22.2475 10.3922 22.3261C9.20002 22.5179 8.0076 22.7085 6.81507 22.8984C6.81507 23.1354 6.81507 23.3724 6.81507 23.6165C7.19448 23.9807 7.19447 23.9807 7.71088 24.3104C7.90478 24.4433 8.09869 24.5763 8.29847 24.7132C8.51003 24.8549 8.7216 24.9966 8.93958 25.1426C9.38117 25.4443 9.82253 25.7463 10.2637 26.0487C10.488 26.2018 10.7123 26.3549 10.9435 26.5126C11.9245 27.1901 12.885 27.8945 13.8469 28.5987C15.1517 29.5433 16.4597 30.4829 17.7967 31.3815C18.0578 31.5589 18.3188 31.7364 18.5878 31.9192C19.2225 32.3 19.2225 32.3 19.7819 32.1137C20.2987 31.6916 20.6537 31.25 21.0433 30.7082C21.6655 29.8757 22.2792 29.2904 23.093 28.6436C23.6007 28.0264 24.0612 27.3759 24.5293 26.7285C25.6079 25.2941 26.7467 23.9184 27.9239 22.5644C29.202 21.1229 29.202 21.1229 29.5564 19.3077C28.0366 19.4342 28.0366 19.4342 26.5342 19.6817C25.7018 19.835 24.8963 19.8008 24.0506 19.7864C24.3445 18.8143 24.6135 17.9528 25.2475 17.1532C25.8913 16.9441 26.4304 16.8179 27.0915 16.7221C27.3629 16.6769 27.3629 16.6769 27.6399 16.6307C28.0226 16.5678 28.4058 16.5074 28.7892 16.4493C29.3722 16.361 29.9537 16.2658 30.5354 16.169C30.9084 16.1086 31.2815 16.0486 31.6547 15.989C31.8271 15.9614 31.9994 15.9337 32.177 15.9052C34.8677 15.5 34.8677 15.5 35.7803 15.9563Z" fill="white"/>
</svg>
