<svg width="99" height="40" viewBox="0 0 99 40" fill="none" xmlns="http://www.w3.org/2000/svg">
<mask id="mask0_407_786" style="mask-type:luminance" maskUnits="userSpaceOnUse" x="0" y="0" width="99" height="40">
<path d="M98.5859 0H0V40H98.5859V0Z" fill="white"/>
</mask>
<g mask="url(#mask0_407_786)">
<path d="M22.5902 28.2474V5.55148C22.5902 5.32934 22.7005 5.21777 22.9216 5.21777H24.612C24.8326 5.21777 24.9434 5.32934 24.9434 5.55148V19.1022C24.9434 19.1471 24.9652 19.1804 25.0096 19.2024C25.0537 19.2248 25.0868 19.214 25.1091 19.1691L31.1078 11.893C31.2181 11.7595 31.3507 11.6929 31.5056 11.6929H33.3948C33.5274 11.6929 33.6154 11.7321 33.66 11.8096C33.7042 11.8879 33.6819 11.9821 33.5939 12.0935L29.8154 16.8329C29.7708 16.8995 29.7601 16.9556 29.7824 16.9998L34.2566 28.1807L34.2897 28.3143C34.2897 28.4925 34.1902 28.5813 33.9914 28.5813H32.2348C32.0578 28.5813 31.9365 28.4927 31.8703 28.3143L28.2576 18.7687C28.2353 18.7243 28.2022 18.6966 28.1583 18.6853C28.1137 18.6744 28.0806 18.691 28.0588 18.7354L25.0096 22.4402C24.965 22.5293 24.9434 22.5851 24.9434 22.607V28.2476C24.9434 28.4702 24.8326 28.5813 24.612 28.5813H22.9216C22.7005 28.5813 22.5902 28.4702 22.5902 28.2476V28.2474Z" fill="white"/>
<path d="M39.0791 27.2039C37.8528 26.1026 37.2396 24.6289 37.2396 22.7817V21.8805C37.2396 21.6584 37.3499 21.5468 37.571 21.5468H39.195C39.4156 21.5468 39.5264 21.6584 39.5264 21.8805V22.6481C39.5264 23.8946 39.9457 24.8957 40.7857 25.6519C41.6251 26.4087 42.7411 26.7868 44.1332 26.7868C45.4366 26.7868 46.4641 26.4311 47.2156 25.7188C47.9665 25.007 48.3425 24.0725 48.3425 22.9152C48.3425 22.1589 48.1653 21.5024 47.8121 20.9461C47.4584 20.3902 46.9391 19.8781 46.2543 19.4108C45.5692 18.9436 44.5857 18.3542 43.3045 17.6419C41.9342 16.9076 40.857 16.2624 40.0732 15.706C39.2886 15.1502 38.6531 14.4712 38.1675 13.67C37.6813 12.8691 37.4384 11.8902 37.4384 10.7329C37.4384 8.93058 38.0126 7.51777 39.1619 6.49421C40.3104 5.47114 41.8464 4.95898 43.7687 4.95898C45.8236 4.95898 47.4584 5.52643 48.6739 6.66131C49.8888 7.79594 50.4967 9.29809 50.4967 11.167V11.9346C50.4967 12.1573 50.3859 12.2683 50.1653 12.2683H48.5082C48.2871 12.2683 48.1768 12.1573 48.1768 11.9346V11.2003C48.1768 9.95439 47.779 8.94736 46.9837 8.17975C46.1881 7.41213 45.0945 7.02833 43.7026 7.02833C42.4648 7.02833 41.4987 7.35117 40.8026 7.99636C40.1065 8.64204 39.7585 9.55404 39.7585 10.7331C39.7585 11.4899 39.9241 12.1239 40.2555 12.6356C40.5869 13.1478 41.0675 13.615 41.6972 14.0373C42.3268 14.4603 43.2933 15.0275 44.5972 15.7394C46.0994 16.5852 47.2538 17.303 48.0607 17.8921C48.867 18.482 49.5077 19.1603 49.983 19.9282C50.4577 20.6958 50.6955 21.6362 50.6955 22.7483C50.6955 24.6175 50.0989 26.1026 48.9057 27.2042C47.7126 28.3055 46.0886 28.8562 44.0337 28.8562C41.9788 28.8562 40.305 28.3055 39.0788 27.2042L39.0791 27.2039Z" fill="white"/>
<path d="M61.3669 13.5659H58.2184C58.1299 13.5659 58.0858 13.6109 58.0858 13.6995V23.7125C58.0858 24.7588 58.29 25.4871 58.6991 25.8986C59.1076 26.3105 59.7647 26.5161 60.6711 26.5161H61.2346C61.4552 26.5161 61.566 26.6277 61.566 26.8498V28.2515C61.566 28.4742 61.4552 28.5852 61.2346 28.5852L60.2072 28.6185C58.7706 28.6185 57.6768 28.3238 56.926 27.7342C56.1746 27.1448 55.7993 26.0487 55.7993 24.4465V13.6995C55.7993 13.6109 55.7547 13.5659 55.6667 13.5659H54.0096C53.7885 13.5659 53.6782 13.4549 53.6782 13.2322V12.0307C53.6782 11.8086 53.7885 11.697 54.0096 11.697H55.6667C55.7547 11.697 55.7993 11.6526 55.7993 11.5635V7.75851C55.7993 7.53637 55.9096 7.4248 56.1307 7.4248H57.7547C57.9753 7.4248 58.0861 7.53637 58.0861 7.75851V11.5635C58.0861 11.6526 58.1302 11.697 58.2187 11.697H61.3672C61.5878 11.697 61.6986 11.8086 61.6986 12.0307V13.2322C61.6986 13.4549 61.5878 13.5659 61.3672 13.5659H61.3669Z" fill="white"/>
<path d="M73.2681 26.1435C73.8755 25.7096 74.3122 25.1256 74.5772 24.3913C74.6433 24.1912 74.7759 24.1134 74.975 24.1576L76.4995 24.458C76.6098 24.4804 76.6818 24.5306 76.7149 24.6083C76.748 24.6865 76.7531 24.77 76.7316 24.8586C76.3556 26.105 75.671 27.0839 74.6767 27.7957C73.6823 28.5081 72.4779 28.8637 71.0639 28.8637C69.451 28.8637 68.136 28.4355 67.1201 27.5788C66.1034 26.7226 65.4738 25.5595 65.2309 24.091C65.1424 23.5351 65.087 22.8786 65.0652 22.1218C65.0429 21.3656 65.0321 20.7367 65.0321 20.2361V19.1847C65.0321 18.05 65.0762 17.1269 65.1647 16.4143C65.3412 14.9238 65.9544 13.7223 67.0041 12.8098C68.0534 11.8978 69.374 11.4414 70.9647 11.4414C72.6659 11.4414 74.047 11.9311 75.1076 12.91C76.1681 13.8894 76.7647 15.1795 76.8973 16.7816C76.9634 17.5159 76.9968 18.8626 76.9968 20.8201C76.9968 21.0427 76.886 21.1538 76.6654 21.1538H67.5179C67.4294 21.1538 67.3853 21.1987 67.3853 21.2873C67.3853 21.9772 67.4071 22.7451 67.4514 23.5902C67.5617 24.5471 67.9429 25.3206 68.5948 25.9098C69.2463 26.4997 70.0806 26.7944 71.0973 26.7944C71.9367 26.7944 72.6603 26.5774 73.2681 26.1435ZM68.5617 14.3951C67.9321 14.985 67.5617 15.7583 67.4514 16.7147C67.4068 17.6492 67.3853 18.4284 67.3853 19.0511C67.3853 19.1402 67.4294 19.1847 67.5179 19.1847H74.511C74.599 19.1847 74.6436 19.1402 74.6436 19.0511C74.6436 18.4062 74.599 17.6383 74.511 16.7483C74.4002 15.7919 74.0304 15.0127 73.4007 14.4119C72.771 13.8111 71.9698 13.5108 70.9978 13.5108C70.0257 13.5108 69.1914 13.8059 68.5617 14.3951Z" fill="white"/>
<path d="M92.9798 19.9858C92.9798 21.4991 92.869 22.8228 92.6484 23.9574C92.2947 25.6262 91.6707 26.8558 90.7759 27.6454C89.881 28.4355 88.693 28.8304 87.2129 28.8304C86.3065 28.8304 85.5609 28.6744 84.9756 28.3632C84.3901 28.0519 83.9202 27.5956 83.5671 26.9948C83.5447 26.9282 83.5117 26.9005 83.4678 26.9114C83.4232 26.923 83.4016 26.9615 83.4016 27.0281V34.7381C83.4016 34.9602 83.2908 35.0718 83.0702 35.0718H81.38C81.159 35.0718 81.0487 34.9602 81.0487 34.7381V12.0424C81.0487 11.8203 81.159 11.7087 81.38 11.7087H83.0702C83.2908 11.7087 83.4016 11.8203 83.4016 12.0424V13.3106C83.4016 13.3772 83.4234 13.4165 83.4678 13.4273C83.5119 13.4389 83.545 13.4105 83.5671 13.3439C84.3626 12.0757 85.6327 11.4414 87.3786 11.4414C88.7705 11.4414 89.8808 11.8144 90.7094 12.5595C91.5381 13.3051 92.1511 14.501 92.5489 16.1473C92.8357 17.3271 92.9798 18.6061 92.9798 19.9856V19.9858ZM90.5935 20.1527C90.5935 18.3729 90.4278 16.982 90.0965 15.9807C89.809 15.1578 89.4114 14.5346 88.9033 14.1115C88.3947 13.689 87.732 13.4774 86.9146 13.4774C86.1408 13.4774 85.5168 13.6892 85.042 14.1115C84.5666 14.5346 84.197 15.1462 83.9318 15.9471C83.6004 16.9485 83.4347 18.3502 83.4347 20.1524C83.4347 21.9547 83.6222 23.4347 83.9982 24.458C84.2634 25.2147 84.6166 25.793 85.0587 26.1936C85.5004 26.5942 86.0969 26.7944 86.8484 26.7944C88.3067 26.7944 89.345 26.0492 89.9639 24.5582C90.3835 23.4236 90.5935 21.955 90.5935 20.1524V20.1527Z" fill="white"/>
<path d="M18.2082 7.28988H5.90181C5.755 7.28988 5.63612 7.19707 5.63612 7.08279V5.42095C5.63612 5.30667 5.755 5.21387 5.90181 5.21387H18.2082C18.355 5.21387 18.4738 5.30667 18.4738 5.42095V7.08279C18.4738 7.19707 18.355 7.28988 18.2082 7.28988Z" fill="white"/>
<path d="M18.2082 28.5858H5.90181C5.755 28.5858 5.63612 28.493 5.63612 28.3787V26.7168C5.63612 26.6026 5.755 26.5098 5.90181 26.5098H18.2082C18.355 26.5098 18.4738 26.6026 18.4738 26.7168V28.3787C18.4738 28.493 18.355 28.5858 18.2082 28.5858Z" fill="white"/>
<path d="M8.70806 20.0451C10.4257 20.0451 11.8181 18.6429 11.8181 16.9132C11.8181 15.1835 10.4257 13.7812 8.70806 13.7812C6.99043 13.7812 5.59801 15.1835 5.59801 16.9132C5.59801 18.6429 6.99043 20.0451 8.70806 20.0451Z" fill="white"/>
</g>
</svg>
