<svg width="26" height="24" viewBox="0 0 26 24" fill="none" xmlns="http://www.w3.org/2000/svg">
<path d="M6.44338 5.08893C6.73873 3.89127 8.47104 3.89127 8.7664 5.08892L9.57908 8.38436C9.68453 8.81196 10.0241 9.14582 10.4589 9.2495L13.8104 10.0486C15.0284 10.339 15.0284 12.0424 13.8104 12.3328L10.4589 13.1319C10.0241 13.2355 9.68453 13.5694 9.57908 13.997L8.7664 17.2924C8.47104 18.4901 6.73873 18.4901 6.44338 17.2924L5.6307 13.997C5.52525 13.5694 5.18571 13.2355 4.75084 13.1319L1.39936 12.3328C0.181334 12.0424 0.181333 10.339 1.39936 10.0486L4.75084 9.2495C5.18571 9.14582 5.52525 8.81196 5.63069 8.38436L6.44338 5.08893Z" fill="url(#paint0_linear_44_402)"/>
<path d="M21.2454 4.7666C21.3646 4.28293 22.0642 4.28293 22.1835 4.7666L22.5117 6.09745C22.5543 6.27013 22.6914 6.40496 22.867 6.44683L24.2205 6.76954C24.7124 6.88683 24.7124 7.57471 24.2205 7.692L22.867 8.01471C22.6914 8.05658 22.5543 8.19141 22.5117 8.36409L22.1835 9.69494C22.0642 10.1786 21.3646 10.1786 21.2454 9.69494L20.9172 8.36409C20.8746 8.19141 20.7375 8.05658 20.5618 8.01471L19.2084 7.692C18.7165 7.57471 18.7165 6.88683 19.2084 6.76954L20.5618 6.44683C20.7375 6.40496 20.8746 6.27013 20.9172 6.09745L21.2454 4.7666Z" fill="url(#paint1_linear_44_402)"/>
<path fill-rule="evenodd" clip-rule="evenodd" d="M21.7144 5.00272L21.4466 6.08892C21.3395 6.5231 20.9947 6.8621 20.5532 6.96738L19.4485 7.23077L20.5532 7.49416C20.9947 7.59944 21.3395 7.93844 21.4466 8.37261L21.7144 9.45882L21.9823 8.37261C22.0894 7.93844 22.4341 7.59944 22.8757 7.49416L23.9804 7.23077L22.8757 6.96738C22.4341 6.8621 22.0894 6.5231 21.9823 6.08892L21.7144 5.00272ZM22.2505 4.41457C22.1142 3.86181 21.3147 3.86181 21.1784 4.41457L20.8033 5.93554C20.7546 6.1329 20.5979 6.28699 20.3972 6.33484L18.8504 6.70365C18.2882 6.83769 18.2882 7.62385 18.8504 7.75789L20.3972 8.1267C20.5979 8.17455 20.7546 8.32864 20.8033 8.526L21.1784 10.047C21.3147 10.5997 22.1142 10.5997 22.2505 10.047L22.6256 8.526C22.6743 8.32864 22.831 8.17455 23.0317 8.1267L24.5785 7.75789C25.1407 7.62385 25.1407 6.83769 24.5785 6.70365L23.0317 6.33484C22.831 6.28699 22.6743 6.1329 22.6256 5.93554L22.2505 4.41457Z" fill="url(#paint2_linear_44_402)"/>
<path d="M17.1431 15.5932C17.2339 15.2189 17.7661 15.2189 17.8569 15.5932L18.1066 16.623C18.139 16.7566 18.2434 16.861 18.377 16.8934L19.4068 17.1431C19.7811 17.2339 19.7811 17.7661 19.4068 17.8569L18.377 18.1066C18.2434 18.139 18.139 18.2434 18.1066 18.377L17.8569 19.4068C17.7661 19.7811 17.2339 19.7811 17.1431 19.4068L16.8934 18.377C16.861 18.2434 16.7566 18.139 16.623 18.1066L15.5932 17.8569C15.2189 17.7661 15.2189 17.2339 15.5932 17.1431L16.623 16.8934C16.7566 16.861 16.861 16.7566 16.8934 16.623L17.1431 15.5932Z" fill="url(#paint3_linear_44_402)"/>
<path fill-rule="evenodd" clip-rule="evenodd" d="M17.5 15.7759L17.2962 16.6164C17.2147 16.9524 16.9524 17.2147 16.6164 17.2962L15.7759 17.5L16.6164 17.7038C16.9524 17.7853 17.2147 18.0476 17.2962 18.3836L17.5 19.2241L17.7038 18.3836C17.7853 18.0476 18.0476 17.7853 18.3836 17.7038L19.2241 17.5L18.3836 17.2962C18.0476 17.2147 17.7853 16.9524 17.7038 16.6164L17.5 15.7759ZM17.9079 15.3208C17.8042 14.8931 17.1958 14.8931 17.0921 15.3208L16.8067 16.4977C16.7697 16.6505 16.6505 16.7697 16.4977 16.8067L15.3208 17.0921C14.8931 17.1958 14.8931 17.8042 15.3208 17.9079L16.4977 18.1933C16.6505 18.2303 16.7697 18.3495 16.8067 18.5023L17.0921 19.6792C17.1958 20.1069 17.8042 20.1069 17.9079 19.6792L18.1933 18.5023C18.2303 18.3495 18.3495 18.2303 18.5023 18.1933L19.6792 17.9079C20.1069 17.8042 20.1069 17.1958 19.6792 17.0921L18.5023 16.8067C18.3495 16.7697 18.2303 16.6505 18.1933 16.4977L17.9079 15.3208Z" fill="url(#paint4_linear_44_402)"/>
<defs>
<linearGradient id="paint0_linear_44_402" x1="19.5" y1="1.91034e-06" x2="41.6458" y2="11.7742" gradientUnits="userSpaceOnUse">
<stop stop-color="#B6D7E5"/>
<stop offset="1" stop-color="#2F6482"/>
</linearGradient>
<linearGradient id="paint1_linear_44_402" x1="19.5" y1="1.91034e-06" x2="41.6458" y2="11.7742" gradientUnits="userSpaceOnUse">
<stop stop-color="#B6D7E5"/>
<stop offset="1" stop-color="#2F6482"/>
</linearGradient>
<linearGradient id="paint2_linear_44_402" x1="19.5" y1="1.91034e-06" x2="41.6458" y2="11.7742" gradientUnits="userSpaceOnUse">
<stop stop-color="#B6D7E5"/>
<stop offset="1" stop-color="#2F6482"/>
</linearGradient>
<linearGradient id="paint3_linear_44_402" x1="9.58323" y1="13.3333" x2="24.6391" y2="17.3976" gradientUnits="userSpaceOnUse">
<stop stop-color="#B6D7E5"/>
<stop offset="1" stop-color="#2F6482"/>
</linearGradient>
<linearGradient id="paint4_linear_44_402" x1="9.58323" y1="13.3333" x2="24.6391" y2="17.3976" gradientUnits="userSpaceOnUse">
<stop stop-color="#B6D7E5"/>
<stop offset="1" stop-color="#2F6482"/>
</linearGradient>
</defs>
</svg>
