<svg width="92" height="36" viewBox="0 0 92 36" fill="none" xmlns="http://www.w3.org/2000/svg">
<path d="M4.85888 34.0018C4.79755 34.1426 4.71536 34.2663 4.60864 34.3716C4.50315 34.4769 4.37925 34.5601 4.23818 34.6214C4.09711 34.6814 3.94501 34.712 3.78431 34.712H3.44697C3.28628 34.712 3.13417 34.6814 2.99187 34.6214C2.84958 34.5614 2.72569 34.4769 2.61896 34.3716C2.51347 34.2663 2.43005 34.1426 2.36872 34.0018C2.30739 33.861 2.27795 33.7092 2.27795 33.5488V31.0034C2.27795 30.843 2.30861 30.6912 2.36872 30.5504C2.42883 30.4095 2.51224 30.2859 2.61896 30.1806C2.72446 30.0753 2.84958 29.992 2.99187 29.9308C3.13417 29.8708 3.28628 29.8402 3.44697 29.8402H3.78431C3.94501 29.8402 4.09711 29.8708 4.23818 29.9308C4.37925 29.992 4.50315 30.0753 4.60864 30.1806C4.71413 30.2859 4.79755 30.4095 4.85888 30.5504C4.91899 30.6912 4.94966 30.843 4.94966 31.0034V33.5488C4.94966 33.7092 4.91899 33.861 4.85888 34.0018ZM4.52277 31.0034C4.52277 30.8981 4.50315 30.7989 4.46267 30.7071C4.42218 30.6152 4.36821 30.5357 4.30074 30.4671C4.23205 30.3985 4.15232 30.3447 4.06031 30.3055C3.96831 30.2663 3.87018 30.2455 3.76346 30.2455H3.46537C3.35988 30.2455 3.26052 30.2651 3.16852 30.3055C3.07652 30.3447 2.99678 30.3985 2.92686 30.4671C2.85694 30.5357 2.80297 30.6152 2.76249 30.7071C2.722 30.7989 2.70238 30.8968 2.70238 31.0034V33.5488C2.70238 33.6541 2.722 33.7533 2.76249 33.8451C2.80297 33.9369 2.85694 34.0165 2.92686 34.0863C2.99678 34.1561 3.07652 34.21 3.16852 34.2504C3.26052 34.2896 3.35865 34.3104 3.46537 34.3104H3.76346C3.86895 34.3104 3.96831 34.2908 4.06031 34.2504C4.15232 34.2112 4.23205 34.1561 4.30074 34.0863C4.36944 34.0165 4.42341 33.9369 4.46267 33.8451C4.50192 33.7533 4.52277 33.6553 4.52277 33.5488V31.0034Z" fill="white"/>
<path d="M7.88511 34.1035C7.83358 34.2247 7.76244 34.33 7.67166 34.4206C7.58089 34.5112 7.47539 34.5822 7.35395 34.6336C7.23251 34.685 7.10371 34.7107 6.96632 34.7107H6.86328C6.71117 34.7107 6.5701 34.6801 6.43885 34.6177C6.30759 34.5552 6.19719 34.4695 6.10396 34.3606V36H5.69671V31.2593H5.83287L6.0549 31.6033C6.14813 31.4772 6.26343 31.378 6.4045 31.3046C6.54434 31.2311 6.69768 31.1944 6.86328 31.1944H6.96632C7.10371 31.1944 7.23251 31.2201 7.35395 31.2715C7.47539 31.3229 7.58089 31.3939 7.67166 31.4845C7.76244 31.5751 7.83358 31.6804 7.88511 31.8016C7.93663 31.9229 7.96239 32.0514 7.96239 32.1885V33.7153C7.96239 33.8525 7.93663 33.981 7.88511 34.1022V34.1035ZM7.55513 32.1665C7.55513 32.0845 7.53918 32.0086 7.50851 31.9363C7.47785 31.8653 7.43614 31.8029 7.38217 31.749C7.32942 31.6964 7.26686 31.6547 7.19448 31.6229C7.12211 31.5923 7.04605 31.5764 6.96387 31.5764H6.69277C6.61058 31.5764 6.53453 31.5923 6.46216 31.6229C6.38978 31.6535 6.32845 31.6951 6.27447 31.749C6.22172 31.8016 6.18002 31.8641 6.14812 31.9363C6.11746 32.0073 6.10151 32.0845 6.10151 32.1665V33.7398C6.10151 33.8218 6.11746 33.8978 6.14812 33.97C6.17879 34.0422 6.2205 34.1035 6.27447 34.1573C6.32722 34.21 6.38978 34.2516 6.46216 34.2834C6.53453 34.3153 6.61058 34.33 6.69277 34.33H6.96387C7.04605 34.33 7.12211 34.314 7.19448 34.2834C7.26563 34.2528 7.32819 34.2112 7.38217 34.1573C7.43614 34.1035 7.47662 34.0422 7.50851 33.97C7.53918 33.899 7.55513 33.8218 7.55513 33.7398V32.1665Z" fill="white"/>
<path d="M10.8304 34.1035C10.7788 34.2247 10.7077 34.33 10.6169 34.4206C10.5261 34.5112 10.4207 34.5822 10.2992 34.6336C10.1778 34.685 10.049 34.7107 9.91158 34.7107H9.64048C9.5031 34.7107 9.3743 34.685 9.25285 34.6336C9.13141 34.5822 9.02592 34.5112 8.93514 34.4206C8.84437 34.33 8.77322 34.2247 8.7217 34.1035C8.67018 33.9822 8.64442 33.8537 8.64442 33.7166V32.1898C8.64442 32.0526 8.67018 31.9241 8.7217 31.8029C8.77322 31.6817 8.84437 31.5764 8.93514 31.4858C9.02592 31.3952 9.13141 31.3241 9.25285 31.2727C9.3743 31.2213 9.5031 31.1956 9.64048 31.1956H9.91158C10.049 31.1956 10.1778 31.2213 10.2992 31.2727C10.4207 31.3241 10.5261 31.3952 10.6169 31.4858C10.7077 31.5764 10.7788 31.6817 10.8304 31.8029C10.8819 31.9241 10.9076 32.0526 10.9076 32.1898V32.9868H9.04922V33.741C9.04922 33.8231 9.06517 33.899 9.09584 33.9712C9.12651 34.0435 9.16821 34.1047 9.22219 34.1586C9.27493 34.2112 9.3375 34.2528 9.40987 34.2847C9.48224 34.3165 9.5583 34.3312 9.64048 34.3312H9.91158C9.99377 34.3312 10.0698 34.3153 10.1422 34.2847C10.2133 34.2541 10.2759 34.2124 10.3299 34.1586C10.3839 34.1047 10.4243 34.0435 10.4562 33.9712C10.4869 33.9002 10.5028 33.8231 10.5028 33.741V33.5158L10.9101 33.5819V33.7178C10.9101 33.8549 10.8843 33.9835 10.8328 34.1047L10.8304 34.1035ZM10.5004 32.1665C10.5004 32.0845 10.4844 32.0086 10.4538 31.9363C10.4231 31.8653 10.3814 31.8029 10.3274 31.749C10.2747 31.6964 10.2121 31.6547 10.1397 31.6229C10.0674 31.5923 9.99132 31.5764 9.90913 31.5764H9.63803C9.55584 31.5764 9.47979 31.5923 9.40742 31.6229C9.33504 31.6535 9.27371 31.6951 9.21973 31.749C9.16699 31.8016 9.12528 31.8641 9.09339 31.9363C9.06272 32.0073 9.04677 32.0845 9.04677 32.1665V32.6685H10.4967V32.1665H10.5004Z" fill="white"/>
<path d="M13.4444 34.6458V32.1665C13.4444 32.0845 13.4285 32.0086 13.3978 31.9363C13.3671 31.8653 13.3254 31.8029 13.2715 31.749C13.2187 31.6964 13.1562 31.6547 13.0838 31.6229C13.0114 31.5923 12.9354 31.5764 12.8532 31.5764H12.5821C12.4999 31.5764 12.4238 31.5923 12.3515 31.6229C12.2791 31.6535 12.2177 31.6951 12.1638 31.749C12.111 31.8016 12.0693 31.8641 12.0374 31.9363C12.0068 32.0073 11.9908 32.0845 11.9908 32.1665V34.6458H11.5835V31.2605H11.7197L11.9417 31.6045C12.035 31.4784 12.1503 31.3792 12.2913 31.3058C12.4312 31.2323 12.5845 31.1956 12.7501 31.1956H12.8532C12.9906 31.1956 13.1194 31.2213 13.2408 31.2727C13.3622 31.3241 13.4677 31.3952 13.5585 31.4858C13.6493 31.5764 13.7204 31.6817 13.7719 31.8029C13.8235 31.9241 13.8492 32.0526 13.8492 32.1898V34.6458H13.442H13.4444Z" fill="white"/>
<path d="M18.5388 34.6458L16.559 31.1944L16.5197 30.9899V34.6458H16.0928V29.9063H16.3149L18.2947 33.3603L18.3377 33.5623V29.9063H18.7645V34.6458H18.5388Z" fill="white"/>
<path d="M21.7 34.1035C21.6485 34.2247 21.5773 34.33 21.4865 34.4206C21.3958 34.5112 21.2903 34.5822 21.1688 34.6336C21.0474 34.685 20.9186 34.7107 20.7812 34.7107H20.5101C20.3727 34.7107 20.2439 34.685 20.1225 34.6336C20.001 34.5822 19.8955 34.5112 19.8048 34.4206C19.714 34.33 19.6428 34.2247 19.5913 34.1035C19.5398 33.9822 19.514 33.8537 19.514 33.7166V32.1898C19.514 32.0526 19.5398 31.9241 19.5913 31.8029C19.6428 31.6817 19.714 31.5764 19.8048 31.4858C19.8955 31.3952 20.001 31.3241 20.1225 31.2727C20.2439 31.2213 20.3727 31.1956 20.5101 31.1956H20.7812C20.9186 31.1956 21.0474 31.2213 21.1688 31.2727C21.2903 31.3241 21.3958 31.3952 21.4865 31.4858C21.5773 31.5764 21.6485 31.6817 21.7 31.8029C21.7515 31.9241 21.7773 32.0526 21.7773 32.1898V32.9868H19.9188V33.741C19.9188 33.8231 19.9348 33.899 19.9655 33.9712C19.9961 34.0435 20.0378 34.1047 20.0918 34.1586C20.1446 34.2112 20.2071 34.2528 20.2795 34.2847C20.3519 34.3165 20.4279 34.3312 20.5101 34.3312H20.7812C20.8634 34.3312 20.9394 34.3153 21.0118 34.2847C21.083 34.2541 21.1455 34.2124 21.1995 34.1586C21.2535 34.1047 21.294 34.0435 21.3258 33.9712C21.3565 33.9002 21.3725 33.8231 21.3725 33.741V33.5158L21.7797 33.5819V33.7178C21.7797 33.8549 21.754 33.9835 21.7024 34.1047L21.7 34.1035ZM21.37 32.1665C21.37 32.0845 21.3541 32.0086 21.3234 31.9363C21.2927 31.8653 21.251 31.8029 21.197 31.749C21.1443 31.6964 21.0817 31.6547 21.0094 31.6229C20.937 31.5923 20.8609 31.5764 20.7787 31.5764H20.5077C20.4255 31.5764 20.3494 31.5923 20.277 31.6229C20.2047 31.6535 20.1433 31.6951 20.0894 31.749C20.0366 31.8016 19.9949 31.8641 19.963 31.9363C19.9323 32.0073 19.9164 32.0845 19.9164 32.1665V32.6685H21.3663V32.1665H21.37Z" fill="white"/>
<path d="M23.6921 34.6458C23.5682 34.6458 23.4517 34.6226 23.3425 34.5761C23.2333 34.5295 23.1389 34.4659 23.0579 34.3838C22.977 34.3018 22.9132 34.2075 22.8653 34.0998C22.8175 33.992 22.7942 33.8757 22.7942 33.7533V31.6474H22.1845V31.2605H22.7942V30.4475L23.2014 30.3814V31.2605H24.0626V31.6474H23.2014V33.7729C23.2014 33.8414 23.2137 33.9051 23.2395 33.9627C23.2652 34.0214 23.2996 34.0728 23.3437 34.1157C23.3879 34.1598 23.4394 34.1941 23.4995 34.2198C23.5596 34.2455 23.6234 34.2577 23.6921 34.2577H24.0626V34.6446H23.6921V34.6458Z" fill="white"/>
<path d="M27.5304 34.6458H27.3084L26.5135 32.0943L26.5 31.9192L26.4865 32.0943L25.6916 34.6458H25.4659L24.3337 31.2605H24.7471L25.5554 33.8194L25.5689 33.9945L25.5824 33.8194L26.3773 31.2605H26.6227L27.4139 33.8194L27.4274 33.9945L27.4409 33.8194L28.2492 31.2605H28.6626L27.5304 34.6458Z" fill="white"/>
<path d="M31.1908 34.1035C31.1393 34.2247 31.0681 34.33 30.9774 34.4206C30.8866 34.5112 30.7811 34.5822 30.6597 34.6336C30.5382 34.685 30.4094 34.7107 30.272 34.7107H30.0009C29.8635 34.7107 29.7347 34.685 29.6133 34.6336C29.4919 34.5822 29.3864 34.5112 29.2956 34.4206C29.2048 34.33 29.1337 34.2247 29.0822 34.1035C29.0306 33.9822 29.0049 33.8537 29.0049 33.7166V32.1898C29.0049 32.0526 29.0306 31.9241 29.0822 31.8029C29.1337 31.6817 29.2048 31.5764 29.2956 31.4858C29.3864 31.3952 29.4919 31.3241 29.6133 31.2727C29.7347 31.2213 29.8635 31.1956 30.0009 31.1956H30.272C30.4094 31.1956 30.5382 31.2213 30.6597 31.2727C30.7811 31.3241 30.8866 31.3952 30.9774 31.4858C31.0681 31.5764 31.1393 31.6817 31.1908 31.8029C31.2423 31.9241 31.2681 32.0526 31.2681 32.1898V33.7166C31.2681 33.8537 31.2423 33.9822 31.1908 34.1035ZM30.8608 32.1665C30.8608 32.0845 30.8449 32.0086 30.8142 31.9363C30.7836 31.8653 30.7418 31.8029 30.6879 31.749C30.6351 31.6964 30.5726 31.6547 30.5002 31.6229C30.4278 31.5923 30.3518 31.5764 30.2696 31.5764H29.9985C29.9163 31.5764 29.8402 31.5923 29.7679 31.6229C29.6955 31.6535 29.6342 31.6951 29.5802 31.749C29.5274 31.8016 29.4857 31.8641 29.4538 31.9363C29.4232 32.0073 29.4072 32.0845 29.4072 32.1665V33.7398C29.4072 33.8218 29.4232 33.8978 29.4538 33.97C29.4845 34.0422 29.5262 34.1035 29.5802 34.1573C29.6329 34.21 29.6955 34.2516 29.7679 34.2834C29.8402 34.3153 29.9163 34.33 29.9985 34.33H30.2696C30.3518 34.33 30.4278 34.314 30.5002 34.2834C30.5713 34.2528 30.6339 34.2112 30.6879 34.1573C30.7418 34.1035 30.7823 34.0422 30.8142 33.97C30.8449 33.899 30.8608 33.8218 30.8608 33.7398V32.1665Z" fill="white"/>
<path d="M32.945 31.6474C32.8628 31.6474 32.7867 31.6633 32.7144 31.6939C32.642 31.7245 32.5806 31.7661 32.5267 31.82C32.4739 31.8727 32.4322 31.9351 32.4003 32.0073C32.3697 32.0784 32.3537 32.1555 32.3537 32.2375V34.6471H31.9465V31.2617H32.0826L32.3046 31.6058C32.3979 31.4796 32.5132 31.3805 32.6542 31.307C32.7941 31.2335 32.9474 31.1968 33.113 31.1968H33.351V31.6498H32.9437L32.945 31.6474Z" fill="white"/>
<path d="M33.8956 34.6458V29.9063H34.3029V34.6458H33.8956ZM35.7663 34.6458L34.3826 32.9538L35.7663 31.2617H36.2963L34.8794 32.9538L36.2963 34.6458H35.7663Z" fill="white"/>
<path d="M39.2943 30.292C39.2256 30.292 39.1618 30.3042 39.1041 30.33C39.0452 30.3557 38.9937 30.39 38.9496 30.434C38.9054 30.4781 38.8711 30.5295 38.8453 30.5895C38.8195 30.6495 38.8073 30.7132 38.8073 30.7818V31.2605H39.5985V31.6474H38.8073V34.6458H38.4V31.6474H37.7879V31.2605H38.4V30.8013C38.4 30.6777 38.4233 30.5614 38.4699 30.4524C38.5166 30.3434 38.5803 30.2479 38.6625 30.1659C38.7447 30.0839 38.8392 30.0202 38.9471 29.9737C39.0551 29.9271 39.1716 29.9039 39.2943 29.9039H39.6684V30.2908H39.2943V30.292Z" fill="white"/>
<path d="M42.1279 34.1035C42.0764 34.2247 42.0052 34.33 41.9145 34.4206C41.8237 34.5112 41.7182 34.5822 41.5967 34.6336C41.4753 34.685 41.3465 34.7107 41.2091 34.7107H40.938C40.8006 34.7107 40.6718 34.685 40.5504 34.6336C40.4289 34.5822 40.3235 34.5112 40.2327 34.4206C40.1419 34.33 40.0708 34.2247 40.0192 34.1035C39.9677 33.9822 39.942 33.8537 39.942 33.7166V32.1898C39.942 32.0526 39.9677 31.9241 40.0192 31.8029C40.0708 31.6817 40.1419 31.5764 40.2327 31.4858C40.3235 31.3952 40.4289 31.3241 40.5504 31.2727C40.6718 31.2213 40.8006 31.1956 40.938 31.1956H41.2091C41.3465 31.1956 41.4753 31.2213 41.5967 31.2727C41.7182 31.3241 41.8237 31.3952 41.9145 31.4858C42.0052 31.5764 42.0764 31.6817 42.1279 31.8029C42.1794 31.9241 42.2052 32.0526 42.2052 32.1898V33.7166C42.2052 33.8537 42.1794 33.9822 42.1279 34.1035ZM41.7979 32.1665C41.7979 32.0845 41.782 32.0086 41.7513 31.9363C41.7206 31.8653 41.6789 31.8029 41.625 31.749C41.5722 31.6964 41.5097 31.6547 41.4373 31.6229C41.3649 31.5923 41.2889 31.5764 41.2067 31.5764H40.9356C40.8534 31.5764 40.7773 31.5923 40.705 31.6229C40.6326 31.6535 40.5712 31.6951 40.5173 31.749C40.4645 31.8016 40.4228 31.8641 40.3909 31.9363C40.3603 32.0073 40.3443 32.0845 40.3443 32.1665V33.7398C40.3443 33.8218 40.3603 33.8978 40.3909 33.97C40.4216 34.0422 40.4633 34.1035 40.5173 34.1573C40.57 34.21 40.6326 34.2516 40.705 34.2834C40.7773 34.3153 40.8534 34.33 40.9356 34.33H41.2067C41.2889 34.33 41.3649 34.314 41.4373 34.2834C41.5084 34.2528 41.571 34.2112 41.625 34.1573C41.6789 34.1035 41.7194 34.0422 41.7513 33.97C41.782 33.899 41.7979 33.8218 41.7979 33.7398V32.1665Z" fill="white"/>
<path d="M43.8808 31.6474C43.7986 31.6474 43.7226 31.6633 43.6502 31.6939C43.5778 31.7245 43.5165 31.7661 43.4625 31.82C43.4098 31.8727 43.3681 31.9351 43.3362 32.0073C43.3055 32.0784 43.2896 32.1555 43.2896 32.2375V34.6471H42.8823V31.2617H43.0185L43.2405 31.6058C43.3337 31.4796 43.449 31.3805 43.5901 31.307C43.7299 31.2335 43.8833 31.1968 44.0489 31.1968H44.2869V31.6498H43.8796L43.8808 31.6474Z" fill="white"/>
<path d="M48.8378 33.9357C48.7777 34.0765 48.6943 34.2002 48.5876 34.3055C48.4809 34.4108 48.357 34.494 48.2147 34.5552C48.0724 34.6152 47.9203 34.6458 47.7596 34.6458H46.2557V29.9063H47.7596C47.9203 29.9063 48.0724 29.9369 48.2147 29.9969C48.357 30.0569 48.4809 30.1402 48.5876 30.2467C48.6931 30.352 48.7765 30.4769 48.8378 30.6189C48.8992 30.7609 48.9286 30.9128 48.9286 31.0732V33.4827C48.9286 33.6431 48.898 33.7949 48.8378 33.9357ZM48.5017 31.0732C48.5017 30.9679 48.4821 30.8687 48.4416 30.7769C48.4024 30.685 48.3472 30.6054 48.2773 30.5357C48.2073 30.4659 48.1276 30.412 48.0356 30.3716C47.9436 30.3312 47.8455 30.3116 47.7387 30.3116H46.6826V34.2381H47.7387C47.8442 34.2381 47.9436 34.2185 48.0356 34.1781C48.1276 34.1377 48.2073 34.0851 48.2773 34.0165C48.3472 33.948 48.4012 33.8684 48.4416 33.7766C48.4809 33.6847 48.5017 33.5868 48.5017 33.4803V31.0707V31.0732Z" fill="white"/>
<path d="M49.6401 30.4475V29.9051H50.1136V30.4475H49.6401ZM49.6732 34.6458V31.2605H50.0805V34.6458H49.6732Z" fill="white"/>
<path d="M53.1165 35.449C53.065 35.5641 52.9938 35.6621 52.9031 35.7429C52.8123 35.8237 52.7068 35.8874 52.5854 35.9327C52.4639 35.978 52.3351 36 52.1977 36H52.0284C51.8911 36 51.7623 35.9767 51.6408 35.9327C51.5194 35.8874 51.4139 35.8237 51.3231 35.7429C51.2323 35.6621 51.1612 35.5629 51.1097 35.449C51.0581 35.3339 51.0324 35.2091 51.0324 35.0719V35.0585C51.0324 34.9262 51.0569 34.805 51.1048 34.6948C51.1538 34.5846 51.2201 34.4891 51.3035 34.4071C51.198 34.3434 51.1133 34.2565 51.0508 34.1475C50.9882 34.0386 50.9563 33.9174 50.9563 33.7851C50.9563 33.6664 50.9821 33.5549 51.0324 33.4533C51.0827 33.3517 51.1526 33.2672 51.2409 33.2035C51.1354 33.1105 51.0508 33.0003 50.9894 32.8693C50.9281 32.7395 50.8962 32.5975 50.8962 32.4432V32.1885C50.8962 32.0514 50.922 31.9229 50.9735 31.8016C51.025 31.6804 51.0962 31.5751 51.1869 31.4845C51.2777 31.3939 51.3832 31.3229 51.5047 31.2715C51.6261 31.2201 51.7549 31.1944 51.8923 31.1944H52.0616C52.2272 31.1944 52.3805 31.2311 52.5203 31.3046C52.6602 31.378 52.7767 31.4784 52.8699 31.6033L53.092 31.2593H53.2281V32.4432C53.2281 32.5803 53.2024 32.7089 53.1509 32.8301C53.0993 32.9513 53.0282 33.0566 52.9374 33.1472C52.8466 33.2378 52.7411 33.3088 52.6197 33.3603C52.4983 33.4117 52.3695 33.4374 52.2321 33.4374H51.642C51.5954 33.4374 51.5513 33.4472 51.5096 33.4656C51.4678 33.4839 51.431 33.5096 51.3992 33.5402C51.3673 33.5709 51.3427 33.6076 51.3243 33.6504C51.3072 33.6933 51.2973 33.7374 51.2973 33.7839C51.2973 33.8304 51.3059 33.8745 51.3243 33.9161C51.3415 33.9578 51.3673 33.9945 51.3992 34.0263C51.431 34.0582 51.4678 34.0826 51.5096 34.101C51.5513 34.1194 51.5954 34.1279 51.642 34.1279H52.1989C52.3363 34.1279 52.4651 34.1512 52.5866 34.1953C52.708 34.2406 52.8135 34.3043 52.9043 34.3851C52.9951 34.4659 53.0662 34.565 53.1177 34.6789C53.1693 34.794 53.195 34.9189 53.195 35.056V35.0695C53.195 35.2066 53.1693 35.3315 53.1177 35.4466L53.1165 35.449ZM52.8233 32.1665C52.8233 32.0845 52.8074 32.0086 52.7767 31.9363C52.7461 31.8653 52.7031 31.8029 52.6491 31.749C52.5952 31.6964 52.5326 31.6547 52.4602 31.6229C52.3879 31.5911 52.3118 31.5764 52.2296 31.5764H51.8923C51.8101 31.5764 51.734 31.5923 51.6617 31.6229C51.5893 31.6535 51.528 31.6951 51.4752 31.749C51.4225 31.8029 51.3808 31.8641 51.3489 31.9363C51.317 32.0086 51.3022 32.0845 51.3022 32.1665V32.4677C51.3022 32.5497 51.3182 32.6256 51.3489 32.6979C51.3795 32.7701 51.4212 32.8313 51.4752 32.8852C51.5292 32.9391 51.5905 32.9795 51.6617 33.0113C51.7328 33.0419 51.8101 33.0578 51.8923 33.0578H52.2296C52.3118 33.0578 52.3879 33.0419 52.4602 33.0113C52.5314 32.9807 52.5952 32.9391 52.6491 32.8852C52.7031 32.8326 52.7461 32.7701 52.7767 32.6979C52.8074 32.6269 52.8233 32.5497 52.8233 32.4677V32.1665ZM52.8062 35.0389C52.8062 34.9568 52.7902 34.8846 52.7595 34.8185C52.7289 34.7536 52.6872 34.6985 52.6332 34.6544C52.5805 34.6103 52.5179 34.5761 52.4467 34.5516C52.3744 34.5271 52.2983 34.5148 52.2161 34.5148H52.0076C51.9254 34.5148 51.8494 34.5271 51.777 34.5516C51.7058 34.5761 51.6433 34.6103 51.5893 34.6544C51.5353 34.6985 51.4948 34.7536 51.4629 34.8185C51.4323 34.8834 51.4163 34.9568 51.4163 35.0389V35.0915C51.4163 35.1735 51.4323 35.2458 51.4629 35.3095C51.4936 35.3731 51.5353 35.4282 51.5893 35.4735C51.642 35.5188 51.7046 35.5531 51.777 35.5776C51.8481 35.6021 51.9254 35.6143 52.0076 35.6143H52.2161C52.2983 35.6143 52.3744 35.6021 52.4467 35.5776C52.5179 35.5531 52.5805 35.5188 52.6332 35.4735C52.6859 35.4282 52.7276 35.3743 52.7595 35.3095C52.7902 35.2458 52.8062 35.1723 52.8062 35.0915V35.0389Z" fill="white"/>
<path d="M53.9433 30.4475V29.9051H54.4168V30.4475H53.9433ZM53.9764 34.6458V31.2605H54.3837V34.6458H53.9764Z" fill="white"/>
<path d="M56.4335 34.6458C56.3096 34.6458 56.193 34.6226 56.0839 34.5761C55.9747 34.5295 55.8802 34.4659 55.7993 34.3838C55.7183 34.3018 55.6545 34.2075 55.6067 34.0998C55.5588 33.992 55.5355 33.8757 55.5355 33.7533V31.6474H54.9259V31.2605H55.5355V30.4475L55.9428 30.3814V31.2605H56.8039V31.6474H55.9428V33.7729C55.9428 33.8414 55.955 33.9051 55.9808 33.9627C56.0066 34.0214 56.0409 34.0728 56.0851 34.1157C56.1292 34.1586 56.1808 34.1941 56.2409 34.2198C56.301 34.2455 56.3648 34.2577 56.4335 34.2577H56.8039V34.6446H56.4335V34.6458Z" fill="white"/>
<path d="M59.5468 34.6458L59.3211 34.3091C59.2278 34.4304 59.1125 34.5283 58.9727 34.6018C58.8341 34.6752 58.6807 34.712 58.5151 34.712H58.4121C58.2747 34.712 58.1459 34.6862 58.0245 34.6348C57.903 34.5834 57.7975 34.5124 57.7067 34.4218C57.616 34.3312 57.5448 34.2259 57.4933 34.1047C57.4418 33.9835 57.416 33.8549 57.416 33.7178V33.6847C57.416 33.5476 57.4418 33.419 57.4933 33.2978C57.5448 33.1766 57.616 33.0713 57.7067 32.9807C57.7975 32.8901 57.903 32.8191 58.0245 32.7677C58.1459 32.7162 58.2747 32.6905 58.4121 32.6905H59.2732V32.1677C59.2732 32.0857 59.2573 32.0098 59.2266 31.9376C59.1959 31.8665 59.1542 31.8041 59.1003 31.7502C59.0475 31.6976 58.9849 31.6559 58.9126 31.6241C58.8402 31.5923 58.7641 31.5776 58.682 31.5776H58.444C58.3618 31.5776 58.2857 31.5935 58.2134 31.6241C58.141 31.6547 58.0797 31.6964 58.0257 31.7502C57.9729 31.8029 57.9312 31.8653 57.8993 31.9376C57.8674 32.0098 57.8527 32.0857 57.8527 32.1677V32.2902L57.4455 32.2241V32.191C57.4455 32.0539 57.4712 31.9253 57.5227 31.8041C57.5743 31.6829 57.6454 31.5776 57.7362 31.487C57.827 31.3964 57.9325 31.3254 58.0539 31.2739C58.1753 31.2225 58.3041 31.1968 58.4415 31.1968H58.6795C58.8169 31.1968 58.9457 31.2225 59.0671 31.2739C59.1886 31.3254 59.2941 31.3964 59.3848 31.487C59.4756 31.5776 59.5468 31.6829 59.5983 31.8041C59.6498 31.9253 59.6756 32.0539 59.6756 32.191V34.6471H59.5394L59.5468 34.6458ZM59.2757 33.0064H58.4145C58.3324 33.0064 58.2563 33.0223 58.1839 33.0529C58.1115 33.0836 58.0502 33.1264 57.9975 33.1803C57.9447 33.2342 57.903 33.2966 57.8711 33.3688C57.8392 33.4411 57.8245 33.517 57.8245 33.599V33.741C57.8245 33.8231 57.8405 33.899 57.8711 33.9712C57.9018 34.0435 57.9435 34.1047 57.9975 34.1586C58.0502 34.2112 58.1128 34.2528 58.1839 34.2847C58.2551 34.3165 58.3324 34.3312 58.4145 34.3312H58.6856C58.7678 34.3312 58.8439 34.3153 58.9163 34.2847C58.9886 34.2541 59.05 34.2124 59.1039 34.1586C59.1579 34.1047 59.1984 34.0435 59.2303 33.9712C59.261 33.9002 59.2769 33.8231 59.2769 33.741V33.0076L59.2757 33.0064Z" fill="white"/>
<path d="M60.4974 34.6458V29.9063H60.9047V34.6458H60.4974Z" fill="white"/>
<path d="M65.7918 34.0018C65.7317 34.1426 65.6483 34.2663 65.5416 34.3716C65.4348 34.4769 65.3122 34.5601 65.1711 34.6214C65.03 34.6814 64.8792 34.712 64.7172 34.712H64.3799C64.2192 34.712 64.0671 34.6814 63.9248 34.6214C63.7825 34.5614 63.6586 34.4769 63.5519 34.3716C63.4464 34.2663 63.363 34.1426 63.3016 34.0018C63.2415 33.861 63.2109 33.7092 63.2109 33.5488V31.0034C63.2109 30.843 63.2415 30.6912 63.3016 30.5504C63.3618 30.4095 63.4464 30.2859 63.5519 30.1806C63.6574 30.0753 63.7825 29.992 63.9248 29.9308C64.0671 29.8708 64.2192 29.8402 64.3799 29.8402H64.7172C64.8779 29.8402 65.03 29.8708 65.1711 29.9308C65.3122 29.992 65.4361 30.0753 65.5416 30.1806C65.6471 30.2859 65.7305 30.4095 65.7918 30.5504C65.8519 30.6912 65.8826 30.843 65.8826 31.0034V31.1956L65.4557 31.2617V31.0046C65.4557 30.8993 65.4361 30.8001 65.3968 30.7083C65.3576 30.6165 65.3024 30.5369 65.2349 30.4683C65.1674 30.3997 65.0865 30.3459 64.9945 30.3067C64.9025 30.2675 64.8043 30.2467 64.6976 30.2467H64.3995C64.294 30.2467 64.1947 30.2663 64.1027 30.3067C64.0107 30.3471 63.9309 30.3997 63.861 30.4683C63.7911 30.5369 63.7371 30.6165 63.6966 30.7083C63.6562 30.8001 63.6365 30.8981 63.6365 31.0046V33.55C63.6365 33.6553 63.6562 33.7545 63.6966 33.8463C63.7371 33.9382 63.7911 34.0177 63.861 34.0875C63.9309 34.1573 64.0107 34.2112 64.1027 34.2516C64.1947 34.292 64.2928 34.3116 64.3995 34.3116H64.6976C64.8031 34.3116 64.9025 34.292 64.9945 34.2516C65.0865 34.2112 65.1662 34.1573 65.2349 34.0875C65.3036 34.0177 65.3576 33.9382 65.3968 33.8463C65.4361 33.7545 65.4557 33.6566 65.4557 33.55V33.2917L65.8826 33.3615V33.55C65.8826 33.7104 65.8519 33.8623 65.7918 34.0031V34.0018Z" fill="white"/>
<path d="M68.7493 34.1035C68.6978 34.2247 68.6267 34.33 68.5359 34.4206C68.4451 34.5112 68.3396 34.5822 68.2182 34.6336C68.0967 34.685 67.9679 34.7107 67.8305 34.7107H67.5594C67.4221 34.7107 67.2933 34.685 67.1718 34.6336C67.0504 34.5822 66.9449 34.5112 66.8541 34.4206C66.7633 34.33 66.6922 34.2247 66.6407 34.1035C66.5891 33.9822 66.5634 33.8537 66.5634 33.7166V32.1898C66.5634 32.0526 66.5891 31.9241 66.6407 31.8029C66.6922 31.6817 66.7633 31.5764 66.8541 31.4858C66.9449 31.3952 67.0504 31.3241 67.1718 31.2727C67.2933 31.2213 67.4221 31.1956 67.5594 31.1956H67.8305C67.9679 31.1956 68.0967 31.2213 68.2182 31.2727C68.3396 31.3241 68.4451 31.3952 68.5359 31.4858C68.6267 31.5764 68.6978 31.6817 68.7493 31.8029C68.8008 31.9241 68.8266 32.0526 68.8266 32.1898V33.7166C68.8266 33.8537 68.8008 33.9822 68.7493 34.1035ZM68.4193 32.1665C68.4193 32.0845 68.4034 32.0086 68.3727 31.9363C68.3421 31.8653 68.3004 31.8029 68.2464 31.749C68.1936 31.6964 68.1311 31.6547 68.0587 31.6229C67.9863 31.5911 67.9103 31.5764 67.8281 31.5764H67.557C67.4748 31.5764 67.3988 31.5923 67.3264 31.6229C67.254 31.6535 67.1927 31.6951 67.1399 31.749C67.0872 31.8029 67.0455 31.8641 67.0136 31.9363C66.9817 32.0086 66.967 32.0845 66.967 32.1665V33.7398C66.967 33.8218 66.9829 33.8978 67.0136 33.97C67.0442 34.0422 67.086 34.1035 67.1399 34.1573C67.1927 34.21 67.2552 34.2516 67.3264 34.2834C67.3975 34.3153 67.4748 34.33 67.557 34.33H67.8281C67.9103 34.33 67.9863 34.314 68.0587 34.2834C68.1311 34.2528 68.1924 34.2112 68.2464 34.1573C68.3004 34.1035 68.3409 34.0422 68.3727 33.97C68.4034 33.899 68.4193 33.8218 68.4193 33.7398V32.1665Z" fill="white"/>
<path d="M73.0856 34.6458V32.1665C73.0856 32.0845 73.0697 32.0086 73.039 31.9363C73.0084 31.8653 72.9667 31.8029 72.9127 31.749C72.8599 31.6964 72.7974 31.6547 72.725 31.6229C72.6526 31.5911 72.5766 31.5764 72.4944 31.5764H72.292C72.2098 31.5764 72.1337 31.5923 72.0614 31.6229C71.989 31.6535 71.9264 31.6951 71.8725 31.749C71.8185 31.8016 71.7756 31.8641 71.7449 31.9363C71.7142 32.0073 71.6983 32.0845 71.6983 32.1665V34.6458H71.2947V32.1665C71.2947 32.0845 71.2787 32.0086 71.2481 31.9363C71.2174 31.8641 71.1745 31.8029 71.1205 31.749C71.0665 31.6964 71.004 31.6547 70.9316 31.6229C70.8592 31.5911 70.7832 31.5764 70.701 31.5764H70.4986C70.4164 31.5764 70.3403 31.5923 70.268 31.6229C70.1956 31.6535 70.1342 31.6951 70.0815 31.749C70.0288 31.8029 69.9871 31.8641 69.9552 31.9363C69.9233 32.0086 69.9085 32.0845 69.9085 32.1665V34.6458H69.5013V31.2605H69.6375L69.8595 31.6045C69.9527 31.4784 70.0692 31.3792 70.2091 31.3058C70.3489 31.2323 70.5023 31.1956 70.6679 31.1956H70.701C70.8936 31.1956 71.0665 31.2433 71.2211 31.3376C71.3757 31.4319 71.4946 31.558 71.5793 31.7147C71.621 31.6376 71.6725 31.5666 71.7351 31.5029C71.7964 31.4392 71.8651 31.3841 71.9399 31.3388C72.0148 31.2935 72.0969 31.258 72.1853 31.2335C72.2736 31.2078 72.3656 31.1956 72.46 31.1956H72.4932C72.6306 31.1956 72.7594 31.2213 72.8808 31.2727C73.0022 31.3241 73.1077 31.3952 73.1985 31.4858C73.2893 31.5764 73.3604 31.6817 73.4119 31.8029C73.4635 31.9241 73.4892 32.0526 73.4892 32.1898V34.6458H73.082H73.0856Z" fill="white"/>
<path d="M77.7519 34.6458V32.1665C77.7519 32.0845 77.736 32.0086 77.7053 31.9363C77.6747 31.8653 77.633 31.8029 77.579 31.749C77.5262 31.6964 77.4637 31.6547 77.3913 31.6229C77.3189 31.5911 77.2429 31.5764 77.1607 31.5764H76.9583C76.8761 31.5764 76.8 31.5923 76.7277 31.6229C76.6553 31.6535 76.5927 31.6951 76.5388 31.749C76.4848 31.8016 76.4418 31.8641 76.4112 31.9363C76.3805 32.0073 76.3646 32.0845 76.3646 32.1665V34.6458H75.961V32.1665C75.961 32.0845 75.945 32.0086 75.9144 31.9363C75.8837 31.8641 75.8408 31.8029 75.7868 31.749C75.7328 31.6964 75.6703 31.6547 75.5979 31.6229C75.5255 31.5911 75.4495 31.5764 75.3673 31.5764H75.1649C75.0827 31.5764 75.0066 31.5923 74.9343 31.6229C74.8619 31.6535 74.8006 31.6951 74.7478 31.749C74.6951 31.8029 74.6533 31.8641 74.6215 31.9363C74.5896 32.0086 74.5748 32.0845 74.5748 32.1665V34.6458H74.1676V31.2605H74.3037L74.5258 31.6045C74.619 31.4784 74.7355 31.3792 74.8754 31.3058C75.0152 31.2323 75.1686 31.1956 75.3342 31.1956H75.3673C75.5599 31.1956 75.7328 31.2433 75.8874 31.3376C76.042 31.4319 76.1609 31.558 76.2456 31.7147C76.2873 31.6376 76.3388 31.5666 76.4014 31.5029C76.4627 31.4392 76.5314 31.3841 76.6062 31.3388C76.6811 31.2935 76.7632 31.258 76.8516 31.2335C76.9399 31.2078 77.0319 31.1956 77.1263 31.1956H77.1595C77.2969 31.1956 77.4256 31.2213 77.5471 31.2727C77.6685 31.3241 77.774 31.3952 77.8648 31.4858C77.9556 31.5764 78.0267 31.6817 78.0782 31.8029C78.1298 31.9241 78.1555 32.0526 78.1555 32.1898V34.6458H77.7483H77.7519Z" fill="white"/>
<path d="M81.026 34.1035C80.9744 34.2247 80.9033 34.33 80.8125 34.4206C80.7217 34.5112 80.6162 34.5822 80.4948 34.6336C80.3734 34.685 80.2446 34.7107 80.1072 34.7107H79.8361C79.6987 34.7107 79.5699 34.685 79.4484 34.6336C79.327 34.5822 79.2215 34.5112 79.1307 34.4206C79.04 34.33 78.9688 34.2247 78.9173 34.1035C78.8658 33.9822 78.84 33.8537 78.84 33.7166V32.1898C78.84 32.0526 78.8658 31.9241 78.9173 31.8029C78.9688 31.6817 79.04 31.5764 79.1307 31.4858C79.2215 31.3952 79.327 31.3241 79.4484 31.2727C79.5699 31.2213 79.6987 31.1956 79.8361 31.1956H80.1072C80.2446 31.1956 80.3734 31.2213 80.4948 31.2727C80.6162 31.3241 80.7217 31.3952 80.8125 31.4858C80.9033 31.5764 80.9744 31.6817 81.026 31.8029C81.0775 31.9241 81.1032 32.0526 81.1032 32.1898V32.9868H79.2448V33.741C79.2448 33.8231 79.2608 33.899 79.2914 33.9712C79.3221 34.0435 79.3638 34.1047 79.4178 34.1586C79.4705 34.2112 79.5331 34.2528 79.6042 34.2847C79.6754 34.3165 79.7527 34.3312 79.8348 34.3312H80.1059C80.1881 34.3312 80.2642 34.3153 80.3366 34.2847C80.4089 34.2541 80.4703 34.2124 80.5242 34.1586C80.5782 34.1047 80.6187 34.0435 80.6506 33.9712C80.6813 33.9002 80.6972 33.8231 80.6972 33.741V33.5158L81.1045 33.5819V33.7178C81.1045 33.8549 81.0787 33.9835 81.0272 34.1047L81.026 34.1035ZM80.696 32.1665C80.696 32.0845 80.68 32.0086 80.6494 31.9363C80.6187 31.8653 80.577 31.8029 80.523 31.749C80.4703 31.6964 80.4077 31.6547 80.3353 31.6229C80.263 31.5911 80.1869 31.5764 80.1047 31.5764H79.8336C79.7514 31.5764 79.6754 31.5923 79.603 31.6229C79.5306 31.6535 79.4693 31.6951 79.4166 31.749C79.3638 31.8029 79.3221 31.8641 79.2902 31.9363C79.2583 32.0086 79.2436 32.0845 79.2436 32.1665V32.6685H80.6948V32.1665H80.696Z" fill="white"/>
<path d="M82.7801 31.6474C82.6979 31.6474 82.6219 31.6633 82.5495 31.6939C82.4771 31.7245 82.4158 31.7661 82.363 31.82C82.3103 31.8739 82.2686 31.9351 82.2367 32.0073C82.2048 32.0796 82.1901 32.1555 82.1901 32.2375V34.6471H81.7828V31.2617H81.919L82.141 31.6058C82.2342 31.4796 82.3508 31.3805 82.4906 31.307C82.6305 31.2335 82.7838 31.1968 82.9494 31.1968H83.1874V31.6498H82.7801V31.6474Z" fill="white"/>
<path d="M85.7818 34.1035C85.7303 34.2247 85.6591 34.33 85.5684 34.4206C85.4776 34.5112 85.3721 34.5822 85.2506 34.6336C85.1292 34.685 85.0004 34.7107 84.863 34.7107H84.5919C84.4545 34.7107 84.3257 34.685 84.2043 34.6336C84.0828 34.5822 83.9773 34.5112 83.8866 34.4206C83.7958 34.33 83.7246 34.2247 83.6731 34.1035C83.6216 33.9822 83.5959 33.8537 83.5959 33.7166V32.1898C83.5959 32.0526 83.6216 31.9241 83.6731 31.8029C83.7246 31.6817 83.7958 31.5764 83.8866 31.4858C83.9773 31.3952 84.0828 31.3241 84.2043 31.2727C84.3257 31.2213 84.4545 31.1956 84.5919 31.1956H84.863C85.0004 31.1956 85.1292 31.2213 85.2506 31.2727C85.3721 31.3241 85.4776 31.3952 85.5684 31.4858C85.6591 31.5764 85.7303 31.6817 85.7818 31.8029C85.8333 31.9241 85.8591 32.0526 85.8591 32.1898V32.3257L85.4518 32.3918V32.1665C85.4518 32.0845 85.4359 32.0086 85.4052 31.9363C85.3745 31.8653 85.3328 31.8029 85.2789 31.749C85.2261 31.6964 85.1636 31.6547 85.0912 31.6229C85.0188 31.5911 84.9427 31.5764 84.8606 31.5764H84.5895C84.5073 31.5764 84.4312 31.5923 84.3588 31.6229C84.2865 31.6535 84.2251 31.6951 84.1724 31.749C84.1196 31.8029 84.0779 31.8641 84.046 31.9363C84.0141 32.0086 83.9994 32.0845 83.9994 32.1665V33.7398C83.9994 33.8218 84.0154 33.8978 84.046 33.97C84.0767 34.0422 84.1184 34.1035 84.1724 34.1573C84.2251 34.21 84.2877 34.2516 84.3588 34.2834C84.43 34.3153 84.5073 34.33 84.5895 34.33H84.8606C84.9427 34.33 85.0188 34.314 85.0912 34.2834C85.1636 34.2528 85.2249 34.2112 85.2789 34.1573C85.3328 34.1035 85.3733 34.0422 85.4052 33.97C85.4359 33.899 85.4518 33.8218 85.4518 33.7398V33.5145L85.8591 33.5807V33.7166C85.8591 33.8537 85.8333 33.9822 85.7818 34.1035Z" fill="white"/>
<path d="M88.7258 34.1035C88.6743 34.2247 88.6032 34.33 88.5124 34.4206C88.4216 34.5112 88.3161 34.5822 88.1947 34.6336C88.0732 34.685 87.9444 34.7107 87.807 34.7107H87.5359C87.3986 34.7107 87.2698 34.685 87.1483 34.6336C87.0269 34.5822 86.9214 34.5112 86.8306 34.4206C86.7398 34.33 86.6687 34.2247 86.6172 34.1035C86.5656 33.9822 86.5399 33.8537 86.5399 33.7166V32.1898C86.5399 32.0526 86.5656 31.9241 86.6172 31.8029C86.6687 31.6817 86.7398 31.5764 86.8306 31.4858C86.9214 31.3952 87.0269 31.3241 87.1483 31.2727C87.2698 31.2213 87.3986 31.1956 87.5359 31.1956H87.807C87.9444 31.1956 88.0732 31.2213 88.1947 31.2727C88.3161 31.3241 88.4216 31.3952 88.5124 31.4858C88.6032 31.5764 88.6743 31.6817 88.7258 31.8029C88.7773 31.9241 88.8031 32.0526 88.8031 32.1898V32.9868H86.9447V33.741C86.9447 33.8231 86.9606 33.899 86.9913 33.9712C87.022 34.0435 87.0637 34.1047 87.1177 34.1586C87.1704 34.2112 87.233 34.2528 87.3041 34.2847C87.3753 34.3165 87.4525 34.3312 87.5347 34.3312H87.8058C87.888 34.3312 87.9641 34.3153 88.0364 34.2847C88.1088 34.2541 88.1701 34.2124 88.2241 34.1586C88.2781 34.1047 88.3186 34.0435 88.3505 33.9712C88.3811 33.9002 88.3971 33.8231 88.3971 33.741V33.5158L88.8043 33.5819V33.7178C88.8043 33.8549 88.7786 33.9835 88.7271 34.1047L88.7258 34.1035ZM88.3959 32.1665C88.3959 32.0845 88.3799 32.0086 88.3492 31.9363C88.3186 31.8653 88.2769 31.8029 88.2229 31.749C88.1701 31.6964 88.1076 31.6547 88.0352 31.6229C87.9628 31.5911 87.8868 31.5764 87.8046 31.5764H87.5335C87.4513 31.5764 87.3753 31.5923 87.3029 31.6229C87.2305 31.6535 87.1692 31.6951 87.1164 31.749C87.0637 31.8029 87.022 31.8641 86.9901 31.9363C86.9582 32.0086 86.9435 32.0845 86.9435 32.1665V32.6685H88.3946V32.1665H88.3959Z" fill="white"/>
<path d="M10.8132 4.84604C14.0663 4.84604 16.6816 5.83287 18.6603 7.80777C20.6389 9.78267 21.6288 12.393 21.6288 15.64C21.6288 18.8871 20.6352 21.4803 18.6505 23.4625C16.6645 25.4447 14.0516 26.4353 10.8144 26.4353C7.57721 26.4353 4.98032 25.4411 2.9882 23.4515C0.996065 21.4631 0 18.8589 0 15.64C0 12.4212 0.992385 9.79982 2.97838 7.81879C4.96438 5.83655 7.57721 4.84604 10.8156 4.84604H10.8132ZM10.8132 9.16804C8.32671 9.16804 6.47197 10.1475 5.24774 12.109C4.6344 13.0934 4.32896 14.27 4.32896 15.64C4.32896 16.8913 4.60373 18.0129 5.15329 19.0034C5.72983 20.0441 6.56152 20.8338 7.6459 21.3762C8.63215 21.8672 9.6871 22.1133 10.8144 22.1133C13.2997 22.1133 15.1556 21.1301 16.3799 19.1625C16.9932 18.1855 17.2987 17.0125 17.2987 15.6413C17.2987 13.5892 16.6375 11.9804 15.3127 10.8136C14.0725 9.71778 12.5735 9.16927 10.8132 9.16927V9.16804Z" fill="white"/>
<path d="M86.1657 20.3L89.3232 23.4515C88.0561 24.7444 86.4577 25.6235 84.5281 26.0875C83.5848 26.3189 82.574 26.4353 81.497 26.4353C78.272 26.4353 75.6641 25.4411 73.6708 23.4515C71.6786 21.4631 70.6826 18.8589 70.6826 15.64C70.6826 12.4212 71.675 9.79982 73.661 7.81879C75.6457 5.83655 78.2586 4.84604 81.497 4.84604C84.7354 4.84604 87.3667 5.83287 89.3453 7.80777L86.1657 10.9813C84.9268 9.77165 83.3701 9.16804 81.497 9.16804C79.0117 9.16804 77.157 10.1475 75.9315 12.109C75.3194 13.0934 75.0128 14.27 75.0128 15.64C75.0128 16.8913 75.2888 18.0129 75.8371 19.0034C76.4149 20.0441 77.2453 20.8338 78.3297 21.3762C79.316 21.8672 80.3721 22.1133 81.4982 22.1133C83.3714 22.1133 84.928 21.5096 86.167 20.3H86.1657Z" fill="white"/>
<path d="M55.6668 8.70646C55.9919 8.70646 56.2556 8.44322 56.2556 8.11876C56.2556 7.79431 55.9919 7.53229 55.6668 7.53229C55.3417 7.53229 55.078 7.79553 55.078 8.11876C55.078 8.44199 55.3417 8.70646 55.6668 8.70646Z" fill="white"/>
<path d="M48.1202 15.2642C48.1202 15.3339 48.2441 15.3352 48.2454 15.2642C48.2454 15.2286 48.2184 15.2017 48.1828 15.2017C48.1472 15.2017 48.1202 15.2286 48.1202 15.2642Z" fill="white"/>
<path d="M65.5955 7.80777C64.3161 6.53198 62.7705 5.67126 60.9611 5.21947L59.8534 6.32629C60.0902 6.87726 60.2227 7.48332 60.2227 8.11999C60.2227 8.60728 60.1454 9.07744 60.0019 9.51821C60.8262 9.79002 61.5757 10.2185 62.2479 10.8124C63.5715 11.9792 64.2327 13.588 64.2327 15.64C64.2327 17.0113 63.9272 18.1843 63.3139 19.1613C62.0897 21.1289 60.2349 22.112 57.7485 22.112H51.263V16.4885C50.7736 17.7092 49.5788 18.5736 48.184 18.5736C47.7412 18.5736 47.3192 18.4855 46.9328 18.3287V26.4353H57.7485C60.9869 26.4353 63.5997 25.4447 65.5845 23.4625C67.5717 21.4803 68.5629 18.8736 68.5629 15.64C68.5629 12.4065 67.5742 9.78267 65.5968 7.80777H65.5955Z" fill="white"/>
<path d="M58.8255 9.37373L55.9465 8.14815C55.7882 8.08081 55.6263 8.2412 55.695 8.39914L56.9229 11.2727C56.9536 11.345 57.0259 11.3927 57.1081 11.389C57.1879 11.3854 57.2578 11.3339 57.2823 11.258L57.6614 10.1108L58.8108 9.73248C58.8868 9.70799 58.9396 9.6382 58.942 9.55861C58.9457 9.47903 58.8991 9.40557 58.8255 9.37373ZM57.4491 9.77655C57.3915 9.79614 57.3461 9.84022 57.3265 9.89899L57.0762 10.6556L56.2347 8.68687L58.2072 9.52678L57.4491 9.77655Z" fill="white"/>
<path d="M55.6668 6.00306C54.4978 6.00306 53.5458 6.95317 53.5458 8.11999C53.5458 9.28681 54.4978 10.2369 55.6668 10.2369C55.8201 10.2369 55.9452 10.112 55.9452 9.95898C55.9452 9.80594 55.8201 9.68105 55.6668 9.68105C54.8044 9.68105 54.1028 8.98071 54.1028 8.11999C54.1028 7.25926 54.8044 6.55892 55.6668 6.55892C56.5291 6.55892 57.2308 7.25926 57.2308 8.11999C57.2308 8.27303 57.3559 8.39792 57.5093 8.39792C57.6626 8.39792 57.7877 8.27303 57.7877 8.11999C57.7877 6.95317 56.8358 6.00306 55.6668 6.00306Z" fill="white"/>
<path d="M58.0416 5.74962C57.405 5.11417 56.561 4.764 55.6668 4.764C54.7725 4.764 53.9286 5.11417 53.2919 5.74962C51.9831 7.05601 51.9831 9.18273 53.2919 10.4904C53.9286 11.1258 54.7725 11.476 55.6668 11.476C55.8201 11.476 55.9452 11.3511 55.9452 11.198C55.9452 11.045 55.8201 10.9201 55.6668 10.9201C54.1199 10.9201 52.8614 9.66391 52.8614 8.11999C52.8614 6.57606 54.1199 5.31986 55.6668 5.31986C57.2136 5.31986 58.4722 6.57606 58.4722 8.11999C58.4722 8.27303 58.5973 8.39792 58.7507 8.39792C58.904 8.39792 59.0291 8.27303 59.0291 8.11999C59.0291 7.22742 58.6783 6.38506 58.0416 5.74962Z" fill="white"/>
<path d="M22.9389 26.4353H27.2691V12.6085L35.9184 19.5139V15.2091L22.9389 4.84604V26.4353Z" fill="white"/>
<path d="M51.1109 8.11999C51.1109 7.48332 51.2421 6.87726 51.4801 6.32629L50.7245 5.57086C49.921 5.65167 49.1703 5.35904 48.6293 4.84604H39.0072V22.9764L43.3374 26.434V9.16804H51.2348C51.155 8.83134 51.1121 8.47995 51.1121 8.11999H51.1109Z" fill="white"/>
<path d="M60.8728 12.0159C60.6324 12.0159 60.4091 12.0857 60.2153 12.1996L59.1088 11.0952C58.9665 11.2593 58.8132 11.4123 58.6488 11.5543L59.7553 12.6587C59.64 12.8522 59.5701 13.075 59.5701 13.315C59.5701 14.0312 60.154 14.614 60.8716 14.614C61.5892 14.614 62.1731 14.0312 62.1731 13.315C62.1731 12.5987 61.5892 12.0159 60.8716 12.0159H60.8728ZM60.8728 13.9639C60.5134 13.9639 60.2227 13.6725 60.2227 13.315C60.2227 12.9575 60.5146 12.6661 60.8728 12.6661C61.231 12.6661 61.523 12.9575 61.523 13.315C61.523 13.6725 61.231 13.9639 60.8728 13.9639Z" fill="white"/>
<path d="M62.1743 0C61.0973 0 60.2227 0.874196 60.2227 1.94796C60.2227 2.28466 60.3085 2.60055 60.4594 2.87726L58.6501 4.6832C58.8144 4.82522 58.9678 4.97827 59.1101 5.14233L60.8667 3.38904C61.2126 3.70248 61.6714 3.89593 62.1755 3.89593C63.2526 3.89593 64.1272 3.02173 64.1272 1.94796C64.1272 0.874196 63.2513 0 62.1755 0H62.1743ZM62.1743 3.24701C61.4567 3.24701 60.8728 2.66422 60.8728 1.94796C60.8728 1.23171 61.4567 0.648913 62.1743 0.648913C62.8919 0.648913 63.4758 1.23171 63.4758 1.94796C63.4758 2.66422 62.8919 3.24701 62.1743 3.24701Z" fill="white"/>
<path d="M50.4607 4.22283C50.7012 4.22283 50.9244 4.15304 51.1182 4.03918L52.2247 5.14356C52.367 4.97949 52.5203 4.82645 52.6847 4.68442L51.5783 3.58004C51.6923 3.38659 51.7623 3.16498 51.7623 2.92378C51.7623 2.20753 51.1784 1.62473 50.4607 1.62473C49.7431 1.62473 49.1592 2.20753 49.1592 2.92378C49.1592 3.64004 49.7431 4.22283 50.4607 4.22283ZM50.4607 2.27487C50.8202 2.27487 51.1109 2.56627 51.1109 2.92378C51.1109 3.2813 50.8189 3.5727 50.4607 3.5727C50.1026 3.5727 49.8106 3.2813 49.8106 2.92378C49.8106 2.56627 50.1026 2.27487 50.4607 2.27487Z" fill="white"/>
<path d="M52.6847 11.5543C52.5203 11.4123 52.367 11.2593 52.2247 11.0952L49.4929 13.8219C49.1457 13.5084 48.6882 13.315 48.184 13.315C47.107 13.315 46.2324 14.1892 46.2324 15.2629C46.2324 16.3367 47.1082 17.2109 48.184 17.2109C49.2598 17.2109 50.1357 16.3367 50.1357 15.2629C50.1357 14.9262 50.0498 14.6103 49.8989 14.3336L52.6847 11.5531V11.5543ZM48.1828 16.562C47.4652 16.562 46.8813 15.9792 46.8813 15.2629C46.8813 14.5467 47.4652 13.9639 48.1828 13.9639C48.9004 13.9639 49.4843 14.5467 49.4843 15.2629C49.4843 15.9792 48.9004 16.562 48.1828 16.562Z" fill="white"/>
<path d="M55.9918 13.9945V12.6538C55.8839 12.6612 55.776 12.6661 55.6656 12.6661C55.5551 12.6661 55.4484 12.6612 55.3405 12.6538V13.9945C54.4193 14.15 53.7139 14.9495 53.7139 15.9143C53.7139 16.9893 54.5898 17.8623 55.6656 17.8623C56.7414 17.8623 57.6172 16.9881 57.6172 15.9143C57.6172 14.9507 56.9119 14.15 55.9906 13.9945H55.9918ZM55.6656 17.2133C54.9479 17.2133 54.364 16.6305 54.364 15.9143C54.364 15.198 54.9479 14.6152 55.6656 14.6152C56.3832 14.6152 56.9671 15.198 56.9671 15.9143C56.9671 16.6305 56.3832 17.2133 55.6656 17.2133Z" fill="white"/>
<path d="M90.0754 4.09414L89.5968 3.34502H89.3393V4.09414H89.1026V2.26037H89.706C89.9141 2.26037 90.0702 2.31065 90.1742 2.41123C90.2783 2.51007 90.3303 2.64186 90.3303 2.8066C90.3303 2.95573 90.2887 3.07624 90.2054 3.16815C90.1222 3.25832 90.0017 3.31468 89.8439 3.33722L90.3433 4.09414H90.0754ZM89.3393 3.17335H89.6852C89.954 3.17335 90.0884 3.05544 90.0884 2.8196C90.0884 2.58377 89.954 2.46585 89.6852 2.46585H89.3393V3.17335Z" fill="white"/>
<path fill-rule="evenodd" clip-rule="evenodd" d="M89.6017 1.64614C88.781 1.64614 88.1162 2.31008 88.1162 3.12849C88.1162 3.9469 88.781 4.61085 89.6017 4.61085C90.4223 4.61085 91.0871 3.9469 91.0871 3.12849C91.0871 2.31008 90.4223 1.64614 89.6017 1.64614ZM87.8119 3.12849C87.8119 2.14146 88.6135 1.34179 89.6017 1.34179C90.5899 1.34179 91.3915 2.14146 91.3915 3.12849C91.3915 4.11553 90.5899 4.91519 89.6017 4.91519C88.6135 4.91519 87.8119 4.11553 87.8119 3.12849Z" fill="white"/>
</svg>
