<svg width="68" height="36" viewBox="0 0 68 36" fill="none" xmlns="http://www.w3.org/2000/svg">
<path d="M36.7265 9.47803C36.8378 9.47812 36.9491 9.47817 37.0604 9.47822C37.9786 9.47866 38.8969 9.48039 39.8151 9.4887C39.8837 9.4893 39.9524 9.48983 40.0211 9.49035C41.1283 9.4989 41.1283 9.4989 41.535 9.59844C41.5554 9.60328 41.5758 9.60812 41.5968 9.61311C42.4101 9.81284 43.1239 10.2941 43.5628 10.9805C43.934 11.5858 44.0022 12.2344 43.9989 12.9219C43.9989 12.9804 43.9989 13.0389 43.9989 13.0975C43.999 13.2224 43.9987 13.3474 43.9983 13.4723C43.9978 13.653 43.9976 13.8336 43.9975 14.0143C43.9973 14.3075 43.9969 14.6008 43.9962 14.894C43.9956 15.1785 43.9951 15.4631 43.9948 15.7476C43.9947 15.7652 43.9947 15.7828 43.9947 15.8009C43.9946 15.8892 43.9945 15.9775 43.9944 16.0658C43.9937 16.796 43.9925 17.5262 43.9909 18.2563C44.0033 18.2507 44.0157 18.245 44.0285 18.2391C44.086 18.2129 44.1435 18.1869 44.2011 18.1608C44.2206 18.1518 44.2401 18.1429 44.2602 18.1337C45.5951 17.5294 47.2075 17.5072 48.5941 17.9687C49.3033 18.2154 49.9536 18.678 50.4221 19.2413C50.4221 19.2179 50.422 19.1944 50.422 19.1702C50.4209 18.599 50.4202 18.0279 50.4197 17.4567C50.4194 17.1805 50.4191 16.9043 50.4186 16.6281C50.4181 16.3873 50.4178 16.1465 50.4177 15.9057C50.4176 15.7783 50.4175 15.6508 50.4171 15.5233C50.4168 15.4033 50.4167 15.2833 50.4168 15.1632C50.4168 15.1192 50.4167 15.0752 50.4165 15.0313C50.4163 14.971 50.4163 14.9108 50.4164 14.8506C50.4163 14.8333 50.4162 14.8161 50.416 14.7983C50.4169 14.6488 50.4251 14.5022 50.5266 14.3835C50.6049 14.3255 50.6613 14.3135 50.7576 14.3135C50.7879 14.3133 50.7879 14.3133 50.8189 14.3132C50.8408 14.3133 50.8627 14.3133 50.8853 14.3134C50.9081 14.3133 50.9309 14.3133 50.9545 14.3133C51.0288 14.3132 51.1031 14.3134 51.1774 14.3136C51.2026 14.3136 51.2277 14.3136 51.2536 14.3137C52.9891 14.3165 52.9891 14.3165 53.5553 14.8536C53.5808 14.8775 53.5808 14.8775 53.6068 14.9018C53.9953 15.2885 53.9932 15.7829 53.9904 16.2837C53.9904 16.3441 53.9904 16.4045 53.9905 16.4649C53.9907 16.6116 53.9903 16.7582 53.9898 16.9048C53.9892 17.0771 53.9892 17.2495 53.9891 17.4219C53.989 17.7312 53.9885 18.0406 53.9877 18.35C53.987 18.6464 53.9865 18.9428 53.9863 19.2393C53.9862 19.2664 53.9862 19.2664 53.9862 19.2941C53.9862 19.3669 53.9861 19.4398 53.9861 19.5126C53.9859 19.8168 53.9855 20.1209 53.9851 20.425C53.985 20.493 53.9849 20.5609 53.9848 20.6289C53.9839 21.3859 53.9797 22.1428 53.9679 22.8998C53.9676 22.9161 53.9674 22.9324 53.9671 22.9492C53.9595 23.4288 53.9507 23.9084 53.9364 24.3879C53.9345 24.4523 53.9327 24.5168 53.931 24.5812C53.9213 24.95 53.9074 25.3183 53.8854 25.6867C53.884 25.7111 53.884 25.7111 53.8826 25.7359C53.8203 26.7851 53.5607 27.8463 52.8014 28.6436C52.7843 28.6628 52.7672 28.6819 52.7496 28.7017C51.6741 29.8938 49.5825 30.4073 47.9957 30.524C47.8466 30.5345 47.6975 30.5417 47.5481 30.5464C47.5318 30.5469 47.5154 30.5474 47.4986 30.548C45.8591 30.5923 44.0376 30.2271 42.813 29.1361C42.8012 29.1257 42.7895 29.1152 42.7774 29.1045C42.3427 28.7165 42.026 28.2378 41.7765 27.7257C41.7681 27.7089 41.7598 27.6922 41.7513 27.6749C41.2364 26.6246 41.0386 25.4335 41.0446 24.2816C41.0447 24.2406 41.0449 24.1996 41.045 24.1586C41.0452 24.071 41.0455 23.9834 41.0458 23.8958C41.0464 23.7569 41.0467 23.6179 41.047 23.479C41.0477 23.0841 41.0487 22.6892 41.0502 22.2944C41.051 22.0757 41.0516 21.8571 41.0519 21.6384C41.0521 21.5007 41.0525 21.3631 41.0533 21.2254C41.0537 21.1392 41.0537 21.053 41.0537 20.9668C41.0538 20.9274 41.054 20.8879 41.0543 20.8485C41.057 20.494 41.0259 20.1351 40.9122 19.7954C40.9033 19.768 40.9033 19.768 40.8941 19.74C40.8315 19.5563 40.7459 19.3866 40.6457 19.2189C40.6253 19.1848 40.6253 19.1848 40.6045 19.1499C40.5095 19.0005 40.3955 18.8747 40.2688 18.7488C40.2546 18.7337 40.2404 18.7185 40.2258 18.7029C39.6826 18.1442 38.741 17.9264 37.9705 17.8958C37.9077 17.8945 37.8449 17.8939 37.7822 17.8936C37.759 17.8935 37.7359 17.8934 37.7121 17.8932C37.6633 17.893 37.6146 17.8929 37.5659 17.8928C37.4929 17.8926 37.42 17.8919 37.3471 17.8912C36.4343 17.8865 35.6152 18.1118 34.9433 18.7208C34.4648 19.1922 34.1445 19.8439 34.1398 20.5041C34.1396 20.528 34.1396 20.528 34.1394 20.5524C34.1389 20.6055 34.1386 20.6586 34.1383 20.7117C34.138 20.75 34.1377 20.7883 34.1373 20.8265C34.1367 20.9089 34.136 20.9913 34.1354 21.0737C34.1345 21.205 34.1333 21.3362 34.1321 21.4675C34.1317 21.5126 34.1313 21.5578 34.1308 21.603C34.1306 21.6256 34.1304 21.6482 34.1302 21.6715C34.1274 21.9768 34.1248 22.282 34.1226 22.5872C34.1212 22.7934 34.1194 22.9996 34.1173 23.2058C34.1162 23.3144 34.1152 23.423 34.1146 23.5316C34.1051 25.32 33.8186 27.2301 32.5654 28.6436C32.5549 28.6555 32.5445 28.6674 32.5337 28.6797C32.3059 28.9391 32.0681 29.1728 31.788 29.3823C31.7544 29.4085 31.7544 29.4085 31.7201 29.4352C30.6536 30.2479 29.2656 30.5373 27.9228 30.4171C27.1023 30.331 26.282 30.1424 25.6395 29.6286C25.6159 29.6107 25.5924 29.5928 25.5682 29.5744C25.367 29.4192 25.1862 29.2448 25.0038 29.0704C24.9763 29.0441 24.9487 29.0179 24.9212 28.9916C24.8543 28.9279 24.7875 28.8641 24.7207 28.8003C24.7204 28.8195 24.72 28.8387 24.7197 28.8585C24.7113 29.3295 24.7028 29.8006 24.6943 30.2716C24.6902 30.4994 24.6861 30.7272 24.682 30.955C24.6785 31.1538 24.6749 31.3527 24.6713 31.5516C24.6694 31.6566 24.6675 31.7616 24.6656 31.8666C24.6588 32.2546 24.6516 32.6426 24.6397 33.0305C24.6386 33.0707 24.6386 33.0707 24.6375 33.1118C24.6241 33.5061 24.5042 33.8509 24.226 34.1506C24.2028 34.1758 24.2028 34.1758 24.1792 34.2015C23.8894 34.4965 23.4751 34.669 23.0524 34.6929C22.9444 34.6964 22.8364 34.6976 22.7284 34.6987C22.6884 34.6992 22.6485 34.6998 22.6086 34.7003C22.5253 34.7014 22.442 34.7024 22.3587 34.7033C22.2522 34.7044 22.1457 34.7059 22.0393 34.7075C21.957 34.7087 21.8747 34.7097 21.7923 34.7106C21.7531 34.7111 21.7138 34.7116 21.6746 34.7122C21.6197 34.713 21.5648 34.7135 21.5099 34.714C21.4939 34.7143 21.4779 34.7146 21.4614 34.7149C21.3545 34.7153 21.2634 34.7022 21.1635 34.6655C21.0887 34.5936 21.0841 34.5386 21.0843 34.4395C21.0842 34.4109 21.0841 34.3822 21.084 34.3527C21.0842 34.3203 21.0845 34.2879 21.0848 34.2555C21.0848 34.2203 21.0848 34.1852 21.0848 34.15C21.0848 34.05 21.0854 33.95 21.086 33.85C21.0865 33.7611 21.0867 33.6722 21.0869 33.5833C21.0879 33.2202 21.0903 32.8571 21.0929 32.494C21.0931 32.4594 21.0933 32.4248 21.0936 32.3902C21.1017 31.2231 21.1118 30.056 21.1224 28.8889C21.1255 28.5438 21.1286 28.1986 21.1316 27.8534C21.1318 27.8306 21.132 27.8079 21.1322 27.7845C21.1326 27.7387 21.133 27.6929 21.1334 27.6471C21.1335 27.6245 21.1337 27.6019 21.1339 27.5786C21.1341 27.5559 21.1343 27.5333 21.1345 27.5101C21.1377 27.1501 21.1409 26.7901 21.1441 26.4301C21.1452 26.3031 21.1463 26.1762 21.1474 26.0493C21.1514 25.5958 21.1555 25.1423 21.16 24.6889C21.1623 24.4527 21.1645 24.2165 21.1664 23.9803C21.168 23.7938 21.1697 23.6073 21.1715 23.4207C21.1726 23.3091 21.1736 23.1974 21.1745 23.0857C21.183 21.9594 21.183 21.9594 21.2872 21.4744C21.2923 21.4502 21.2974 21.426 21.3026 21.401C21.3501 21.1831 21.4128 20.9725 21.4933 20.7636C21.4995 20.7476 21.5056 20.7316 21.5119 20.7152C21.7042 20.2231 21.992 19.787 22.3761 19.4109C22.4117 19.376 22.4469 19.3408 22.4821 19.3056C23.6853 18.1166 25.8281 17.5896 27.5168 17.5561C28.827 17.536 30.0539 17.7942 31.2462 18.3011C31.2633 17.6915 31.2725 17.082 31.2764 16.4723C31.2765 16.4551 31.2766 16.438 31.2767 16.4204C31.2778 16.2427 31.2789 16.0649 31.2799 15.8872C31.2813 15.6451 31.2829 15.403 31.2845 15.161C31.2847 15.1331 31.2847 15.1331 31.2849 15.1047C31.2857 14.9931 31.2865 14.8814 31.2872 14.7698C31.2876 14.7147 31.288 14.6596 31.2884 14.6045C31.2897 14.4134 31.291 14.2223 31.2923 14.0312C31.293 13.9291 31.2937 13.827 31.2944 13.7249C31.2962 13.4665 31.2983 13.2081 31.3011 12.9497C31.3018 12.8807 31.3024 12.8116 31.3028 12.7425C31.3055 12.3255 31.3152 11.9239 31.4626 11.5265C31.4733 11.4971 31.4733 11.4971 31.4841 11.4672C31.6423 11.0446 31.8855 10.6986 32.2121 10.3764C32.2255 10.3622 32.2389 10.348 32.2527 10.3334C32.7572 9.81592 33.5755 9.53604 34.3033 9.49875C34.3348 9.49784 34.3663 9.49703 34.3979 9.49632C34.4157 9.49586 34.4334 9.4954 34.4518 9.49493C34.5119 9.49345 34.572 9.49214 34.6321 9.49088C34.6537 9.49042 34.6752 9.48995 34.6973 9.48946C35.3736 9.47517 36.0501 9.47745 36.7265 9.47803ZM25.8515 20.8755C25.832 20.8904 25.8125 20.9053 25.7924 20.9206C25.0168 21.5456 24.8022 22.544 24.7228 23.4592C24.6301 24.6148 24.7272 25.8298 25.5217 26.7631C25.5378 26.7822 25.554 26.8013 25.5706 26.8209C26.0052 27.3065 26.649 27.5831 27.3121 27.6362C28.0228 27.6658 28.7467 27.5828 29.3069 27.1244C29.334 27.1007 29.334 27.1007 29.3616 27.0765C29.3825 27.0584 29.4035 27.0403 29.4251 27.0216C30.2052 26.3154 30.5078 25.1143 30.5395 24.1215C30.5559 23.2757 30.3544 22.4447 29.9741 21.6814C29.967 21.6671 29.9598 21.6527 29.9525 21.6379C29.6823 21.1032 29.2131 20.7043 28.6313 20.495C27.7118 20.2009 26.6208 20.28 25.8515 20.8755ZM45.6164 21.1665C45.542 21.2461 45.4723 21.3283 45.4043 21.4128C45.39 21.4305 45.3757 21.4482 45.361 21.4665C45.0002 21.9345 44.8064 22.5091 44.674 23.0694C44.6701 23.0856 44.6662 23.1018 44.6622 23.1184C44.3816 24.3056 44.6172 25.6963 45.2842 26.7356C45.3566 26.8414 45.4327 26.9384 45.5221 27.0318C45.5533 27.0645 45.5533 27.0645 45.5852 27.0979C45.9301 27.4484 46.3751 27.6475 46.8649 27.7481C46.9007 27.7557 46.9007 27.7557 46.9371 27.7634C47.6464 27.8857 48.4437 27.7872 49.0558 27.4123C49.8025 26.9077 50.1565 26.0933 50.3073 25.2591C50.3502 25.0008 50.3753 24.7402 50.3986 24.4797C50.4005 24.4585 50.4025 24.4372 50.4046 24.4154C50.4961 23.3852 50.2977 22.1719 49.5814 21.3574C49.1018 20.827 48.4466 20.5628 47.7218 20.5034C47.6718 20.5003 47.6217 20.4974 47.5716 20.495C47.5532 20.494 47.5347 20.4931 47.5157 20.4921C46.8272 20.475 46.1063 20.6926 45.6164 21.1665Z" fill="white"/>
<path d="M32.0943 18.8838C32.1075 18.8947 32.1208 18.9057 32.1345 18.9169C32.5195 19.2372 32.8179 19.6127 33.0837 20.0255C33.0935 20.0407 33.1034 20.056 33.1135 20.0717C33.4778 20.6449 33.7106 21.2773 33.8611 21.9283C33.8713 21.971 33.8713 21.971 33.8816 22.0146C34.0156 22.609 34.0497 23.2206 34.0651 23.8267C34.0685 23.9578 34.0736 24.0871 34.0879 24.2176C34.1046 24.4112 34.0802 24.6013 34.0584 24.7938C34.0552 24.8232 34.0552 24.8232 34.0519 24.8533C33.9021 26.2114 33.5079 27.5812 32.5654 28.6442C32.5549 28.6561 32.5445 28.6681 32.5337 28.6804C32.3059 28.9398 32.0681 29.1734 31.788 29.3829C31.7544 29.4091 31.7544 29.4091 31.7201 29.4358C30.6535 30.2485 29.2656 30.5379 27.9228 30.4178C27.1023 30.3316 26.282 30.143 25.6395 29.6292C25.6159 29.6113 25.5924 29.5935 25.5682 29.5751C25.367 29.4198 25.1862 29.2454 25.0038 29.071C24.9763 29.0448 24.9487 29.0185 24.9212 28.9923C24.8543 28.9285 24.7875 28.8647 24.7207 28.8009C24.7204 28.8201 24.72 28.8394 24.7197 28.8592C24.7113 29.3302 24.7028 29.8012 24.6943 30.2722C24.6902 30.5 24.6861 30.7278 24.682 30.9556C24.6785 31.1545 24.6749 31.3534 24.6713 31.5523C24.6694 31.6573 24.6675 31.7622 24.6656 31.8672C24.6588 32.2552 24.6516 32.6432 24.6397 33.0311C24.6389 33.0579 24.6382 33.0848 24.6375 33.1124C24.6241 33.5067 24.5042 33.8515 24.226 34.1512C24.2028 34.1764 24.2028 34.1764 24.1792 34.2021C23.8894 34.4971 23.4751 34.6697 23.0524 34.6936C22.9444 34.6971 22.8364 34.6982 22.7284 34.6993C22.6884 34.6999 22.6485 34.7004 22.6086 34.701C22.5253 34.7021 22.442 34.703 22.3587 34.7039C22.2522 34.705 22.1457 34.7065 22.0393 34.7081C21.957 34.7093 21.8747 34.7103 21.7923 34.7112C21.7531 34.7117 21.7138 34.7122 21.6746 34.7128C21.6197 34.7137 21.5648 34.7142 21.5099 34.7146C21.4939 34.7149 21.4779 34.7152 21.4614 34.7155C21.3545 34.716 21.2634 34.7028 21.1635 34.6661C21.0887 34.5942 21.0841 34.5392 21.0843 34.4402C21.0842 34.4115 21.0841 34.3828 21.084 34.3533C21.0842 34.3209 21.0845 34.2885 21.0848 34.2561C21.0848 34.221 21.0848 34.1858 21.0848 34.1506C21.0848 34.0506 21.0854 33.9506 21.086 33.8506C21.0865 33.7617 21.0867 33.6728 21.0869 33.5839C21.0879 33.2208 21.0903 32.8577 21.0929 32.4946C21.0931 32.46 21.0933 32.4254 21.0936 32.3908C21.1017 31.2237 21.1118 30.0567 21.1224 28.8896C21.1255 28.5444 21.1285 28.1992 21.1316 27.854C21.1318 27.8313 21.132 27.8086 21.1322 27.7852C21.1326 27.7394 21.133 27.6936 21.1334 27.6478C21.1335 27.6251 21.1337 27.6025 21.1339 27.5792C21.1341 27.5566 21.1343 27.534 21.1345 27.5107C21.1377 27.1507 21.1409 26.7907 21.1441 26.4307C21.1452 26.3038 21.1463 26.1768 21.1474 26.0499C21.1514 25.5964 21.1555 25.143 21.16 24.6895C21.1623 24.4533 21.1645 24.2171 21.1664 23.981C21.168 23.7944 21.1697 23.6079 21.1715 23.4214C21.1726 23.3097 21.1736 23.198 21.1745 23.0864C21.183 21.96 21.183 21.96 21.2872 21.475C21.2923 21.4508 21.2974 21.4266 21.3026 21.4017C21.3501 21.1837 21.4128 20.9732 21.4933 20.7642C21.4995 20.7482 21.5056 20.7323 21.5119 20.7158C21.7042 20.2237 21.992 19.7877 22.3761 19.4115C22.4117 19.3767 22.4469 19.3415 22.4821 19.3062C23.9501 17.8555 26.7198 17.3592 32.0943 18.8838ZM25.8515 20.8762C25.832 20.891 25.8125 20.9059 25.7924 20.9212C25.0168 21.5462 24.8022 22.5446 24.7228 23.4598C24.6301 24.6155 24.7272 25.8304 25.5217 26.7637C25.5378 26.7828 25.554 26.8019 25.5706 26.8216C26.0052 27.3072 26.649 27.5837 27.3121 27.6368C28.0228 27.6665 28.7467 27.5835 29.3069 27.1251C29.334 27.1014 29.334 27.1014 29.3616 27.0772C29.3825 27.059 29.4035 27.0409 29.4251 27.0222C30.2052 26.316 30.5078 25.1149 30.5395 24.1222C30.5559 23.2764 30.3544 22.4453 29.9741 21.6821C29.967 21.6677 29.9598 21.6533 29.9525 21.6385C29.6823 21.1039 29.2131 20.7049 28.6313 20.4956C27.7118 20.2016 26.6208 20.2806 25.8515 20.8762Z" fill="white"/>
<path d="M36.7224 9.47803C36.8337 9.47812 36.945 9.47817 37.0563 9.47822C37.9745 9.47866 38.8927 9.48039 39.8109 9.4887C39.8796 9.4893 39.9483 9.48983 40.0169 9.49035C41.1242 9.4989 41.1242 9.4989 41.5309 9.59844C41.5513 9.60328 41.5716 9.60812 41.5927 9.61311C42.406 9.81284 43.1198 10.2941 43.5586 10.9805C43.8702 11.4885 43.9929 12.0456 43.9881 12.6289C43.9874 12.7203 43.9872 12.8116 43.987 12.903C43.9869 12.9228 43.9869 12.9427 43.9868 12.9631C43.9863 13.2134 43.9891 13.4637 43.9917 13.714C43.9966 14.2153 43.9993 14.7167 44.0007 15.218C44.0009 15.2778 44.0011 15.3376 44.0013 15.3974C44.0013 15.4122 44.0014 15.4271 44.0014 15.4423C44.0022 15.6844 44.0046 15.9265 44.0076 16.1685C44.0106 16.4191 44.0119 16.6696 44.0116 16.9201C44.0116 17.06 44.0123 17.1998 44.0149 17.3397C44.0173 17.4709 44.0176 17.6018 44.0163 17.733C44.0162 17.7808 44.0169 17.8287 44.0184 17.8765C44.0287 18.2277 44.0287 18.2277 43.9189 18.3508C43.8113 18.4434 43.6927 18.515 43.5675 18.5842C43.4592 18.6474 43.3721 18.7334 43.28 18.816C43.2507 18.8399 43.2212 18.8637 43.1917 18.8873C42.9569 19.0824 42.7382 19.2963 42.5497 19.5324C42.5387 19.5459 42.5277 19.5595 42.5164 19.5735C41.973 20.2486 41.5929 21.0162 41.3718 21.8381C41.3642 21.8662 41.3642 21.8662 41.3563 21.8948C41.2474 22.3006 41.1999 22.7162 41.1479 23.1312C41.1449 23.1543 41.1449 23.1543 41.142 23.1779C41.1379 23.2123 41.1344 23.2468 41.1312 23.2813C41.1295 23.2994 41.1277 23.3174 41.1259 23.3361C41.1238 23.3607 41.1238 23.3607 41.1216 23.3859C41.1127 23.4276 41.1127 23.4276 41.0656 23.4723C41.0655 23.4498 41.0655 23.4498 41.0654 23.4267C41.064 23.0585 41.0622 22.6904 41.06 22.3222C41.059 22.1441 41.0581 21.966 41.0574 21.788C41.0569 21.6326 41.0561 21.4772 41.055 21.3217C41.0545 21.2396 41.054 21.1575 41.0539 21.0755C41.053 20.643 41.0474 20.2117 40.9081 19.7954C40.8991 19.768 40.8991 19.768 40.89 19.74C40.8274 19.5563 40.7418 19.3866 40.6416 19.2189C40.6211 19.1848 40.6211 19.1848 40.6003 19.1499C40.5053 19.0005 40.3913 18.8747 40.2646 18.7488C40.2505 18.7337 40.2363 18.7185 40.2217 18.7029C39.6785 18.1442 38.7369 17.9264 37.9663 17.8958C37.9036 17.8945 37.8408 17.8939 37.778 17.8936C37.7549 17.8935 37.7318 17.8934 37.7079 17.8932C37.6592 17.893 37.6105 17.8929 37.5617 17.8928C37.4888 17.8926 37.4159 17.8919 37.3429 17.8912C36.4301 17.8865 35.6111 18.1118 34.9391 18.7208C34.4578 19.1951 34.1424 19.846 34.135 20.5092C34.1348 20.5257 34.1346 20.5422 34.1344 20.5592C34.1337 20.6141 34.1332 20.669 34.1326 20.7239C34.1322 20.7634 34.1317 20.8029 34.1312 20.8424C34.13 20.9494 34.1289 21.0563 34.1277 21.1633C34.1266 21.2752 34.1253 21.3871 34.124 21.499C34.1216 21.7107 34.1192 21.9225 34.117 22.1343C34.1144 22.3754 34.1117 22.6165 34.1089 22.8576C34.1033 23.3536 34.0979 23.8495 34.0925 24.3454C34.0848 24.3454 34.077 24.3454 34.069 24.3454C34.0517 24.1763 34.0424 24.0081 34.0386 23.8383C34.0248 23.2344 33.9787 22.6332 33.857 22.0396C33.8533 22.021 33.8496 22.0023 33.8458 21.9831C33.7234 21.3632 33.4869 20.7819 33.1738 20.2263C33.1591 20.2004 33.1445 20.1744 33.1294 20.1476C32.9429 19.8275 32.722 19.5374 32.4671 19.2637C32.4489 19.2437 32.4307 19.2237 32.4119 19.203C32.2392 19.0155 32.0481 18.8562 31.8398 18.7055C31.8259 18.6953 31.812 18.6851 31.7977 18.6747C31.7831 18.6643 31.7686 18.654 31.7535 18.6433C31.7307 18.6268 31.7307 18.6268 31.7074 18.61C31.6545 18.5772 31.6073 18.5539 31.5501 18.5298C31.2967 18.4156 31.2967 18.4156 31.2455 18.3007C31.2158 18.1638 31.2316 18.0242 31.2414 17.8859C31.2433 17.8379 31.245 17.7899 31.2465 17.7419C31.25 17.6356 31.2543 17.5294 31.2591 17.4231C31.2667 17.2395 31.2684 17.056 31.2689 16.8723C31.269 16.856 31.269 16.8398 31.2691 16.823C31.2693 16.7561 31.2694 16.6891 31.2696 16.6221C31.2699 16.4479 31.2711 16.2736 31.2724 16.0993C31.2728 16.0455 31.2732 15.9917 31.2736 15.9379C31.2743 15.8283 31.2751 15.7187 31.2759 15.6092C31.2761 15.5907 31.2762 15.5723 31.2763 15.5533C31.2797 15.0955 31.2832 14.6377 31.2869 14.1799C31.2885 13.9779 31.29 13.776 31.2915 13.5741C31.293 13.366 31.2948 13.1579 31.297 12.9498C31.2977 12.8807 31.2983 12.8116 31.2987 12.7425C31.3013 12.3255 31.311 11.9239 31.4585 11.5265C31.4656 11.5069 31.4727 11.4874 31.48 11.4672C31.6381 11.0446 31.8814 10.6986 32.2079 10.3764C32.2281 10.3551 32.2281 10.3551 32.2486 10.3334C32.7531 9.81592 33.5714 9.53604 34.2992 9.49875C34.3307 9.49784 34.3622 9.49703 34.3937 9.49632C34.4204 9.49563 34.4204 9.49563 34.4476 9.49493C34.5078 9.49345 34.5679 9.49214 34.628 9.49088C34.6603 9.49018 34.6603 9.49018 34.6932 9.48946C35.3695 9.47517 36.046 9.47745 36.7224 9.47803Z" fill="white"/>
<path d="M19.0035 18.6744C19.0469 18.7144 19.0901 18.7545 19.133 18.7948C19.1626 18.82 19.1626 18.82 19.1927 18.8457C19.7503 19.3362 19.9963 20.0856 20.0518 20.7871C20.055 20.8794 20.055 20.9717 20.0548 21.064C20.0549 21.1043 20.0549 21.1043 20.055 21.1453C20.055 21.2186 20.055 21.2919 20.055 21.3652C20.0549 21.4432 20.0549 21.5213 20.055 21.5994C20.055 21.7314 20.055 21.8635 20.0549 21.9955C20.0547 22.1285 20.0547 22.2616 20.0549 22.3947C20.0554 23.0444 20.0551 23.694 20.041 24.3437C20.0405 24.3658 20.0401 24.3879 20.0396 24.4106C19.9696 27.5579 19.9696 27.5579 18.9917 28.6223C18.9721 28.644 18.9525 28.6656 18.9323 28.6878C17.7915 29.9239 16.0043 30.1905 14.3744 30.3237C14.3461 30.3261 14.3179 30.3285 14.2887 30.331C13.991 30.3534 13.6923 30.3515 13.3938 30.3517C13.365 30.3517 13.3361 30.3517 13.3064 30.3517C12.881 30.3515 12.463 30.3442 12.0422 30.2789C12.0204 30.2756 11.9986 30.2722 11.9761 30.2688C11.8398 30.2469 11.7054 30.22 11.571 30.1894C11.5539 30.1856 11.5368 30.1819 11.5192 30.1781C10.7387 30.0046 10.0478 29.6182 9.47441 29.0925C9.44658 29.0677 9.44658 29.0677 9.41818 29.0425C8.77325 28.4553 8.33911 27.5436 8.31384 26.6958C8.3124 26.6165 8.31229 26.5372 8.31272 26.4579C8.31277 26.4412 8.31283 26.4244 8.31288 26.4072C8.31414 26.1481 8.32618 25.8976 8.39076 25.645C8.39531 25.6267 8.39987 25.6084 8.40456 25.5896C8.6434 24.6595 9.16659 23.9103 10.0273 23.4023C10.7371 22.9969 11.6076 22.7393 12.4191 22.6004C12.4446 22.5961 12.4701 22.5917 12.4963 22.5872C12.8358 22.5304 13.1772 22.4876 13.519 22.4457C13.5504 22.4418 13.5818 22.4379 13.6132 22.4341C13.7699 22.4148 13.9266 22.3958 14.0834 22.3772C15.3021 22.2551 15.3021 22.2551 16.3532 21.705C16.3733 21.6865 16.3733 21.6865 16.3937 21.6676C16.5628 21.4958 16.6049 21.3278 16.598 21.0945C16.5717 20.8558 16.4594 20.6634 16.2658 20.5108C15.6236 20.0692 14.4845 20.0465 13.7352 20.151C13.4396 20.1967 13.1389 20.2631 12.8667 20.3842C12.841 20.3951 12.841 20.3951 12.8148 20.4061C12.7676 20.426 12.7676 20.426 12.7533 20.4765C12.6753 20.6562 12.4901 20.8063 12.3046 20.8817C12.0707 20.9604 11.847 20.9696 11.6007 20.9698C11.5738 20.97 11.5469 20.9701 11.5192 20.9702C11.4309 20.9705 11.3426 20.9707 11.2543 20.9708C11.1927 20.9709 11.131 20.971 11.0694 20.9712C10.9569 20.9714 10.8445 20.9715 10.732 20.9716C10.5668 20.9717 10.4017 20.9721 10.2366 20.9727C10.093 20.9733 9.94945 20.9734 9.80589 20.9735C9.74501 20.9735 9.68413 20.9737 9.62325 20.974C9.53817 20.9744 9.4531 20.9744 9.36802 20.9742C9.33042 20.9745 9.33042 20.9745 9.29206 20.9748C9.13489 20.974 9.01161 20.9621 8.88694 20.8627C8.81776 20.7157 8.87095 20.5459 8.91933 20.3996C8.92558 20.3804 8.93182 20.3612 8.93826 20.3414C9.17299 19.6465 9.6161 18.9944 10.2283 18.5485C10.2605 18.5241 10.2605 18.5241 10.2933 18.4992C11.9929 17.2389 14.7706 17.2751 19.0035 18.6744ZM15.8338 24.226C15.7214 24.2578 15.6085 24.2884 15.4957 24.3188C15.4613 24.3282 15.4613 24.3282 15.4261 24.3377C15.2037 24.3974 14.9797 24.4491 14.7543 24.4977C14.7263 24.5037 14.7263 24.5037 14.6977 24.5099C14.4692 24.5591 14.2402 24.6058 14.011 24.652C13.2722 24.7988 13.2722 24.7988 12.584 25.0853C12.5638 25.0961 12.5436 25.1068 12.5227 25.1179C12.287 25.2553 12.0952 25.4559 11.9715 25.6897C11.9624 25.7068 11.9532 25.7238 11.9438 25.7414C11.7656 26.0967 11.7755 26.5122 11.895 26.8832C12.0167 27.2006 12.2268 27.4302 12.5369 27.5926C12.5662 27.6081 12.5662 27.6081 12.5962 27.624C12.8876 27.7637 13.2271 27.8076 13.5499 27.8164C13.5699 27.8173 13.5898 27.8182 13.6104 27.8191C14.4542 27.8405 15.243 27.5909 15.86 27.0399C16.0868 26.8164 16.2434 26.5527 16.3768 26.2718C16.3879 26.2489 16.399 26.2261 16.4105 26.2025C16.5707 25.8431 16.6387 25.4334 16.6407 25.0446C16.6408 25.0243 16.641 25.0041 16.6411 24.9833C16.6413 24.9409 16.6415 24.8985 16.6416 24.8561C16.6418 24.7915 16.6426 24.7269 16.6433 24.6623C16.6434 24.6209 16.6436 24.5795 16.6437 24.5381C16.6441 24.5094 16.6441 24.5094 16.6445 24.4801C16.644 24.3415 16.6258 24.225 16.5181 24.1227C16.2846 24.0823 16.0546 24.1632 15.8338 24.226Z" fill="white"/>
<path d="M61.0681 17.7332C61.0933 17.7333 61.1185 17.7333 61.1444 17.7334C61.5471 17.7344 61.9418 17.7478 62.3402 17.8074C62.3659 17.8112 62.3916 17.8151 62.4181 17.819C63.4473 17.9791 64.4409 18.3261 65.2613 18.9491C65.2805 18.9627 65.2996 18.9764 65.3193 18.9904C65.6968 19.2681 66.0239 19.6089 66.2979 19.9789C66.308 19.9921 66.3181 20.0052 66.3285 20.0188C67.1487 21.0904 67.4519 22.5104 67.457 23.8161C67.4571 23.844 67.4573 23.8719 67.4574 23.9007C67.4576 23.9595 67.4578 24.0184 67.4579 24.0773C67.4581 24.1651 67.4588 24.2529 67.4596 24.3407C67.4663 25.8561 67.0495 27.498 66.0152 28.6871C65.9982 28.7066 65.9982 28.7066 65.9809 28.7265C65.7615 28.9776 65.5317 29.2009 65.2613 29.4035C65.2375 29.4217 65.2137 29.44 65.1892 29.4588C65.0034 29.5998 64.8087 29.7179 64.6017 29.8288C64.5866 29.8371 64.5714 29.8454 64.5558 29.8539C63.5682 30.3899 62.4032 30.564 61.2801 30.5899C61.2619 30.5904 61.2436 30.5909 61.2248 30.5914C59.6098 30.63 58.005 30.2339 56.7806 29.202C56.7676 29.1911 56.7546 29.1802 56.7413 29.1689C55.3519 27.9927 54.9567 26.3222 54.8531 24.6197C54.7686 22.8801 55.0696 20.937 56.3094 19.5759C56.3258 19.5579 56.3421 19.5399 56.3589 19.5213C56.6023 19.259 56.8592 19.02 57.1575 18.8148C57.1805 18.7989 57.1805 18.7989 57.2039 18.7827C57.9374 18.2825 58.7869 17.9817 59.6723 17.834C59.6984 17.8296 59.7246 17.8252 59.7515 17.8207C60.1894 17.7524 60.6249 17.7317 61.0681 17.7332ZM59.4426 21.0758C59.425 21.0893 59.4075 21.1027 59.3894 21.1166C58.7009 21.6604 58.4792 22.5986 58.3965 23.4035C58.2907 24.551 58.3597 26.1032 59.1334 27.0599C59.1653 27.0953 59.1977 27.1303 59.2306 27.1648C59.248 27.1834 59.2653 27.202 59.2832 27.2212C59.6286 27.5708 60.114 27.7689 60.5969 27.8812C60.6199 27.8867 60.643 27.8922 60.6667 27.8979C61.3221 28.0273 61.9992 27.864 62.5522 27.523C62.6431 27.4602 62.7279 27.3931 62.8113 27.3216C62.8312 27.3046 62.851 27.2876 62.8714 27.27C63.6957 26.5257 63.8945 25.341 63.9253 24.31C63.9446 23.5246 63.9098 22.7148 63.5416 21.9936C63.5317 21.9742 63.5317 21.9742 63.5216 21.9543C63.2101 21.352 62.6998 20.8663 62.0339 20.6281C61.1761 20.3589 60.1298 20.503 59.4426 21.0758Z" fill="white"/>
<path d="M7.20444 17.7343C7.23825 17.734 7.27207 17.7336 7.30588 17.7331C7.3538 17.7324 7.4017 17.7322 7.44962 17.7321C7.47749 17.7319 7.50536 17.7317 7.53407 17.7314C7.64442 17.7423 7.73925 17.7683 7.81947 17.8441C7.8622 17.9158 7.85857 17.9693 7.85763 18.0516C7.85755 18.0672 7.85747 18.0829 7.85739 18.0991C7.85704 18.1517 7.85619 18.2044 7.85534 18.257C7.85499 18.2948 7.85468 18.3326 7.8544 18.3704C7.85374 18.4523 7.85287 18.5343 7.85188 18.6162C7.85033 18.7496 7.84966 18.8829 7.84912 19.0163C7.84822 19.228 7.84678 19.4397 7.84491 19.6514C7.84385 19.7729 7.84292 19.8945 7.8423 20.016C7.84169 20.1361 7.84075 20.2563 7.83955 20.3764C7.83916 20.4216 7.83889 20.4668 7.83874 20.5121C7.83852 20.5745 7.83786 20.637 7.83709 20.6994C7.83713 20.7178 7.83716 20.7361 7.8372 20.755C7.83542 20.8576 7.82567 20.9244 7.75624 21.0078C7.63398 21.0898 7.51716 21.0831 7.37361 21.08C7.35023 21.0797 7.32685 21.0795 7.30276 21.0793C7.25292 21.0788 7.20308 21.0782 7.15325 21.0775C7.02429 21.0757 6.89533 21.0752 6.76635 21.0748C6.74132 21.0747 6.71628 21.0746 6.69049 21.0745C5.95803 21.0734 5.21126 21.1813 4.59951 21.5899C4.5791 21.6031 4.5587 21.6163 4.53767 21.6299C4.08983 21.9424 3.85969 22.4572 3.7758 22.9648C3.70249 23.4489 3.69678 23.9343 3.69556 24.4222C3.69528 24.5153 3.69471 24.6085 3.69418 24.7016C3.69321 24.8783 3.69244 25.055 3.69177 25.2316C3.69035 25.6016 3.68852 25.9716 3.68656 26.3416C3.68646 26.3603 3.68637 26.379 3.68626 26.3983C3.68382 26.8626 3.6805 27.3268 3.67018 27.791C3.66976 27.8112 3.66934 27.8314 3.66891 27.8522C3.63858 29.2585 3.63858 29.2585 3.17427 29.7203C2.63815 30.1776 1.83897 30.0788 1.16942 30.0688C1.07623 30.0675 0.983041 30.0664 0.889846 30.0655C0.817269 30.0647 0.744695 30.0637 0.672121 30.0626C0.637739 30.0622 0.603356 30.0618 0.568972 30.0614C0.521099 30.061 0.473231 30.0602 0.425363 30.0594C0.38473 30.0588 0.38473 30.0588 0.343275 30.0583C0.236631 30.0496 0.13352 30.039 0.0558317 29.9651C-0.00221144 29.8609 0.00238625 29.7559 0.00262207 29.6404C0.0025687 29.6213 0.0025153 29.6022 0.00246031 29.5825C0.00231094 29.5183 0.00233017 29.4541 0.0023496 29.39C0.00227911 29.3439 0.00219859 29.2979 0.00210948 29.2519C0.0019008 29.1265 0.00184625 29.0011 0.00183126 28.8757C0.00181448 28.7969 0.00176423 28.7181 0.00170185 28.6393C0.00148337 28.3631 0.00138786 28.0869 0.00140637 27.8107C0.00142038 27.5557 0.00117456 27.3007 0.000799603 27.0457C0.000487468 26.8253 0.000365587 26.605 0.000380471 26.3846C0.000386381 26.2537 0.000324683 26.1228 6.98968e-05 25.9919C-0.00165616 25.037 0.0282835 24.0854 0.12356 23.1345C0.12605 23.1096 0.12605 23.1096 0.128591 23.0842C0.245874 21.926 0.558164 20.804 1.34856 19.8885C1.35955 19.8758 1.37054 19.863 1.38187 19.8499C1.62074 19.5749 1.87486 19.3227 2.17307 19.105C2.18628 19.0953 2.19949 19.0857 2.21309 19.0757C2.42628 18.9207 2.64551 18.7817 2.8798 18.6573C2.89796 18.6476 2.91611 18.6379 2.93481 18.6279C4.00217 18.0632 5.2056 17.8425 6.41345 17.7618C6.43142 17.7605 6.44938 17.7592 6.46789 17.7579C6.71306 17.7405 6.95866 17.7362 7.20444 17.7343Z" fill="white"/>
<path d="M38.8487 19.4191C38.932 19.4821 39.0089 19.5491 39.0842 19.6206C39.1024 19.6376 39.1206 19.6546 39.1393 19.6721C39.4895 20.0191 39.6489 20.4732 39.6642 20.9476C39.6655 20.9838 39.6655 20.9838 39.6668 21.0208C39.6763 21.3041 39.6766 21.5876 39.6763 21.8711C39.6763 21.9337 39.6763 21.9962 39.6764 22.0588C39.6765 22.2448 39.6764 22.4309 39.6762 22.6169C39.6761 22.7232 39.6761 22.8294 39.676 22.9357C39.6756 24.1349 39.669 25.334 39.6544 26.5331C39.6515 26.7744 39.6488 27.0156 39.6468 27.2569C39.6456 27.4092 39.6441 27.5615 39.6424 27.7137C39.6415 27.7979 39.6407 27.882 39.6401 27.9662C39.6358 28.6128 39.5717 29.2087 39.1078 29.7168C39.0928 29.7353 39.0777 29.7538 39.0623 29.7729C38.7757 30.1013 38.2986 30.3065 37.8593 30.366C37.2215 30.4031 36.6507 30.3163 36.1493 29.9104C35.7147 29.5433 35.4987 29.0531 35.4564 28.5079C35.4533 28.4251 35.4531 28.3425 35.4533 28.2597C35.4533 28.2357 35.4532 28.2117 35.4532 28.187C35.4531 28.1073 35.4532 28.0277 35.4532 27.948C35.4532 27.8909 35.4532 27.8337 35.4531 27.7766C35.4531 27.6221 35.4532 27.4677 35.4533 27.3132C35.4534 27.2162 35.4535 27.1193 35.4535 27.0223C35.4541 25.6906 35.4639 24.359 35.4791 23.0274C35.4799 22.9577 35.4807 22.888 35.4815 22.8182C35.4844 22.5554 35.4876 22.2926 35.491 22.0298C35.4917 21.9781 35.4923 21.9264 35.493 21.8747C35.497 21.5563 35.5026 21.2379 35.5137 20.9196C35.5145 20.8951 35.5152 20.8707 35.516 20.8455C35.5326 20.4176 35.692 20.0265 35.9982 19.7101C36.0153 19.6918 36.0324 19.6735 36.05 19.6547C36.7787 18.9152 37.9931 18.8414 38.8487 19.4191Z" fill="white"/>
<path d="M29.8291 1.35361C29.8617 1.3788 29.8617 1.3788 29.895 1.4045C30.2033 1.65488 30.4302 1.99772 30.4887 2.38338C30.5201 2.76956 30.4441 3.075 30.2538 3.4146C30.2281 3.46051 30.2025 3.50644 30.1774 3.55263C30.1696 3.56666 30.1619 3.58069 30.154 3.59514C30.1204 3.67042 30.1146 3.7369 30.1353 3.8161C30.2071 3.95513 30.3355 4.04586 30.4609 4.13983C30.5456 4.20336 30.6268 4.27056 30.7081 4.33798C30.7384 4.36305 30.7687 4.38812 30.799 4.41319C30.814 4.42561 30.829 4.43803 30.8445 4.45083C30.9146 4.50865 30.985 4.56605 31.0555 4.62341C31.0691 4.63441 31.0826 4.64542 31.0965 4.65676C31.1373 4.68995 31.1781 4.72314 31.219 4.75633C31.4323 4.92978 31.645 5.10393 31.8571 5.27885C31.9029 5.31661 31.9488 5.3543 31.9947 5.39197C32.1239 5.49804 32.2529 5.60413 32.3792 5.71334C32.478 5.79858 32.5808 5.87835 32.6846 5.95801C32.7518 6.01119 32.8158 6.0667 32.8798 6.12329C33.0858 6.30097 33.2751 6.41933 33.5291 6.52484C33.8382 6.65366 34.0676 6.79354 34.2021 7.10094C34.2394 7.19883 34.2461 7.28885 34.2446 7.39231C34.2444 7.41867 34.2444 7.41867 34.2441 7.44556C34.2365 7.70414 34.1419 7.92459 33.9552 8.11357C33.7595 8.28815 33.5487 8.33974 33.2882 8.35054C33.2656 8.35148 33.2431 8.35242 33.2198 8.35339C32.898 8.36536 32.5759 8.36378 32.2538 8.36352C32.1594 8.36346 32.065 8.36352 31.9706 8.36355C31.8117 8.36359 31.6528 8.36354 31.4939 8.36343C31.3331 8.36333 31.1724 8.36333 31.0116 8.36343C29.4929 8.36442 29.4929 8.36442 28.9043 8.35443C28.8618 8.35372 28.8193 8.35311 28.7768 8.35261C28.4023 8.34786 28.0591 8.30682 27.7795 8.04711C27.5778 7.80973 27.5158 7.56317 27.5387 7.26404C27.5658 7.03094 27.6793 6.85284 27.8614 6.69965C28.1019 6.52083 28.3644 6.45475 28.6674 6.45499C28.7135 6.45494 28.7135 6.45494 28.7606 6.4549C28.7942 6.45498 28.8279 6.45506 28.8616 6.45514C28.8973 6.45515 28.9331 6.45514 28.9689 6.45513C29.0656 6.45512 29.1624 6.45526 29.2591 6.45541C29.3604 6.45555 29.4616 6.45557 29.5628 6.45559C29.7544 6.45566 29.9459 6.45584 30.1375 6.45607C30.3556 6.45632 30.5738 6.45644 30.7919 6.45656C31.2405 6.45679 31.6891 6.45718 32.1377 6.45768C32.1198 6.44385 32.102 6.43002 32.0836 6.41577C32.0602 6.39763 32.0368 6.37949 32.0127 6.36079C31.9779 6.33381 31.9779 6.33381 31.9424 6.30629C31.8758 6.25401 31.8121 6.20032 31.749 6.14427C31.6647 6.07055 31.579 5.99996 31.4899 5.9316C31.3778 5.84568 31.2718 5.75484 31.1659 5.66218C31.1031 5.60864 31.0388 5.55792 30.9731 5.50766C30.8662 5.42579 30.7653 5.33957 30.665 5.2508C30.5681 5.16568 30.4669 5.08669 30.3642 5.00808C30.2977 4.95582 30.2341 4.90139 30.1706 4.84587C30.066 4.75438 29.9579 4.66868 29.8472 4.58406C29.756 4.51194 29.6701 4.43482 29.5842 4.35704C29.4644 4.26247 29.3726 4.2288 29.2166 4.24144C29.1532 4.25441 29.0919 4.26831 29.0296 4.28481C28.434 4.44017 27.7904 4.36232 27.2524 4.07634C26.7914 3.80538 26.5061 3.43629 26.3661 2.94304C26.2809 2.55181 26.357 2.14046 26.5781 1.80134C26.8976 1.34633 27.3479 1.07526 27.9047 0.954856C27.9571 0.945411 28.0096 0.936496 28.0622 0.928272C28.0826 0.925069 28.1029 0.921866 28.1238 0.918565C28.7209 0.847084 29.3633 0.985306 29.8291 1.35361Z" fill="white"/>
<path d="M47.4509 1.10751C47.4781 1.11562 47.5052 1.12373 47.5332 1.13208C48.0428 1.30338 48.4357 1.61851 48.673 2.08271C48.6905 2.12297 48.7072 2.16356 48.723 2.20444C48.7305 2.22374 48.738 2.24305 48.7458 2.26294C48.8747 2.66224 48.8063 3.10002 48.6098 3.46521C48.5421 3.58528 48.4637 3.69098 48.3697 3.79386C48.3517 3.81649 48.3337 3.83911 48.3152 3.86242C47.9857 4.2047 47.4767 4.45252 46.9848 4.47376C46.6835 4.47927 46.4355 4.45768 46.1552 4.35352C45.8963 4.26829 45.6076 4.23488 45.3501 4.34322C45.0719 4.47998 44.8578 4.70578 44.6417 4.91598C44.5803 4.97535 44.5188 5.03462 44.4573 5.09384C44.4354 5.11486 44.4354 5.11486 44.4132 5.13631C44.3266 5.21929 44.2383 5.29863 44.1443 5.3741C44.0808 5.42607 44.0228 5.48301 43.9644 5.53999C43.8717 5.62928 43.7774 5.71442 43.6768 5.79577C43.6188 5.84416 43.5655 5.89643 43.5115 5.94872C43.4685 5.98877 43.424 6.02606 43.3784 6.06327C43.2871 6.1381 43.202 6.21783 43.1174 6.29947C43.0789 6.3366 43.0397 6.37282 43 6.40886C42.9547 6.45455 42.9319 6.4913 42.9043 6.54738C42.9234 6.54741 42.9425 6.54744 42.9622 6.54747C43.4282 6.54831 43.8943 6.54963 44.3603 6.55149C44.5857 6.55238 44.8111 6.55311 45.0365 6.55344C45.2331 6.55373 45.4296 6.55434 45.6262 6.55531C45.7302 6.55582 45.8341 6.55617 45.9381 6.55615C46.0362 6.55613 46.1344 6.55654 46.2325 6.55725C46.2682 6.55744 46.304 6.55748 46.3397 6.55736C46.7128 6.55621 47.0935 6.61774 47.3773 6.86778C47.5868 7.08354 47.6318 7.32144 47.6245 7.60452C47.6116 7.82518 47.51 7.99632 47.3498 8.15342C47.0342 8.40358 46.6482 8.43812 46.2538 8.43616C46.2149 8.43621 46.176 8.4363 46.1371 8.43641C46.0322 8.43661 45.9273 8.43641 45.8223 8.43611C45.7114 8.43585 45.6005 8.43595 45.4897 8.43599C45.303 8.43601 45.1163 8.43576 44.9296 8.43535C44.716 8.43488 44.5024 8.4348 44.2888 8.43494C44.0813 8.43507 43.8738 8.43494 43.6663 8.43469C43.5791 8.43458 43.4918 8.43456 43.4046 8.43461C42.9982 8.43474 42.592 8.43297 42.1861 8.41311C42.1526 8.41149 42.1192 8.40996 42.0857 8.40856C41.7176 8.39255 41.3926 8.3244 41.1301 8.06544C40.9306 7.82851 40.9005 7.53218 40.9255 7.24135C40.9677 7.03375 41.1182 6.87478 41.2923 6.75025C41.3801 6.69573 41.4692 6.64719 41.563 6.60273C41.891 6.44648 42.1405 6.20495 42.3948 5.95738C42.4833 5.87134 42.5746 5.79082 42.6706 5.7123C42.7399 5.6541 42.8043 5.59166 42.869 5.5288C42.9633 5.43798 43.0588 5.35105 43.1613 5.26847C43.2405 5.20108 43.3142 5.12851 43.3889 5.05664C43.4684 4.98053 43.5504 4.90897 43.6363 4.83946C43.708 4.77909 43.7741 4.7136 43.8414 4.64883C43.9038 4.59035 43.9694 4.53635 44.0359 4.48215C44.0847 4.44091 44.1306 4.39776 44.1764 4.35352C44.2851 4.2488 44.4018 4.15402 44.5192 4.05821C44.7379 3.88356 44.7379 3.88356 44.8408 3.63898C44.8438 3.50246 44.8139 3.39045 44.7668 3.26219C44.7538 3.22548 44.7408 3.18875 44.7279 3.15201C44.7192 3.12808 44.7192 3.12808 44.7103 3.10367C44.5913 2.73453 44.6494 2.30927 44.8304 1.96991C45.0992 1.5275 45.5393 1.22279 46.0518 1.0804C46.5112 0.978815 46.9984 0.972002 47.4509 1.10751Z" fill="white"/>
<path d="M39.5484 4.78512C39.9447 5.14624 40.2281 5.66295 40.249 6.18986C40.2588 6.85996 40.0681 7.38519 39.5736 7.87391C39.5529 7.8939 39.5321 7.9139 39.5108 7.93451C39.4942 7.95058 39.4776 7.96665 39.4604 7.98321C39.0431 8.36018 38.4509 8.58531 37.8853 8.65087C37.8641 8.65335 37.843 8.65583 37.8212 8.65839C37.0545 8.73596 36.242 8.54458 35.6326 8.08561C35.1546 7.69541 34.7863 7.22435 34.705 6.61372C34.6655 5.9605 34.8246 5.42052 35.2851 4.92635C35.3193 4.89169 35.3537 4.85716 35.3882 4.82281C35.4009 4.80937 35.4135 4.79592 35.4266 4.78206C35.8259 4.37306 36.4608 4.10635 37.0372 4.03929C37.0677 4.03561 37.0677 4.03561 37.0988 4.03186C38.0038 3.93851 38.8724 4.21226 39.5484 4.78512Z" fill="white"/>
<path d="M35.4551 31.5078C37.592 31.5078 37.592 31.5078 37.9286 31.8212C38.0937 32.0006 38.155 32.2249 38.1459 32.4606C38.1247 32.6808 38.062 32.9002 37.8815 33.0525C37.8051 33.1011 37.7266 33.1448 37.6459 33.1868C37.6608 33.1914 37.6756 33.1961 37.6908 33.2009C37.8907 33.2692 38.0345 33.3592 38.1377 33.5394C38.2715 33.822 38.2634 34.1271 38.1642 34.418C38.0599 34.647 37.8743 34.8086 37.6415 34.9189C36.9421 35.175 36.2012 35.0448 35.4551 35.0448C35.4551 33.8776 35.4551 32.7104 35.4551 31.5078ZM36.2796 32.1346C36.2796 32.3858 36.2796 32.637 36.2796 32.8958C36.3758 32.8971 36.472 32.8985 36.5711 32.9C36.601 32.9006 36.6308 32.9012 36.6615 32.9018C36.8565 32.9032 37.0247 32.8827 37.1969 32.7922C37.2817 32.6994 37.3175 32.6019 37.3148 32.4786C37.3001 32.3826 37.281 32.312 37.2028 32.2466C37.0489 32.1548 36.9066 32.1316 36.7259 32.1324C36.6906 32.1325 36.6906 32.1325 36.6545 32.1326C36.625 32.1328 36.5956 32.133 36.5652 32.1332C36.471 32.1337 36.3767 32.1342 36.2796 32.1346ZM36.2796 33.5002C36.2796 33.7957 36.2796 34.0912 36.2796 34.3956C36.4538 34.3984 36.4538 34.3984 36.6315 34.4012C36.6858 34.4025 36.6858 34.4025 36.7412 34.4037C36.9582 34.4054 37.1184 34.3856 37.2911 34.2529C37.3834 34.1412 37.3977 34.0313 37.3942 33.8927C37.3779 33.7671 37.3267 33.6837 37.2248 33.6037C36.9998 33.4925 36.7608 33.4967 36.5122 33.4988C36.4355 33.4993 36.3587 33.4997 36.2796 33.5002Z" fill="white"/>
<path d="M42.7402 31.5073C43.0046 31.5073 43.2689 31.5073 43.5412 31.5073C43.549 32.0096 43.5567 32.512 43.5648 33.0295C43.7163 32.8301 43.7163 32.8301 43.871 32.6266C43.9605 32.5206 44.0502 32.4151 44.1412 32.3103C44.1975 32.2449 44.2522 32.1784 44.3068 32.1117C44.4163 31.9784 44.5281 31.847 44.6407 31.7161C44.653 31.7018 44.6652 31.6876 44.6779 31.6729C44.6887 31.6604 44.6995 31.6478 44.7106 31.6349C44.7447 31.5969 44.7447 31.5969 44.7693 31.5478C44.8284 31.4934 44.8781 31.4971 44.9578 31.4971C44.9866 31.4978 44.9866 31.4978 45.016 31.4985C45.0358 31.4987 45.0556 31.4988 45.0759 31.4989C45.1391 31.4994 45.2022 31.5005 45.2653 31.5017C45.3081 31.5021 45.3509 31.5025 45.3937 31.5029C45.4987 31.5039 45.6036 31.5054 45.7085 31.5073C45.6671 31.5895 45.6159 31.6563 45.5568 31.7283C45.5413 31.7474 45.5413 31.7474 45.5254 31.7668C45.4923 31.8072 45.4591 31.8475 45.4258 31.8878C45.4152 31.9007 45.4045 31.9137 45.3936 31.9269C45.329 32.0053 45.2643 32.0835 45.1994 32.1617C45.1453 32.2271 45.0912 32.2925 45.0371 32.358C45.0156 32.384 44.9941 32.41 44.9726 32.436C44.9285 32.4893 44.8844 32.5427 44.8403 32.5962C44.7143 32.7487 44.5878 32.9008 44.4599 33.0519C44.4905 33.13 44.5264 33.1976 44.5739 33.2676C44.5871 33.2872 44.6004 33.3069 44.6141 33.3272C44.6283 33.3481 44.6426 33.369 44.6572 33.3905C44.6874 33.4352 44.7175 33.4798 44.7477 33.5245C44.7628 33.5468 44.7779 33.5691 44.7934 33.592C44.855 33.6832 44.9159 33.7747 44.9767 33.8662C44.988 33.8832 44.9993 33.9001 45.0109 33.9176C45.0764 34.0163 45.1416 34.1152 45.2066 34.2143C45.2291 34.2485 45.2291 34.2485 45.252 34.2835C45.2822 34.3296 45.3125 34.3756 45.3427 34.4217C45.4456 34.5784 45.5502 34.7339 45.6579 34.8876C45.7321 34.9947 45.7321 34.9947 45.7321 35.0443C45.6051 35.0521 45.4783 35.0578 45.3512 35.0615C45.308 35.0631 45.2649 35.0652 45.2218 35.068C44.8759 35.0893 44.8759 35.0893 44.7748 35.0166C44.7066 34.9439 44.6634 34.8603 44.6215 34.772C44.5921 34.7122 44.5546 34.6583 44.5165 34.6032C44.4893 34.5619 44.4621 34.5205 44.4349 34.4791C44.4202 34.4567 44.4055 34.4344 44.3904 34.4114C44.307 34.2846 44.2246 34.1574 44.143 34.0296C44.1257 34.0025 44.1084 33.9754 44.091 33.9484C44.0576 33.8961 44.0243 33.8437 43.9912 33.7913C43.9762 33.7678 43.9611 33.7442 43.9456 33.72C43.9323 33.6991 43.919 33.6781 43.9053 33.6565C43.894 33.6417 43.8827 33.6269 43.871 33.6116C43.7995 33.6116 43.7631 33.6503 43.7061 33.6899C43.5935 33.7683 43.5935 33.7683 43.5412 33.7683C43.5412 34.1894 43.5412 34.6105 43.5412 35.0443C43.2769 35.0443 43.0126 35.0443 42.7402 35.0443C42.7402 33.8771 42.7402 32.7099 42.7402 31.5073Z" fill="white"/>
<path d="M58.3797 31.4863C58.7062 31.4863 59.0327 31.4863 59.3691 31.4863C59.4751 31.713 59.4751 31.713 59.5152 31.8231C59.5243 31.8479 59.5334 31.8727 59.5428 31.8982C59.5524 31.9246 59.5619 31.951 59.5718 31.9782C59.5822 32.0066 59.5926 32.035 59.603 32.0634C59.625 32.1237 59.647 32.184 59.669 32.2443C59.7213 32.3879 59.7738 32.5313 59.8264 32.6747C59.8441 32.7232 59.8619 32.7716 59.8796 32.8201C59.9836 33.1044 60.0891 33.3882 60.1951 33.6718C60.2112 33.7151 60.2274 33.7583 60.2435 33.8016C60.2745 33.8847 60.3056 33.9678 60.3366 34.0509C60.4044 34.2325 60.4722 34.4142 60.5397 34.5959C60.5532 34.6324 60.5668 34.6688 60.5804 34.7053C60.5988 34.7545 60.6171 34.8039 60.6354 34.8532C60.6457 34.8808 60.656 34.9084 60.6665 34.9369C60.6883 35.001 60.6883 35.001 60.6883 35.0457C60.4007 35.0457 60.113 35.0457 59.8167 35.0457C59.7438 34.8413 59.6719 34.6371 59.6076 34.4301C59.6 34.4058 59.6 34.4058 59.5923 34.3811C59.5575 34.2679 59.5575 34.2679 59.5575 34.2175C59.1144 34.2175 58.6713 34.2175 58.2148 34.2175C58.1992 34.2839 58.1837 34.3504 58.1676 34.4189C58.1376 34.5239 58.1047 34.6281 58.0719 34.7323C58.0634 34.7601 58.0548 34.7878 58.0459 34.8164C58.0336 34.8558 58.0336 34.8558 58.021 34.896C58.0136 34.92 58.0061 34.9439 57.9984 34.9685C57.9792 35.0234 57.9792 35.0234 57.9556 35.0457C57.8911 35.0477 57.8272 35.0483 57.7626 35.0479C57.7433 35.0479 57.724 35.0479 57.7041 35.0478C57.6422 35.0477 57.5803 35.0474 57.5183 35.0471C57.4764 35.047 57.4346 35.0469 57.3927 35.0468C57.2898 35.0466 57.1869 35.0462 57.084 35.0457C57.1318 34.89 57.1842 34.7364 57.2402 34.5832C57.2526 34.5493 57.2526 34.5493 57.2651 34.5147C57.2921 34.4408 57.3191 34.3669 57.3461 34.293C57.3554 34.2674 57.3648 34.2417 57.3744 34.2153C57.5162 33.8267 57.6598 33.4387 57.8048 33.0511C57.9995 32.5305 58.1898 32.0085 58.3797 31.4863ZM58.8744 32.1131C58.8705 32.1255 58.8666 32.1379 58.8626 32.1507C58.8218 32.2815 58.7809 32.4122 58.7399 32.543C58.7247 32.5916 58.7095 32.6402 58.6944 32.6887C58.6723 32.7592 58.6503 32.8297 58.6282 32.9002C58.6175 32.9345 58.6175 32.9345 58.6065 32.9695C58.5549 33.1336 58.5015 33.297 58.4465 33.46C58.4245 33.5196 58.4245 33.5196 58.4268 33.5683C58.73 33.5683 59.0331 33.5683 59.3455 33.5683C59.3074 33.3843 59.3074 33.3843 59.2563 33.206C59.2483 33.1813 59.2403 33.1567 59.232 33.1313C59.2235 33.1055 59.215 33.0798 59.2062 33.0532C59.1974 33.0262 59.1886 32.9992 59.1795 32.9713C59.1562 32.9003 59.1329 32.8293 59.1095 32.7583C59.0856 32.6855 59.0618 32.6127 59.038 32.5399C58.9914 32.3976 58.9447 32.2554 58.8979 32.1131C58.8901 32.1131 58.8824 32.1131 58.8744 32.1131Z" fill="white"/>
<path d="M61.7777 31.5065C61.9026 31.5015 62.0274 31.4979 62.1524 31.4955C62.1949 31.4945 62.2373 31.4931 62.2798 31.4913C62.6302 31.4773 62.6302 31.4773 62.728 31.5443C62.7657 31.5973 62.7896 31.6485 62.8142 31.708C62.8367 31.7448 62.8598 31.7812 62.8834 31.8173C62.9075 31.8564 62.9316 31.8955 62.9556 31.9347C63.1173 32.1968 63.2834 32.4563 63.4503 32.7154C63.5347 32.5983 63.6144 32.48 63.6877 32.3563C63.7109 32.3172 63.7347 32.2784 63.7589 32.2399C63.8292 32.1269 63.8867 32.0171 63.9345 31.8938C64.0604 31.599 64.0604 31.599 64.2041 31.5065C64.4839 31.426 64.8141 31.4749 65.0993 31.5065C65.0176 31.6523 64.9333 31.7943 64.8373 31.9319C64.8146 31.9648 64.7919 31.9977 64.7692 32.0307C64.7577 32.0475 64.7461 32.0644 64.7342 32.0817C64.6749 32.1684 64.6169 32.2558 64.559 32.3432C64.5473 32.3608 64.5357 32.3784 64.5237 32.3965C64.4999 32.4323 64.4761 32.4682 64.4524 32.504C64.403 32.5785 64.3535 32.653 64.304 32.7275C64.2799 32.7638 64.2559 32.8001 64.2319 32.8364C64.1817 32.9124 64.1313 32.9879 64.0774 33.0615C64.0619 33.083 64.0464 33.1046 64.0304 33.1267C64.0171 33.1445 64.0038 33.1622 63.9901 33.1804C63.9619 33.2304 63.9619 33.2304 63.987 33.2836C64.0134 33.3375 64.0417 33.3852 64.0763 33.4347C64.0945 33.461 64.0945 33.461 64.1131 33.4879C64.1329 33.5162 64.1329 33.5162 64.1532 33.545C64.167 33.5649 64.1808 33.5848 64.1951 33.6053C64.2402 33.6702 64.2855 33.735 64.3308 33.7997C64.3617 33.8442 64.3927 33.8887 64.4237 33.9333C64.5648 34.136 64.7064 34.3383 64.8489 34.5401C64.8601 34.556 64.8712 34.5718 64.8827 34.5881C64.934 34.6608 64.9855 34.7335 65.0371 34.806C65.0551 34.8314 65.073 34.8568 65.091 34.8821C65.114 34.9146 65.114 34.9146 65.1376 34.9477C65.17 34.9988 65.17 34.9988 65.17 35.0436C64.3851 35.1246 64.3851 35.1246 64.1803 35.0006C64.0695 34.8847 64.0111 34.7451 63.9527 34.6002C63.9023 34.4849 63.831 34.3839 63.7595 34.2796C63.7343 34.2413 63.7093 34.2029 63.6843 34.1645C63.6726 34.1466 63.6609 34.1287 63.6489 34.1102C63.5745 33.9962 63.5006 33.8819 63.4267 33.7676C63.3442 33.8626 63.2769 33.9618 63.2095 34.0668C63.1769 34.1175 63.144 34.1678 63.1104 34.2179C63.0213 34.3518 62.9431 34.4836 62.8776 34.6293C62.7252 34.9466 62.7252 34.9466 62.5787 35.0436C62.3069 35.127 61.9845 35.0782 61.707 35.0436C61.7378 34.965 61.7741 34.8969 61.8218 34.8264C61.8352 34.8065 61.8486 34.7866 61.8624 34.7661C61.8767 34.745 61.891 34.7239 61.9058 34.7022C61.9206 34.6802 61.9355 34.6582 61.9508 34.6355C61.9951 34.57 62.0395 34.5045 62.084 34.4391C62.0957 34.4219 62.1074 34.4047 62.1195 34.3869C62.1611 34.3258 62.2027 34.2647 62.2444 34.2036C62.3337 34.0728 62.4216 33.9412 62.5095 33.8095C62.6396 33.6146 62.7724 33.4215 62.9085 33.2303C62.8004 33.0465 62.6823 32.8702 62.561 32.6941C62.4223 32.4925 62.2864 32.2892 62.1506 32.0858C62.105 32.0176 62.0592 31.9496 62.0134 31.8816C61.9981 31.8589 61.9828 31.8361 61.967 31.8127C61.9375 31.7688 61.9079 31.7249 61.8782 31.681C61.8584 31.6515 61.8584 31.6515 61.8383 31.6215C61.8265 31.6042 61.8148 31.5868 61.8027 31.5689C61.7777 31.5289 61.7777 31.5289 61.7777 31.5065Z" fill="white"/>
<path d="M47.2129 31.5078C47.9203 31.5078 48.6278 31.5078 49.3566 31.5078C49.3566 31.7147 49.3566 31.9215 49.3566 32.1346C48.9135 32.1346 48.4704 32.1346 48.0139 32.1346C48.0139 32.3858 48.0139 32.637 48.0139 32.8958C48.4259 32.8958 48.8379 32.8958 49.2624 32.8958C49.2624 33.1026 49.2624 33.3095 49.2624 33.5226C48.8504 33.5226 48.4384 33.5226 48.0139 33.5226C48.0139 33.8107 48.0139 34.0988 48.0139 34.3956C48.457 34.3956 48.9001 34.3956 49.3566 34.3956C49.3566 34.6099 49.3566 34.8241 49.3566 35.0448C48.6492 35.0448 47.9418 35.0448 47.2129 35.0448C47.2129 33.8776 47.2129 32.7104 47.2129 31.5078Z" fill="white"/>
<path d="M53.1523 31.5078C54.0852 31.5078 55.0181 31.5078 55.9793 31.5078C55.9793 31.7147 55.9793 31.9215 55.9793 32.1346C55.645 32.1346 55.3107 32.1346 54.9663 32.1346C54.9663 33.095 54.9663 34.0554 54.9663 35.0448C54.702 35.0448 54.4376 35.0448 54.1653 35.0448C54.1653 34.0845 54.1653 33.1241 54.1653 32.1346C53.831 32.1346 53.4968 32.1346 53.1523 32.1346C53.1523 31.9278 53.1523 31.7209 53.1523 31.5078Z" fill="white"/>
<path d="M66.6504 31.5078C66.9147 31.5078 67.179 31.5078 67.4514 31.5078C67.4514 32.675 67.4514 33.8423 67.4514 35.0448C67.187 35.0448 66.9227 35.0448 66.6504 35.0448C66.6504 33.8776 66.6504 32.7104 66.6504 31.5078Z" fill="white"/>
<path d="M39.9863 31.5078C40.2506 31.5078 40.515 31.5078 40.7873 31.5078C40.7873 32.675 40.7873 33.8423 40.7873 35.0448C40.523 35.0448 40.2587 35.0448 39.9863 35.0448C39.9863 33.8776 39.9863 32.7104 39.9863 31.5078Z" fill="white"/>
</svg>
