<svg width="117" height="28" viewBox="0 0 117 28" fill="none" xmlns="http://www.w3.org/2000/svg">
<path d="M1.97256 19.8375C1.17333 19.5144 0.513546 19.0621 0 18.4737L1.29577 16.7358C2.26844 17.6915 3.26153 18.171 4.27501 18.171C4.82597 18.171 5.2817 18.0656 5.6422 17.8547C6.0027 17.6439 6.17955 17.3276 6.17955 16.9025C6.17955 16.4774 5.9959 16.1305 5.6286 15.9094C5.26129 15.6883 4.85318 15.5081 4.40085 15.372L3.5302 15.1102C2.52012 14.7973 1.7651 14.3416 1.26856 13.7464C0.772019 13.1478 0.523749 12.4438 0.523749 11.6378C0.520857 11.0035 0.687593 10.38 1.00669 9.83187C1.32978 9.27071 1.81612 8.81498 2.4691 8.46808C3.12209 8.11779 3.91791 7.94434 4.85658 7.94434C5.74083 7.94434 6.50605 8.04637 7.15903 8.24702C7.82339 8.45562 8.44446 8.78286 8.99215 9.2129L7.80521 11.0596C7.47532 10.7467 7.07401 10.4985 6.60467 10.3148C6.13534 10.1312 5.70682 10.0393 5.32251 10.0393C4.84297 10.0393 4.44846 10.1482 4.13557 10.3692C3.82268 10.5903 3.66624 10.876 3.66624 11.2229C3.64924 11.648 3.80568 11.9643 4.13557 12.1751C4.46547 12.386 4.99942 12.6139 5.73403 12.8519L6.3394 13.0458C7.25766 13.3417 7.97526 13.7498 8.49221 14.2735C9.00576 14.7973 9.26423 15.4843 9.26423 16.3277C9.26423 17.467 8.85611 18.4193 8.03648 19.1811C7.21685 19.9429 6.04692 20.3238 4.51988 20.3238C3.61863 20.3238 2.76839 20.164 1.96916 19.8409L1.97256 19.8375Z" fill="white"/>
<path d="M23.5279 8.40378V20.0691H20.4398V18.3856C20.0181 18.8822 19.4467 19.3379 18.7291 19.7494C18.0115 20.1643 17.1749 20.3718 16.2192 20.3718C15.0969 20.3718 14.097 20.1371 13.2127 19.6678C12.3285 19.1984 11.6313 18.5047 11.1178 17.5864C10.6042 16.6681 10.3457 15.556 10.3457 14.25C10.3457 12.9441 10.611 11.8626 11.145 10.9001C11.6789 9.93422 12.3897 9.18941 13.2808 8.66566C14.1718 8.14191 15.1513 7.88004 16.2192 7.88004C18.1135 7.88004 19.5283 8.57723 20.467 9.97503L20.6881 8.40378H23.5279ZM19.2121 17.1885C19.7902 16.7566 20.2017 16.1444 20.4398 15.3554V12.8182C20.2187 12.1006 19.7902 11.5225 19.1576 11.0803C18.5217 10.6382 17.7938 10.4172 16.964 10.4172C15.9879 10.4172 15.1615 10.7607 14.4813 11.451C13.8011 12.1414 13.461 13.0189 13.461 14.0868C13.461 14.784 13.6277 15.42 13.9576 15.9913C14.2875 16.5627 14.7296 17.0116 15.2805 17.3415C15.8315 17.6714 16.4301 17.8381 17.0728 17.8381C17.9197 17.8381 18.6305 17.6238 19.2086 17.1885H19.2121ZM28.5511 0V20.0691H25.463V0H28.5511ZM39.6655 16.8178L41.0735 19.1066C40.4477 19.4943 39.7777 19.8004 39.0601 20.0317C38.3425 20.263 37.6521 20.3752 36.9923 20.3752C35.6489 20.3752 34.4858 20.1099 33.5029 19.576C32.52 19.042 31.765 18.3074 31.2413 17.3687C30.7175 16.4301 30.4556 15.3554 30.4556 14.1412C30.4556 13.0019 30.7481 11.9544 31.3399 10.9987C31.9283 10.043 32.7275 9.28463 33.741 8.72348C34.7511 8.16232 35.8564 7.88344 37.0501 7.88344C38.6316 7.88344 39.9477 8.34937 40.9952 9.27443C42.0427 10.2029 42.7433 11.5123 43.0902 13.2059L34.0981 16.2396C34.4034 16.7134 34.8327 17.0945 35.3394 17.3415C35.853 17.6 36.4243 17.7258 37.0501 17.7258C37.914 17.7258 38.788 17.4231 39.6689 16.8144L39.6655 16.8178ZM34.411 11.3286C33.7954 12.0088 33.4859 12.8931 33.4859 13.978C33.4859 14.182 33.4961 14.3351 33.5131 14.4473L39.6348 12.2673C39.3968 11.6993 39.0465 11.23 38.5873 10.8593C38.1282 10.492 37.5296 10.3083 36.795 10.3083C35.819 10.3083 35.0265 10.6484 34.4076 11.3286H34.411Z" fill="white"/>
<path d="M45.692 19.8375C44.8927 19.5144 44.2329 19.0621 43.7194 18.4737L45.0152 16.7358C45.9878 17.6915 46.9809 18.171 47.9944 18.171C48.5454 18.171 49.0011 18.0656 49.3616 17.8547C49.7221 17.6439 49.8989 17.3276 49.8989 16.9025C49.8989 16.4774 49.7153 16.1305 49.348 15.9094C48.9807 15.6883 48.5726 15.5081 48.1202 15.372L47.2496 15.1102C46.2395 14.7973 45.4845 14.3416 44.988 13.7464C44.4914 13.1478 44.2431 12.4438 44.2431 11.6378C44.2402 11.0035 44.407 10.38 44.7261 9.83187C45.0492 9.27071 45.5355 8.81498 46.1885 8.46808C46.8415 8.11779 47.6373 7.94434 48.576 7.94434C49.4602 7.94434 50.2254 8.04637 50.8784 8.24702C51.5428 8.45562 52.1639 8.78286 52.7115 9.2129L51.5246 11.0596C51.1947 10.7467 50.7934 10.4985 50.3241 10.3148C49.8547 10.1312 49.4262 10.0393 49.0419 10.0393C48.5624 10.0393 48.1679 10.1482 47.855 10.3692C47.5421 10.5903 47.3856 10.876 47.3856 11.2229C47.3686 11.648 47.5251 11.9643 47.855 12.1751C48.1849 12.386 48.7188 12.6139 49.4534 12.8519L50.0588 13.0458C50.977 13.3417 51.6947 13.7498 52.2116 14.2735C52.7251 14.7973 52.9836 15.4843 52.9836 16.3277C52.9836 17.467 52.5755 18.4193 51.7559 19.1811C50.9362 19.9429 49.7663 20.3238 48.2393 20.3238C47.338 20.3238 46.4878 20.164 45.6885 19.8409L45.692 19.8375Z" fill="white"/>
<path d="M55.1058 26.4835C54.5175 26.4835 54.0617 26.1604 54.0617 25.64H54.5787C54.5991 25.8815 54.7691 26.0753 55.1058 26.0753C55.4425 26.0753 55.6364 25.8917 55.6364 25.6434C55.6364 24.9326 54.0719 25.3917 54.0719 24.3068C54.0719 23.7899 54.4835 23.4668 55.0854 23.4668C55.65 23.4668 56.0479 23.7627 56.0887 24.2694H55.5548C55.5378 24.0688 55.3643 23.8885 55.0582 23.8783C54.7793 23.8681 54.5617 24.0041 54.5617 24.2898C54.5617 24.9564 56.1227 24.5415 56.1227 25.6162C56.1227 26.0583 55.7622 26.4801 55.1058 26.4801V26.4835Z" fill="white"/>
<path d="M58.2279 24.0791C58.6224 24.0791 58.8945 24.2662 59.0373 24.4566V24.1165H59.5237V26.453H59.0373V26.1061C58.8877 26.3067 58.6088 26.4904 58.2177 26.4904C57.6123 26.4904 57.126 25.9938 57.126 25.2728C57.126 24.5518 57.6123 24.0791 58.2279 24.0791ZM58.3299 24.4974C57.9694 24.4974 57.6225 24.7695 57.6225 25.2728C57.6225 25.7762 57.9694 26.0687 58.3299 26.0687C58.6904 26.0687 59.0373 25.783 59.0373 25.2796C59.0373 24.7763 58.6938 24.494 58.3299 24.494V24.4974Z" fill="white"/>
<path d="M60.7514 23.3164H61.2344V26.4521H60.7514V23.3164Z" fill="white"/>
<path d="M63.4654 26.4904C62.7954 26.4904 62.2989 26.0143 62.2989 25.283C62.2989 24.5518 62.775 24.0791 63.4654 24.0791C64.1558 24.0791 64.6013 24.5416 64.6013 25.2286C64.6013 25.3103 64.5979 25.3851 64.5843 25.4667H62.7988C62.8328 25.851 63.1083 26.0857 63.4654 26.0857C63.7613 26.0857 63.928 25.9428 64.0164 25.7592H64.5367C64.4041 26.1673 64.0368 26.4938 63.4654 26.4938V26.4904ZM62.8056 25.0756H64.098C64.0878 24.7151 63.8055 24.4872 63.445 24.4872C63.1185 24.4872 62.8566 24.7083 62.8056 25.0756Z" fill="white"/>
<path d="M66.5161 26.4903C65.9549 26.4903 65.5638 26.1604 65.54 25.7353H66.0399C66.057 25.9257 66.2406 26.0822 66.5059 26.0822C66.7712 26.0822 66.9344 25.9631 66.9344 25.8033C66.9344 25.3441 65.5774 25.6094 65.5774 24.7524C65.5774 24.3783 65.9243 24.079 66.4753 24.079C67.0262 24.079 67.3527 24.3613 67.3765 24.8306H66.8936C66.8766 24.6265 66.7201 24.4871 66.4583 24.4871C66.1964 24.4871 66.0638 24.5925 66.0638 24.749C66.0638 25.2183 67.3833 24.9564 67.4071 25.7999C67.4071 26.1944 67.0636 26.4903 66.5127 26.4903H66.5161ZM70.2129 23.5076H70.6959V25.385C70.6959 25.8441 70.9543 26.0584 71.3625 26.0584C71.7706 26.0584 72.0325 25.8407 72.0325 25.385V23.5076H72.5154V25.3782C72.5154 26.1298 71.9712 26.4835 71.3591 26.4835C70.7469 26.4835 70.2129 26.1264 70.2129 25.3782V23.5076ZM75.0287 24.079C75.6443 24.079 76.1272 24.5551 76.1272 25.2727C76.1272 25.9903 75.6443 26.4903 75.0287 26.4903C74.6444 26.4903 74.3689 26.2964 74.2159 26.1128V27.5616H73.7329V24.1164H74.2159V24.4599C74.3655 24.266 74.6478 24.079 75.0287 24.079ZM74.9233 24.4973C74.5628 24.4973 74.2159 24.783 74.2159 25.2829C74.2159 25.7829 74.5628 26.072 74.9233 26.072C75.2838 26.072 75.6341 25.7795 75.6341 25.2761C75.6341 24.7728 75.2872 24.5007 74.9233 24.5007V24.4973ZM77.1985 23.3172H77.6815V26.4529H77.1985V23.3172ZM78.8446 23.4974C78.8441 23.4567 78.8518 23.4162 78.8672 23.3785C78.8826 23.3407 78.9054 23.3064 78.9342 23.2776C78.963 23.2487 78.9973 23.226 79.0351 23.2106C79.0729 23.1952 79.1133 23.1875 79.1541 23.1879C79.1947 23.1875 79.235 23.1952 79.2725 23.2106C79.3101 23.226 79.3442 23.2489 79.3728 23.2778C79.4013 23.3066 79.4238 23.341 79.4388 23.3787C79.4538 23.4164 79.4611 23.4568 79.4602 23.4974C79.4602 23.6709 79.3241 23.8069 79.1541 23.8069C78.984 23.8069 78.8446 23.6709 78.8446 23.4974ZM78.9092 24.1164H79.3921V26.4529H78.9092V24.1164ZM80.6777 24.5109H80.4022V24.1164H80.6777V23.9498C80.6777 23.4124 80.9532 23.1777 81.562 23.1777V23.579C81.2661 23.579 81.164 23.6811 81.164 23.9464V24.113H81.596V24.5075H81.164V26.4495H80.6777V24.5075V24.5109Z" fill="white"/>
<path d="M82.6945 24.5112H82.419V24.1167H82.6945V23.5352H83.1808V24.1167H83.7488V24.5112H83.1808V25.8036C83.1808 25.977 83.2488 26.0485 83.4529 26.0485H83.7488V26.4498H83.3679C82.953 26.4498 82.6945 26.2763 82.6945 25.8002V24.5078V24.5112Z" fill="white"/>
<path d="M89.1937 24.354H88.6121C88.4557 24.0581 88.1768 23.9085 87.8231 23.9085C87.2382 23.9085 86.813 24.3234 86.813 24.973C86.813 25.6225 87.2382 26.0409 87.8231 26.0409C88.3571 26.0409 88.6938 25.7178 88.7652 25.2212H87.6599V24.8369H89.2821V25.2144C89.1937 25.898 88.6155 26.4762 87.8231 26.4762C87.0307 26.4762 86.3199 25.8572 86.3199 24.973C86.3199 24.0887 86.9933 23.4697 87.8231 23.4697C88.4387 23.4697 88.9692 23.7792 89.1937 24.3574V24.354ZM92.4654 26.4524H91.9825V26.1735C91.8294 26.3741 91.5676 26.4864 91.2921 26.4864C90.7445 26.4864 90.3296 26.1429 90.3296 25.4899V24.1159H90.8092V25.4185C90.8092 25.847 91.0438 26.0681 91.3941 26.0681C91.7444 26.0681 91.9825 25.847 91.9825 25.4185V24.1159H92.4654V26.4524Z" fill="white"/>
<path d="M94.6319 24.0791C95.0264 24.0791 95.2984 24.2662 95.4413 24.4566V24.1165H95.9276V26.453H95.4413V26.1061C95.2916 26.3067 95.0128 26.4904 94.6216 26.4904C94.0163 26.4904 93.5299 25.9938 93.5299 25.2728C93.5299 24.5518 94.0163 24.0791 94.6319 24.0791ZM94.7339 24.4974C94.3734 24.4974 94.0265 24.7695 94.0265 25.2728C94.0265 25.7762 94.3734 26.0687 94.7339 26.0687C95.0944 26.0687 95.4413 25.783 95.4413 25.2796C95.4413 24.7763 95.0978 24.494 94.7339 24.494V24.4974Z" fill="white"/>
<path d="M97.6383 26.453H97.1554V24.1165H97.6383V24.4566C97.7744 24.2219 98.0056 24.0791 98.3389 24.0791V24.579H98.2165C97.8594 24.579 97.6417 24.7287 97.6417 25.2218V26.4496L97.6383 26.453Z" fill="white"/>
<path d="M100.318 24.0791C100.713 24.0791 100.985 24.2662 101.128 24.4566V24.1165H101.614V26.453H101.128V26.1061C100.978 26.3067 100.699 26.4904 100.308 26.4904C99.7027 26.4904 99.2164 25.9938 99.2164 25.2728C99.2164 24.5518 99.7027 24.0791 100.318 24.0791ZM100.42 24.4974C100.06 24.4974 99.7129 24.7695 99.7129 25.2728C99.7129 25.7762 100.06 26.0687 100.42 26.0687C100.781 26.0687 101.128 25.783 101.128 25.2796C101.128 24.7763 100.784 24.494 100.42 24.494V24.4974Z" fill="white"/>
<path d="M104.498 25.1465C104.498 24.718 104.263 24.4969 103.913 24.4969C103.563 24.4969 103.325 24.718 103.325 25.1465V26.4525H102.842V24.116H103.325V24.3813C103.481 24.1908 103.74 24.0752 104.019 24.0752C104.566 24.0752 104.978 24.4187 104.978 25.0717V26.4491H104.498V25.1431V25.1465Z" fill="white"/>
<path d="M106.26 24.5112H105.984V24.1167H106.26V23.5352H106.746V24.1167H107.314V24.5112H106.746V25.8036C106.746 25.977 106.814 26.0485 107.018 26.0485H107.314V26.4498H106.933C106.518 26.4498 106.26 26.2763 106.26 25.8002V24.5078V24.5112Z" fill="white"/>
<path d="M109.355 26.4904C108.685 26.4904 108.188 26.0143 108.188 25.283C108.188 24.5518 108.664 24.0791 109.355 24.0791C110.045 24.0791 110.491 24.5416 110.491 25.2286C110.491 25.3103 110.487 25.3851 110.474 25.4667H108.688C108.722 25.851 108.998 26.0857 109.355 26.0857C109.651 26.0857 109.817 25.9428 109.906 25.7592H110.426C110.293 26.1673 109.926 26.4938 109.355 26.4938V26.4904ZM108.695 25.0756H109.987C109.977 24.7151 109.695 24.4872 109.334 24.4872C109.008 24.4872 108.746 24.7083 108.695 25.0756Z" fill="white"/>
<path d="M112.562 26.4904C111.892 26.4904 111.395 26.0143 111.395 25.283C111.395 24.5518 111.871 24.0791 112.562 24.0791C113.252 24.0791 113.698 24.5416 113.698 25.2286C113.698 25.3103 113.694 25.3851 113.681 25.4667H111.895C111.929 25.851 112.205 26.0857 112.562 26.0857C112.858 26.0857 113.024 25.9428 113.113 25.7592H113.633C113.5 26.1673 113.133 26.4938 112.562 26.4938V26.4904ZM111.902 25.0756H113.194C113.184 24.7151 112.902 24.4872 112.541 24.4872C112.215 24.4872 111.953 24.7083 111.902 25.0756Z" fill="white"/>
<path d="M115.708 24.0788C116.014 24.0788 116.333 24.2217 116.514 24.4427V23.3136H117V26.4493H116.514V26.099C116.364 26.3099 116.085 26.4901 115.704 26.4901C115.089 26.4901 114.602 25.9936 114.602 25.2726C114.602 24.5516 115.089 24.0788 115.708 24.0788ZM115.806 24.4971C115.446 24.4971 115.099 24.7692 115.099 25.2726C115.099 25.7759 115.446 26.0684 115.806 26.0684C116.167 26.0684 116.514 25.7827 116.514 25.2794C116.514 24.776 116.17 24.4937 115.806 24.4937V24.4971ZM0 25.2011H52.987V25.5412H0V25.2011ZM62.792 20.0011C62.0472 20.2493 61.299 20.3752 60.544 20.3752C59.2584 20.3752 58.1225 20.1269 57.1362 19.6304C56.1533 19.1338 55.3949 18.423 54.861 17.4946C54.327 16.5661 54.0617 15.4778 54.0617 14.2262C54.0617 12.9747 54.3474 11.9136 54.9188 10.9851C55.4867 10.0566 56.2486 9.34244 57.194 8.8493C58.1395 8.35276 59.1564 8.10449 60.2413 8.10449C62.0812 8.10449 63.598 8.60103 64.7918 9.59412L63.2477 11.6075C62.8974 11.332 62.4893 11.0973 62.02 10.9035C61.5507 10.7096 61.0507 10.6144 60.5168 10.6144C59.5781 10.6144 58.7823 10.9579 58.1327 11.6483C57.4797 12.3387 57.1532 13.1957 57.1532 14.2262C57.1532 15.2567 57.4967 16.1172 58.1871 16.8042C58.8775 17.4946 59.755 17.8381 60.8229 17.8381C61.7411 17.8381 62.5131 17.5796 63.1389 17.066L64.683 18.9978C64.1694 19.4229 63.5402 19.7562 62.792 20.0045V20.0011Z" fill="white"/>
<path d="M81.6606 7.98926H70.8217C67.4314 7.98926 64.683 10.7369 64.683 14.1263C64.683 17.5157 67.4314 20.2633 70.8217 20.2633H81.6606C85.0509 20.2633 87.7993 17.5157 87.7993 14.1263C87.7993 10.7369 85.0509 7.98926 81.6606 7.98926Z" fill="white"/>
<path d="M81.6641 18.8212C84.2561 18.8212 86.3574 16.72 86.3574 14.1279C86.3574 11.5358 84.2561 9.43457 81.6641 9.43457C79.072 9.43457 76.9708 11.5358 76.9708 14.1279C76.9708 16.72 79.072 18.8212 81.6641 18.8212Z" fill="#010313"/>
</svg>
