<svg width="94" height="26" viewBox="0 0 94 26" fill="none" xmlns="http://www.w3.org/2000/svg">
<g clip-path="url(#clip0_142_581)">
<mask id="mask0_142_581" style="mask-type:luminance" maskUnits="userSpaceOnUse" x="0" y="0" width="94" height="26">
<path d="M93.808 0H0V25.9363H93.808V0Z" fill="white"/>
</mask>
<g mask="url(#mask0_142_581)">
<path d="M5.09935 25.9443C4.1211 25.9478 3.14642 25.826 2.1991 25.582C1.42039 25.4048 0.677001 25.0981 0 24.6745L1.13729 22.2221C1.73505 22.5839 2.38036 22.8605 3.05458 23.0441C3.76299 23.2515 4.49708 23.3582 5.23522 23.3611C6.02361 23.3611 6.57716 23.2655 6.91264 23.0759C7.06071 23.0043 7.18554 22.8922 7.27278 22.7528C7.36003 22.6133 7.40614 22.4521 7.4058 22.2875C7.40931 22.1577 7.37504 22.0295 7.30716 21.9188C7.23925 21.808 7.14067 21.7194 7.02335 21.6635C6.70258 21.5054 6.35903 21.3983 6.00516 21.3465C5.58077 21.2744 5.11781 21.2006 4.61458 21.1284C4.11135 21.0563 3.60813 20.9607 3.09316 20.8315C2.60121 20.7165 2.12913 20.5288 1.69252 20.2746C1.27305 20.0312 0.922612 19.6849 0.674322 19.2682C0.39828 18.7663 0.265401 18.1983 0.290193 17.626C0.278723 16.9154 0.506802 16.2218 0.937677 15.6567C1.42654 15.0466 2.07349 14.5825 2.808 14.3148C3.74556 13.9649 4.74137 13.7975 5.7418 13.8216C6.56617 13.8244 7.38802 13.9127 8.19419 14.085C8.92551 14.2224 9.6286 14.4815 10.2742 14.8515L9.13522 17.2821C8.60281 16.9616 8.02227 16.7288 7.41587 16.5927C6.86494 16.4712 6.30262 16.4088 5.73845 16.4065C4.98026 16.4065 4.42558 16.5083 4.07445 16.7118C3.72332 16.9153 3.54829 17.1781 3.54942 17.5002C3.54434 17.635 3.57777 17.7684 3.6458 17.8848C3.71382 18.0014 3.81365 18.096 3.93355 18.1577C4.25244 18.326 4.59527 18.4442 4.95006 18.5083C5.37277 18.5955 5.83742 18.6761 6.34064 18.7381C6.85341 18.8049 7.36154 18.9035 7.86206 19.0333C8.34907 19.1548 8.817 19.3427 9.25264 19.5919C9.66779 19.8315 10.0175 20.1696 10.2708 20.5766C10.5536 21.0719 10.6903 21.6372 10.665 22.207C10.6711 22.9036 10.4398 23.5817 10.0092 24.1293C9.51006 24.7349 8.85533 25.1932 8.11535 25.4545C7.28894 25.7754 6.28361 25.9388 5.09935 25.9443Z" fill="white"/>
<path d="M27.2109 25.7606V13.9834H30.6262V25.7606H27.2109Z" fill="white"/>
<path d="M33.8008 25.7599L33.8142 12.5301L37.2177 9.51074V25.7599H33.8008Z" fill="white"/>
<path d="M40.3906 25.7598V9.51562L43.8193 12.535L43.8059 25.7648L40.3906 25.7598Z" fill="white"/>
<path d="M50.9389 25.9443C49.9607 25.948 48.9859 25.8262 48.0387 25.582C47.2595 25.4045 46.5157 25.0977 45.8379 24.6745L46.9769 22.2221C47.574 22.5839 48.2188 22.8605 48.8925 23.0441C49.6008 23.2514 50.3349 23.3582 51.0731 23.3611C51.8615 23.3611 52.415 23.2655 52.7505 23.0759C52.8986 23.0043 53.0234 22.8922 53.1107 22.7529C53.1979 22.6133 53.244 22.4521 53.2437 22.2875C53.247 22.1575 53.2125 22.0292 53.1444 21.9185C53.0761 21.8076 52.9772 21.7191 52.8596 21.6635C52.539 21.5049 52.1953 21.3978 51.8414 21.3465C51.4187 21.2744 50.9557 21.2006 50.4525 21.1284C49.9492 21.0563 49.446 20.9607 48.9294 20.8315C48.4376 20.716 47.9657 20.5283 47.5287 20.2746C47.1092 20.0312 46.7588 19.6849 46.5105 19.2682C46.2198 18.6997 46.0905 18.0625 46.137 17.4255C46.1834 16.7888 46.4037 16.177 46.7739 15.6567C47.2635 15.0466 47.9108 14.5825 48.6459 14.3148C49.5834 13.9649 50.5793 13.7975 51.5797 13.8216C52.404 13.8245 53.2259 13.9128 54.0321 14.085C54.7629 14.2221 55.4656 14.4812 56.1104 14.8515L54.9647 17.267C54.433 16.9461 53.8529 16.7134 53.247 16.5776C52.696 16.4563 52.1337 16.3938 51.5696 16.3914C50.8098 16.3914 50.2562 16.4937 49.9056 16.6967C49.5551 16.8997 49.3806 17.1647 49.3806 17.4851C49.3756 17.6196 49.4088 17.753 49.4765 17.8692C49.5443 17.9856 49.6436 18.0806 49.763 18.1426C50.0824 18.311 50.426 18.4293 50.7812 18.4932C51.204 18.5804 51.6686 18.661 52.1718 18.723C52.6846 18.7898 53.1927 18.8884 53.6932 19.0182C54.1802 19.1397 54.6482 19.3276 55.0838 19.5768C55.4988 19.816 55.8481 20.1544 56.1003 20.5615C56.3837 21.0566 56.5204 21.6221 56.4945 22.1919C56.5043 22.8938 56.2728 23.5776 55.8387 24.1293C55.3391 24.7346 54.6846 25.1927 53.9449 25.4545C52.9815 25.8009 51.9625 25.967 50.9389 25.9443Z" fill="white"/>
<path d="M64.4488 25.9449C63.2238 25.9716 62.0105 25.701 60.9128 25.1565C59.9441 24.6706 59.1307 23.9235 58.5644 22.9994C57.9988 22.0589 57.7083 20.9784 57.7257 19.8811C57.7044 18.778 57.9889 17.6905 58.5477 16.7393C59.0875 15.8338 59.8633 15.0922 60.792 14.5938C61.7708 14.0898 62.8546 13.8232 63.9555 13.8156C65.0564 13.808 66.1437 14.0597 67.1293 14.5502C68.0459 15.0296 68.8081 15.7582 69.3284 16.652C69.8686 17.5634 70.1386 18.6544 70.1386 19.9247C70.1386 20.0555 70.1386 20.2048 70.1168 20.3725C70.095 20.5403 70.0883 20.698 70.0732 20.8439H60.5119V18.8427H68.2834L66.97 19.4349C66.9837 18.879 66.8554 18.3289 66.5976 17.8363C66.3596 17.3934 66.0029 17.0258 65.5677 16.7745C65.1008 16.5118 64.5718 16.3796 64.0362 16.392C63.4971 16.3807 62.9645 16.5127 62.4929 16.7745C62.0508 17.0256 61.69 17.3981 61.4529 17.848C61.1943 18.3518 61.0661 18.9124 61.0806 19.4785V20.0035C61.067 20.5966 61.2136 21.1826 61.5049 21.6994C61.7836 22.1848 62.2029 22.5743 62.7077 22.8165C63.2795 23.0829 63.9053 23.2139 64.536 23.199C65.1003 23.2104 65.6616 23.1143 66.19 22.9155C66.6751 22.7179 67.1173 22.4281 67.4917 22.0617L69.3083 24.031C68.7512 24.6563 68.0531 25.1399 67.2719 25.4417C66.3718 25.7891 65.4133 25.9599 64.4488 25.9449Z" fill="white"/>
<path d="M86.9123 25.9451C86.0075 25.9617 85.1114 25.7664 84.2955 25.3748C83.5316 24.9983 82.9068 24.3893 82.5107 23.6353C82.088 22.8524 81.8762 21.856 81.875 20.6461V13.9834H85.2919V20.1345C85.2919 21.1129 85.4999 21.832 85.9159 22.2917C86.3319 22.7513 86.919 22.9811 87.6772 22.9811C88.1657 22.9911 88.6486 22.8757 89.0795 22.6456C89.5017 22.4032 89.8382 22.0357 90.0423 21.5938C90.2936 21.0339 90.4136 20.424 90.3929 19.8108V13.9834H93.8065V25.7606H90.5674V22.5215L91.1595 23.4625C90.7922 24.2484 90.1816 24.8953 89.4184 25.3077C88.6504 25.729 87.7882 25.9483 86.9123 25.9451Z" fill="white"/>
<path d="M30.628 9.51782H27.2128V12.5305L30.628 9.51782Z" fill="white"/>
<path d="M71.0176 16.8733V14.2448H79.1833V16.8733H71.0176ZM77.2358 25.9313C75.849 25.9313 74.7688 25.5774 73.995 24.8695C73.2212 24.1617 72.8342 23.1071 72.8342 21.7059V9.48926L76.2494 12.5254V21.6673C76.2364 21.8753 76.2644 22.084 76.332 22.2811C76.3996 22.4784 76.5056 22.6602 76.6436 22.8164C76.7849 22.9544 76.9531 23.0618 77.138 23.1317C77.3227 23.2015 77.5199 23.2324 77.7172 23.2223C78.2132 23.2366 78.6992 23.0822 79.096 22.7845L80.0153 25.1916C79.634 25.4536 79.2074 25.643 78.7572 25.7502C78.2602 25.8782 77.7491 25.9434 77.2358 25.9448V25.9313Z" fill="white"/>
<path d="M12.7635 25.7601V12.5252L16.1788 9.50586V25.7601H12.7635ZM15.5866 23.353L15.6739 19.193L21.1691 13.9829H25.2418L19.9647 19.3506L18.1916 20.7949L15.5866 23.353ZM21.5414 25.7601L17.5576 20.8133L19.703 18.1647L25.6796 25.7601H21.5414Z" fill="white"/>
<path d="M33.8145 9.08155L39.0128 0L43.8186 9.08155L38.8165 4.70684L33.8145 9.08155Z" fill="white"/>
</g>
</g>
<defs>
<clipPath id="clip0_142_581">
<rect width="93.9355" height="26" fill="white"/>
</clipPath>
</defs>
</svg>
