<svg width="112" height="26" viewBox="0 0 112 26" fill="none" xmlns="http://www.w3.org/2000/svg">
<g clip-path="url(#clip0_407_703)">
<path d="M65.7429 0C67.9491 0 70.1554 0 72.4286 0C72.4745 4.05935 72.5205 8.11871 72.5679 12.3011C74.5916 10.3847 74.5916 10.3847 76.3578 8.19421C76.8649 7.50659 77.2983 7.07334 78.1567 6.90273C79.3618 6.78708 80.5671 6.82789 81.7748 6.87407C82.2762 6.89139 82.7777 6.89892 83.2793 6.90734C84.2591 6.9252 85.2384 6.95374 86.2179 6.98925C86.1108 7.49856 85.9802 7.68139 85.5737 8.01143C85.19 8.33272 84.8257 8.65711 84.4768 9.01613C84.1438 9.35635 83.8012 9.67501 83.4409 9.98589C83.0497 10.324 82.68 10.6738 82.3179 11.043C81.8721 11.4974 81.4066 11.9163 80.925 12.3317C80.5372 12.6783 80.1773 13.0499 79.8134 13.4215C79.4462 13.7836 79.0581 14.1169 78.6632 14.4481C78.404 14.6904 78.2041 14.9467 78 15.2366C78.0812 15.3317 78.1623 15.4268 78.2459 15.5249C79.0076 16.4286 79.73 17.3531 80.4334 18.3032C81.0062 19.0761 81.5949 19.8347 82.19 20.5904C82.9037 21.4969 83.6083 22.4105 84.3138 23.3234C84.535 23.6089 84.7574 23.8935 84.9801 24.1779C85.1083 24.3426 85.2365 24.5073 85.3647 24.672C85.4764 24.8148 85.5881 24.9575 85.7032 25.1045C85.9393 25.4409 85.9393 25.4409 85.9393 25.7204C84.874 25.7667 83.8089 25.7984 82.7428 25.8203C82.3806 25.8294 82.0186 25.8417 81.6567 25.8575C78.4835 25.9923 78.4835 25.9923 77.7538 25.3514C77.373 24.912 77.1348 24.4267 76.8857 23.9032C76.7315 23.6789 76.5729 23.4573 76.4086 23.2403C76.2741 23.0481 76.1401 22.8555 76.0065 22.6626C75.8061 22.3752 75.6056 22.0878 75.4049 21.8006C75.2759 21.6153 75.1475 21.4296 75.0198 21.2434C74.7005 20.7499 74.7005 20.7499 74.2393 20.4086C74.0327 20.0931 73.8625 19.7619 73.6821 19.4301C73.4938 19.5179 73.3086 19.6124 73.125 19.7097C73.0284 19.7562 72.9317 19.8028 72.8321 19.8507C72.4058 20.2997 72.4838 20.7949 72.483 21.3931C72.4808 21.5026 72.4786 21.6121 72.4764 21.7249C72.4691 22.1335 72.4665 22.5423 72.4634 22.9509C72.4519 23.8649 72.4404 24.7788 72.4286 25.7204C70.2223 25.7204 68.016 25.7204 65.7429 25.7204C65.7429 17.2327 65.7429 8.74495 65.7429 0Z" fill="white"/>
<path d="M58.4576 7.47937C60.1301 8.55664 60.9138 10.1122 61.3378 12.0107C61.547 13.1991 61.4753 14.4304 61.4658 15.6322C61.465 15.9242 61.4644 16.2162 61.464 16.5082C61.4624 17.2709 61.4584 18.0336 61.4537 18.7963C61.4486 19.7145 61.4468 20.6328 61.4443 21.551C61.4403 22.9408 61.4323 24.3305 61.425 25.7202C59.2187 25.7202 57.0124 25.7202 54.7393 25.7202C54.7357 24.8638 54.7321 24.0073 54.7284 23.1249C54.7249 22.5815 54.7212 22.0381 54.717 21.4947C54.7103 20.6327 54.7041 19.7707 54.7016 18.9087C54.6994 18.2135 54.6946 17.5183 54.688 16.8231C54.6859 16.5583 54.6848 16.2934 54.6847 16.0285C54.6844 15.6567 54.6806 15.2851 54.6761 14.9133C54.6768 14.8044 54.6775 14.6955 54.6782 14.5834C54.6636 13.8122 54.4881 13.3532 54.0429 12.7202C53.2814 12.2732 52.6374 12.1878 51.7773 12.3664C50.9811 12.5886 50.6008 12.8695 50.1429 13.5589C49.9704 14.0781 49.979 14.5628 49.975 15.1038C49.9736 15.2183 49.9722 15.3329 49.9708 15.451C49.9664 15.8299 49.963 16.2088 49.9595 16.5878C49.9566 16.8504 49.9537 17.1131 49.9507 17.3757C49.9431 18.0672 49.9362 18.7587 49.9295 19.4502C49.9212 20.2798 49.912 21.1093 49.9029 21.9389C49.8893 23.1993 49.8769 24.4598 49.8643 25.7202C47.658 25.7202 45.4517 25.7202 43.1786 25.7202C43.1754 23.2986 43.1729 20.877 43.1714 18.4554C43.1706 17.3311 43.1697 16.2068 43.1681 15.0825C43.1667 14.1029 43.1658 13.1233 43.1655 12.1437C43.1653 11.6247 43.1649 11.1057 43.1639 10.5866C43.1627 10.0082 43.1627 9.42976 43.1628 8.85132C43.1623 8.67797 43.1618 8.50463 43.1613 8.32604C43.1614 8.16942 43.1616 8.01279 43.1618 7.85143C43.1617 7.71445 43.1616 7.57748 43.1614 7.43636C43.1786 7.12881 43.1786 7.12881 43.3179 6.98903C43.5053 6.97535 43.6934 6.97114 43.8813 6.97094C44.0007 6.9705 44.1202 6.97006 44.2432 6.96961C44.3731 6.96989 44.5029 6.97017 44.6367 6.97046C44.8353 6.97026 44.8353 6.97026 45.038 6.97006C45.3185 6.96996 45.5991 6.97022 45.8796 6.97081C46.3107 6.97155 46.7417 6.97081 47.1727 6.96992C47.4446 6.97001 47.7164 6.97019 47.9883 6.97046C48.1831 6.97004 48.1831 6.97004 48.3818 6.96961C48.5012 6.97005 48.6207 6.97049 48.7438 6.97094C48.8494 6.97105 48.9551 6.97116 49.064 6.97128C49.3072 6.98903 49.3072 6.98903 49.4464 7.12881C49.5014 7.38686 49.5498 7.64633 49.5944 7.90637C49.619 8.04782 49.6436 8.18927 49.669 8.33501C49.6967 8.49907 49.6967 8.49907 49.725 8.66645C49.8485 8.54536 49.9721 8.42427 50.0993 8.29951C52.3171 6.38657 55.9278 6.05909 58.4576 7.47937Z" fill="white"/>
<path d="M36.4928 8.24713C38.3528 9.57335 39.5464 11.7562 39.975 13.9783C40.1602 15.3034 40.1426 16.5675 39.975 17.8923C38.7277 18.0482 37.4909 18.0525 36.2366 18.0506C36.0116 18.0507 35.7866 18.0509 35.5616 18.051C35.093 18.0513 34.6244 18.051 34.1558 18.0503C33.5551 18.0495 32.9543 18.05 32.3536 18.0508C31.8903 18.0513 31.4271 18.0511 30.9638 18.0508C30.7422 18.0507 30.5205 18.0508 30.2989 18.0511C29.9903 18.0515 29.6816 18.0509 29.373 18.0502C29.1975 18.0501 29.022 18.0499 28.8411 18.0498C28.4143 18.0321 28.4143 18.0321 27.9964 17.8923C28.2493 19.1036 28.5975 20.0649 29.6156 20.819C30.4702 21.2027 31.3298 21.2414 32.2098 20.9151C32.3846 20.8412 32.5589 20.7657 32.7321 20.688C32.8413 20.6447 32.9504 20.6015 33.0629 20.5569C33.3539 20.366 33.4353 20.1666 33.5678 19.8493C33.7071 19.7095 33.7071 19.7095 33.9618 19.6927C34.0729 19.693 34.1839 19.6933 34.2983 19.6936C34.4865 19.6936 34.4865 19.6936 34.6785 19.6937C34.8149 19.6944 34.9513 19.6951 35.0918 19.6958C35.2307 19.696 35.3697 19.6962 35.5128 19.6964C35.9585 19.6972 36.4041 19.699 36.8497 19.7008C37.1511 19.7015 37.4524 19.7021 37.7537 19.7027C38.4942 19.7042 39.2346 19.7066 39.975 19.7095C39.7155 21.4756 38.259 23.0222 36.9085 24.1226C34.5236 25.847 32.1756 26.3677 29.2919 25.907C26.7768 25.4214 24.6431 24.115 23.1727 22.0001C22.5745 21.0947 22.0071 20.1161 22.0071 19.0106C21.9152 18.9644 21.8233 18.9183 21.7285 18.8708C21.1432 16.377 21.6199 13.2348 22.9506 11.0581C23.1847 10.719 23.4263 10.3901 23.6785 10.0643C23.7514 9.95928 23.8243 9.85423 23.8994 9.746C23.9644 9.66653 24.0294 9.58707 24.0964 9.5052C24.1883 9.5052 24.2803 9.5052 24.375 9.5052C24.4189 9.386 24.4189 9.386 24.4637 9.2644C25.2838 7.88946 27.3623 7.2657 28.7848 6.83454C31.4504 6.1889 34.2217 6.78768 36.4928 8.24713ZM28.4143 13.2794C28.0923 13.8058 28.0923 13.8058 27.9964 14.3977C29.9729 14.3977 31.9493 14.3977 33.9857 14.3977C33.8605 13.5613 33.8605 13.5613 33.4024 12.9649C33.3229 12.8719 33.2433 12.7789 33.1614 12.6831C31.7385 11.4936 29.6032 12.1134 28.4143 13.2794Z" fill="white"/>
<path d="M95.9665 7.13703C96.2361 7.35636 96.4755 7.58886 96.7168 7.8392C96.8094 7.92967 96.902 8.02013 96.9974 8.11334C97.3009 8.41181 97.5991 8.71507 97.8972 9.01898C98.1073 9.22895 98.3177 9.43871 98.5282 9.64827C98.9681 10.0877 99.4054 10.5295 99.841 10.9732C100.399 11.5408 100.962 12.1019 101.528 12.6613C101.963 13.0932 102.395 13.5283 102.826 13.9645C103.033 14.1727 103.241 14.3799 103.449 14.586C103.741 14.8751 104.027 15.1683 104.313 15.4629C104.4 15.5468 104.486 15.6307 104.575 15.7171C105.042 16.209 105.212 16.5338 105.219 17.2222C105.088 19.5068 104.156 21.5068 102.654 23.2039C102.576 23.2929 102.499 23.3819 102.42 23.4736C101.267 24.7194 99.3022 25.9468 97.5777 26.0199C97.3798 26.0217 97.182 26.0227 96.9842 26.0231C96.8789 26.0235 96.7736 26.024 96.6651 26.0245C96.4422 26.0252 96.2193 26.0255 95.9963 26.0255C95.6576 26.0258 95.319 26.0283 94.9803 26.031C94.7632 26.0314 94.5461 26.0317 94.3291 26.0318C94.2288 26.0328 94.1285 26.0338 94.0251 26.0348C92.0296 26.0259 90.0409 24.7967 88.5857 23.4834C88.5857 23.3912 88.5857 23.2989 88.5857 23.2039C88.4938 23.1577 88.4018 23.1116 88.3071 23.0641C87.8243 22.5005 87.4467 21.9476 87.1928 21.2469C87.1009 21.2008 87.009 21.1546 86.9143 21.1071C85.7759 18.3472 85.4947 15.7531 86.6161 12.9395C87.6654 10.5665 89.4424 8.61162 91.8763 7.62659C93.0003 7.199 94.809 6.51824 95.9665 7.13703ZM92.7643 14.1179C91.9377 15.1875 91.8015 16.1439 91.9286 17.4727C92.2551 18.6844 92.9989 19.3466 94.0363 19.9866C94.8119 20.41 95.8367 20.4056 96.6828 20.1941C97.3451 19.9199 97.9689 19.5182 98.475 19.0103C98.475 18.8719 98.475 18.7336 98.475 18.591C98.5669 18.591 98.6588 18.591 98.7536 18.591C99.2849 17.4079 99.4559 16.4673 99.08 15.2099C98.688 14.2774 97.9115 13.5244 96.994 13.1159C95.415 12.6121 93.9687 12.965 92.7643 14.1179Z" fill="white"/>
<path d="M-0.37148 7.05777C0.635073 7.0507 1.92025 7.07922 2.92683 7.07584C3.26947 7.07443 3.6121 7.07253 3.95474 7.07011C4.44637 7.06673 4.93798 7.06514 5.42962 7.0639C5.58356 7.06246 5.73751 7.06101 5.89611 7.05953C6.03831 7.05951 6.18051 7.05948 6.32702 7.05946C6.45259 7.05884 6.57817 7.05822 6.70755 7.05758C7.01073 7.0912 7.01073 7.0912 7.2893 7.37077C7.39027 7.63123 7.39027 7.63123 7.48446 7.95237C7.52036 8.07316 7.55626 8.19394 7.59325 8.31839C7.63138 8.45003 7.66951 8.58167 7.70879 8.71729C7.7491 8.85383 7.78941 8.99036 7.83094 9.13104C7.96176 9.57494 8.0913 10.0192 8.22077 10.4635C8.30941 10.7655 8.39812 11.0675 8.4869 11.3695C8.66051 11.9606 8.83361 12.5519 9.00623 13.1433C9.19758 13.7987 9.39066 14.4535 9.58479 15.1081C9.6728 15.4062 9.76076 15.7043 9.84867 16.0025C9.90703 16.1988 9.90703 16.1988 9.96657 16.399C10.0006 16.5154 10.0346 16.6317 10.0696 16.7517C10.098 16.8482 10.1264 16.9447 10.1557 17.0442C10.2143 17.2955 10.2143 17.2955 10.2143 17.7149C10.3062 17.7149 10.3982 17.7149 10.4929 17.7149C10.507 17.5841 10.5211 17.4534 10.5356 17.3186C10.6375 16.6077 10.8536 15.9333 11.0625 15.2479C11.1262 15.0357 11.1262 15.0357 11.1911 14.8192C11.3262 14.3689 11.4623 13.9189 11.5985 13.4689C11.7341 13.0199 11.8695 12.5708 12.0043 12.1216C12.088 11.8428 12.1722 11.5641 12.2569 11.2856C12.4665 10.5884 12.6524 9.89533 12.7952 9.18116C12.902 8.7365 13.0877 8.34493 13.2786 7.92991C13.3562 7.73098 13.3562 7.73098 13.4353 7.52803C13.5572 7.23099 13.5572 7.23099 13.6964 7.0912C13.9188 7.07815 14.1416 7.07478 14.3643 7.07533C14.5065 7.07534 14.6488 7.07535 14.7953 7.07536C14.9499 7.07609 15.1046 7.07681 15.264 7.07755C15.5002 7.07785 15.5002 7.07785 15.7411 7.07815C16.2464 7.07893 16.7517 7.08069 17.2569 7.08246C17.5985 7.08316 17.9401 7.0838 18.2817 7.08438C19.1212 7.08592 19.9606 7.08826 20.8 7.0912C20.7205 7.68154 20.5827 8.17316 20.3441 8.71784C20.2765 8.87334 20.2089 9.02885 20.1392 9.18907C20.0635 9.36053 19.9878 9.53198 19.9121 9.70343C19.8323 9.88596 19.7526 10.0685 19.6729 10.2511C19.4493 10.763 19.2244 11.2743 18.999 11.7854C18.844 12.1371 18.6891 12.4889 18.5343 12.8407C18.0841 13.8636 17.6338 14.8864 17.1827 15.9089C16.4523 17.5652 15.7293 19.2245 15.0138 20.8874C14.3044 22.5361 13.583 24.1793 12.8607 25.8224C11.0681 25.8224 9.27551 25.8224 7.42859 25.8224C6.45359 23.446 6.45359 23.446 6.17501 22.4675C6.03712 22.3983 6.03712 22.3983 5.89644 22.3278C5.76066 21.9999 5.63879 21.6752 5.52211 21.3405C5.21701 20.4956 4.88433 19.6724 4.51766 18.852C3.95949 17.5883 3.45467 16.3015 2.94284 15.0183C2.53205 13.9922 2.09849 12.9838 1.63051 11.9823C1.34961 11.3683 1.10094 10.7432 0.85604 10.1141C0.764203 9.87994 0.672255 9.64587 0.580189 9.41185C0.537389 9.30216 0.494589 9.19247 0.450492 9.07945C0.335656 8.79498 0.210922 8.51762 0.082895 8.23897C-0.0878947 7.80277 -0.387133 7.51584 -0.37148 7.05777Z" fill="white"/>
<path d="M97.7786 1.25765C98.1458 1.54579 98.4652 1.87766 98.7906 2.21198C98.8898 2.31177 98.9891 2.41156 99.0914 2.51437C99.4196 2.84479 99.7457 3.17714 100.072 3.5095C100.3 3.73967 100.528 3.96971 100.756 4.19963C101.357 4.80576 101.957 5.41349 102.556 6.02163C103.514 6.99347 104.474 7.96274 105.434 8.93227C105.769 9.27076 106.103 9.60983 106.437 9.94901C106.644 10.1577 106.85 10.3664 107.056 10.5751C107.148 10.669 107.24 10.763 107.335 10.8599C107.728 11.2562 108.12 11.6391 108.551 11.9935C108.922 12.301 109.179 12.6238 109.479 12.9996C109.616 13.1149 109.754 13.2302 109.896 13.349C110.286 13.6751 110.564 13.9959 110.871 14.3974C110.975 14.481 111.078 14.5647 111.185 14.6508C111.563 15.1258 111.486 15.4774 111.429 16.0749C111.15 16.3544 111.15 16.3544 110.779 16.3637C110.113 16.1501 109.757 15.7314 109.287 15.2274C109.198 15.1347 109.109 15.042 109.017 14.9465C108.798 14.7184 108.58 14.4888 108.364 14.2576C107.89 14.4803 107.617 14.7202 107.267 15.1138C106.921 15.4648 106.75 15.6376 106.275 15.7865C104.978 15.3797 103.887 13.8456 102.933 12.8937C102.848 12.8091 102.763 12.7245 102.676 12.6373C102.228 12.191 101.781 11.7442 101.334 11.2971C100.873 10.8361 100.41 10.3767 99.9476 9.91767C99.5907 9.56316 99.235 9.20742 98.8797 8.85133C98.7096 8.68132 98.5391 8.51179 98.3681 8.34274C98.1297 8.10694 97.8932 7.86944 97.657 7.63145C97.551 7.52773 97.551 7.52773 97.4428 7.42191C97.046 7.01771 96.8338 6.72445 96.8036 6.15012C97.1031 5.40875 97.7697 4.87668 98.3357 4.33292C97.8974 3.80713 97.4649 3.31853 96.9603 2.85644C96.6161 2.51566 96.5329 2.41343 96.4293 1.92163C96.525 1.53722 96.525 1.53722 96.7601 1.26639C97.1929 1.06679 97.3269 1.09741 97.7786 1.25765Z" fill="white"/>
<path d="M110.036 16.9141C110.357 16.9141 110.679 16.9141 111.011 16.9141C111.449 17.6449 111.335 18.4633 111.333 19.2904C111.335 19.4565 111.337 19.6227 111.34 19.7939C111.34 19.9535 111.34 20.1132 111.34 20.2776C111.34 20.4234 111.341 20.5692 111.341 20.7194C111.282 21.1601 111.18 21.3517 110.871 21.6668C110.523 21.7454 110.523 21.7454 110.175 21.6668C109.588 21.0111 109.701 20.1969 109.714 19.369C109.713 19.2259 109.713 19.0827 109.712 18.9352C109.717 18.2089 109.745 17.5923 110.036 16.9141Z" fill="white"/>
</g>
<defs>
<clipPath id="clip0_407_703">
<rect width="111.429" height="26" fill="white"/>
</clipPath>
</defs>
</svg>
