<svg width="125" height="26" viewBox="0 0 125 26" fill="none" xmlns="http://www.w3.org/2000/svg">
<g clip-path="url(#clip0_142_620)">
<path fill-rule="evenodd" clip-rule="evenodd" d="M124.059 19.7146C123.644 20.0648 123.115 20.2204 122.474 20.2204C121.927 20.2204 121.512 20.0648 121.228 19.7341C120.945 19.4034 120.795 18.956 120.795 18.3529V12.4197H124.04V10.0853H120.795V7.24512H117.964V9.85186H116.247C114.191 9.85186 112.756 10.5133 111.945 11.8166V10.0075H109.247V22.477H112.077V16.4271C112.077 15.182 112.417 14.2677 113.002 13.5674C113.956 12.4329 115.783 12.4379 116.213 12.4391L116.247 12.4391H117.964V18.4307C117.964 19.7925 118.323 20.8429 119.059 21.5627C119.775 22.2825 120.813 22.6326 122.134 22.6326C122.662 22.6326 123.172 22.5548 123.644 22.4186C124.115 22.2825 124.53 22.0685 124.851 21.7961L124.059 19.7146ZM106.096 15.1626C106.096 13.3729 105.624 12.0501 104.681 11.1747C103.737 10.2993 102.379 9.85186 100.605 9.85186C99.6051 9.85186 98.6617 9.96858 97.7751 10.2409C96.8883 10.5133 96.1335 10.8829 95.492 11.3887L96.6051 13.5091C97.0579 13.12 97.6052 12.8088 98.2655 12.5948C98.926 12.3808 99.5863 12.264 100.266 12.264C101.247 12.264 102.002 12.4975 102.511 12.9644C103.02 13.4313 103.266 14.0927 103.266 14.9681V15.1626H100.134C98.3975 15.1626 97.1333 15.4933 96.3222 16.1742C95.5108 16.855 95.1146 17.7499 95.1146 18.8782C95.1146 19.5979 95.2842 20.2399 95.6616 20.804C96.0202 21.3682 96.5485 21.8156 97.2278 22.1268C97.9071 22.4576 98.6995 22.6132 99.6051 22.6132C100.511 22.6132 101.285 22.477 101.926 22.1852C102.568 21.8934 103.077 21.4849 103.417 20.9402V22.477H106.096V15.1626ZM103.266 18.5669C103.039 19.1894 102.643 19.6757 102.096 20.0065C101.549 20.3371 100.926 20.5122 100.19 20.5122C99.4731 20.5122 98.907 20.3566 98.492 20.0454C98.0958 19.7341 97.8881 19.3061 97.8881 18.7809C97.8881 17.672 98.7183 17.1274 100.341 17.1274H103.266V18.5669ZM69.4346 15.3182C69.4346 13.5091 68.9818 12.1473 68.0571 11.233C67.1327 10.3187 65.9061 9.85186 64.3968 9.8713C63.5099 9.8713 62.7173 10.0269 62.0004 10.3187C61.2835 10.6105 60.6986 11.0385 60.2267 11.6221V10.0075H57.5286V22.4576H60.3588V16.1547C60.3588 14.9486 60.642 13.9954 61.2456 13.3534C61.8495 12.7115 62.6797 12.3808 63.7174 12.3808C64.6421 12.3808 65.359 12.6726 65.8497 13.2173C66.3591 13.7814 66.6042 14.5985 66.6042 15.6878V22.4576H69.4346V15.3182ZM45.5094 21.8156C44.5281 21.2709 43.7546 20.5122 43.2073 19.5396C42.6603 18.5669 42.3771 17.4581 42.3771 16.2325C42.3771 15.007 42.6603 13.8981 43.2073 12.9449C43.7546 11.9917 44.5281 11.233 45.5094 10.6883C46.4905 10.1437 47.5848 9.8713 48.8114 9.8713C50.0566 9.8713 51.1509 10.1437 52.1322 10.6883C53.1133 11.233 53.8868 11.9917 54.4341 12.9449C54.9814 13.9176 55.2643 15.007 55.2643 16.2325C55.2643 17.4581 54.9814 18.5669 54.4341 19.5396C53.8868 20.5122 53.1133 21.2709 52.1322 21.8156C51.1509 22.3603 50.0378 22.6326 48.8114 22.6326C47.5848 22.6326 46.4905 22.3603 45.5094 21.8156ZM51.3962 19.0532C52.0756 18.3335 52.4151 17.3997 52.4151 16.2325C52.4151 15.0653 52.0756 14.1316 51.3962 13.4118C50.7172 12.692 49.8491 12.3419 48.8114 12.3419C47.7735 12.3419 46.9057 12.692 46.2452 13.4118C45.5661 14.1316 45.2453 15.0653 45.2453 16.2325C45.2453 17.3997 45.5849 18.3335 46.2452 19.0532C46.9057 19.773 47.7735 20.1232 48.8114 20.1232C49.8491 20.1232 50.7172 19.773 51.3962 19.0532ZM35.1316 22.4576V20.1232H28.3013L34.9431 11.8555V10.0075H24.8295V12.3419H31.3392L24.6974 20.6289V22.4576H35.1316ZM40.113 10.0075H37.2826V22.477H40.113V10.0075ZM91.4728 11.233C92.3596 12.1473 92.8127 13.5091 92.8127 15.3377V22.477H89.9823V15.6878C89.9823 14.5985 89.7558 13.7814 89.2842 13.2173C88.8126 12.6726 88.152 12.3808 87.2652 12.3808C86.3217 12.3808 85.5481 12.7115 84.9821 13.3534C84.416 13.9954 84.1143 14.9291 84.1143 16.1158V22.4381H81.2839V15.6878C81.2839 14.5985 81.0576 13.7814 80.5857 13.2173C80.1141 12.6726 79.4536 12.3808 78.567 12.3808C77.6045 12.3808 76.8309 12.692 76.2649 13.334C75.6988 13.976 75.4159 14.8902 75.4159 16.1158V22.4381H72.5855V10.0075H75.2838V11.6026C75.7366 11.0385 76.3027 10.6105 76.982 10.3187C77.6611 10.0269 78.4159 9.8713 79.2461 9.8713C80.1517 9.8713 80.9631 10.0464 81.6613 10.3965C82.3594 10.7467 82.9255 11.272 83.3217 11.9528C83.8123 11.2914 84.4538 10.7856 85.2464 10.416C86.0388 10.0464 86.9068 9.8713 87.85 9.8713C89.3786 9.85186 90.586 10.3187 91.4728 11.233ZM40.113 10.0075L40.7952 7.46004H43.632L42.9499 10.0075L40.113 10.0075Z" fill="white"/>
<mask id="mask0_142_620" style="mask-type:luminance" maskUnits="userSpaceOnUse" x="0" y="0" width="18" height="26">
<path d="M17.9096 0.0947266H0.175781V25.8373H17.9096V0.0947266Z" fill="white"/>
</mask>
<g mask="url(#mask0_142_620)">
<path fill-rule="evenodd" clip-rule="evenodd" d="M0.175781 15.826V7.24512H17.9095V13.9477L11.6099 20.1164H7.47829L14.9885 12.7623V10.1054H3.09678V12.9657L0.175781 15.826ZM3.09678 22.9767H14.9885V20.1164L17.9095 17.2561V25.8369H0.175781V19.1343L6.47542 12.9657H10.607L3.09678 20.3198V22.9767Z" fill="white"/>
<path d="M8.93967 2.95502C10.5495 2.95502 11.8607 4.23896 11.8607 5.81531H14.7817C14.7817 2.66264 12.1625 0.0947266 8.93967 0.0947266C5.71683 0.0947266 3.09766 2.66264 3.09766 5.81531H6.01867C6.01867 4.23896 7.32986 2.95502 8.93967 2.95502Z" fill="white"/>
</g>
</g>
<defs>
<clipPath id="clip0_142_620">
<rect width="124.851" height="26" fill="white"/>
</clipPath>
</defs>
</svg>
